<svg width="900" height="900" viewBox="0 0 20 17" fill="none" xmlns="http://www.w3.org/2000/svg">
<path style="stroke: #028a7e;" d="M1 14.531C1 12.6539 2.33361 11.055 4.14603 10.7592L4.30929 10.7326C5.76058 10.4957 7.23942 10.4957 8.69071 10.7326L8.85397 10.7592C10.6664 11.055 12 12.6539 12 14.531C12 15.3423 11.3569 16 10.5636 16H2.43639C1.64309 16 1 15.3423 1 14.531Z" stroke="currentColor" stroke-width="1.5"></path>
<path style="stroke: #028a7e;" d="M9.70833 4.28125C9.70833 6.09343 8.27191 7.5625 6.5 7.5625C4.72809 7.5625 3.29167 6.09343 3.29167 4.28125C3.29167 2.46907 4.72809 1 6.5 1C8.27191 1 9.70833 2.46907 9.70833 4.28125Z" stroke="currentColor" stroke-width="1.5"></path>
<path style="stroke: #028a7e;" d="M12 7.5625C14.2552 7.5625 16.0833 6.09343 16.0833 4.28125C16.0833 2.46907 14.2552 1 12 1M14.7882 16H17.1719C18.1815 16 19 15.3423 19 14.531C19 12.6539 17.3027 11.055 14.996 10.7592L14.7882 10.7326C14.2285 10.7326 14.195 10.7326 13.448 10.7326" class="icon_main" stroke-width="1.5" stroke-linecap="round"></path>
</svg>