<svg width="900" height="900" viewBox="0 0 20 20" fill="none" xmlns="http://www.w3.org/2000/svg">
<path style="stroke: #028a7e;" d="M10 1C8.97667 1 7.95334 1.11763 6.95043 1.35288C4.17301 2.00437 2.00437 4.17301 1.35288 6.95043C0.882374 8.95626 0.882374 11.0437 1.35288 13.0496C2.00437 15.827 4.17301 17.9956 6.95044 18.6471C8.95626 19.1176 11.0437 19.1176 13.0496 18.6471C15.827 17.9956 17.9956 15.827 18.6471 13.0496C18.8824 12.0466 19 11.0233 19 9.99997" class="icon_main" stroke-width="1.5" stroke-linecap="round"></path>
<path style="stroke: #028a7e;" d="M1.35288 13.0496C0.882374 11.0437 0.882374 8.95626 1.35288 6.95043C2.00437 4.17301 4.17301 2.00437 6.95043 1.35288C7.95334 1.11763 8.97667 1 10 1M6.95044 18.6471C8.95626 19.1176 11.0437 19.1176 13.0496 18.6471C15.827 17.9956 17.9956 15.827 18.6471 13.0496C18.8824 12.0466 19 11.0233 19 9.99997" stroke="currentColor" stroke-width="1.5" stroke-linecap="round"></path>
<path style="stroke: #028a7e;" d="M19 4.5C19 5.88071 17.8807 7 16.5 7C15.1193 7 14 5.88071 14 4.5C14 3.11929 15.1193 2 16.5 2C17.8807 2 19 3.11929 19 4.5Z" class="icon_main" stroke-width="1.5"></path>
</svg>