<svg width="900" height="900" viewBox="0 0 20 20" fill="none" xmlns="http://www.w3.org/2000/svg">
<path style="stroke: #028a7e;" d="M13.2292 16.2395L13.3796 16.1355C13.8504 15.8099 14.0859 15.6471 14.2965 15.4725C15.4409 14.5241 16.2095 13.202 16.4653 11.7421C16.5124 11.4734 16.5369 11.1892 16.5858 10.6208L16.6111 10.3269C16.6921 9.38597 16.684 8.43958 16.587 7.50019L16.5569 7.20949C16.3871 5.56558 15.3779 4.12476 13.8867 3.39719C11.4348 2.20094 8.56455 2.20094 6.11266 3.39719C4.62141 4.12476 3.61221 5.56558 3.4424 7.20949L3.41237 7.50019C3.31534 8.43958 3.30726 9.38597 3.38825 10.3269L3.41356 10.6208C3.46249 11.1892 3.48695 11.4734 3.53403 11.7421C3.78985 13.202 4.55847 14.5241 5.70284 15.4725C5.91344 15.6471 6.14893 15.8099 6.61973 16.1355L6.77018 16.2395C7.41028 16.6821 7.73036 16.9035 8.05113 17.0573C9.28242 17.6476 10.7169 17.6476 11.9482 17.0573C12.269 16.9035 12.5891 16.6821 13.2292 16.2395Z" class="icon_main" stroke-width="1.5"></path>
<path d="M16.5858 10.6208L16.6111 10.3269C16.6921 9.38596 16.684 8.43958 16.587 7.50019L16.5569 7.20949C16.3871 5.56558 15.3779 4.12476 13.8867 3.39719C11.4348 2.20094 8.56455 2.20094 6.11266 3.39719C4.62141 4.12476 3.61221 5.56558 3.4424 7.20949L3.41237 7.50019C3.31534 8.43958 3.30726 9.38597 3.38825 10.3269L3.41356 10.6208C3.46249 11.1892 3.48695 11.4734 3.53403 11.7421C3.78985 13.202 4.55847 14.5241 5.70284 15.4725C5.91344 15.6471 6.14893 15.8099 6.61973 16.1355L6.77019 16.2395C7.41028 16.6821 7.73036 16.9035 8.05113 17.0573" stroke="currentColor" stroke-width="1.5" stroke-linecap="round"></path>
<path style="stroke: #028a7e;" d="M7.70801 9.79134L9.37467 11.458L12.2913 8.33301" class="icon_main" stroke-width="1.5" stroke-linecap="round" stroke-linejoin="round"></path></svg>