<svg width="900" height="900" viewBox="0 0 20 20" fill="none" xmlns="http://www.w3.org/2000/svg">
<path style="stroke: #028a7e;" d="M7.08301 13.1171C7.08301 12.2976 7.67353 11.5995 8.47606 11.4704C9.48542 11.3079 10.5139 11.3079 11.5233 11.4704C12.3258 11.5995 12.9163 12.2976 12.9163 13.1171V13.2985C12.9163 13.7778 12.531 14.1663 12.0558 14.1663H7.94359C7.4683 14.1663 7.08301 13.7778 7.08301 13.2985V13.1171Z" class="icon_main" stroke-width="1.5"></path>
<path style="stroke: #028a7e;" d="M11.7011 7.54869C11.7011 8.49624 10.9393 9.26438 9.99967 9.26438C9.06002 9.26438 8.29829 8.49624 8.29829 7.54869C8.29829 6.60115 9.06002 5.83301 9.99967 5.83301C10.9393 5.83301 11.7011 6.60115 11.7011 7.54869Z" class="icon_main" stroke-width="1.5"></path>
<path d="M17.5 5.83333C17.5 3.99238 15.6345 2.5 13.3333 2.5M2.5 13.3333C2.5 15.6345 3.99238 17.5 5.83333 17.5M5.83333 2.5C3.99238 2.5 2.5 3.99238 2.5 5.83333M13.3333 17.5C15.6345 17.5 17.5 15.6345 17.5 13.3333" stroke="currentColor" stroke-width="1.5" stroke-linecap="round"></path></svg>