<?xml version="1.0" encoding="iso-8859-1"?>
<!-- Uploaded to: SVG Repo, www.svgrepo.com, Generator: SVG Repo Mixer Tools -->
<svg fill="#000000" height="800px" width="800px" version="1.1" id="Layer_1" xmlns="http://www.w3.org/2000/svg"
    viewBox="0 0 511.997 511.997" xml:space="preserve">
<g>
	<g>
		<g>
			<path d="M298.665,68.265c4.71,0,8.533-3.823,8.533-8.533V25.599c0-4.71-3.823-8.533-8.533-8.533c-4.71,0-8.533,3.823-8.533,8.533
				v34.133C290.131,64.442,293.954,68.265,298.665,68.265z"/>
			<path d="M469.331,85.332c2.185,0,4.369-0.836,6.033-2.5l17.067-17.067c3.337-3.336,3.337-8.73,0-12.066
				c-3.336-3.337-8.73-3.337-12.066,0l-17.067,17.067c-3.336,3.337-3.336,8.73,0,12.066
				C464.962,84.496,467.147,85.332,469.331,85.332z"/>
			<path d="M188.167,62.429c1.195,3.575,4.523,5.845,8.098,5.845c0.887,0,1.801-0.145,2.697-0.444
				c4.471-1.493,6.895-6.323,5.402-10.795l-8.533-25.6c-1.493-4.471-6.306-6.903-10.795-5.402
				c-4.471,1.493-6.895,6.332-5.402,10.795L188.167,62.429z"/>
			<path d="M344.403,117.486c1.596,1.331,3.533,1.98,5.461,1.98c2.441,0,4.864-1.05,6.554-3.072l42.667-51.2
				c3.021-3.618,2.526-9.003-1.092-12.015c-3.627-3.021-9.003-2.534-12.015,1.092l-42.667,51.2
				C340.29,109.089,340.785,114.473,344.403,117.486z"/>
			<path d="M91.791,93.609l34.133,8.533c0.7,0.179,1.391,0.256,2.082,0.256c3.823,0,7.296-2.586,8.269-6.46
				c1.143-4.574-1.638-9.207-6.204-10.351l-34.133-8.533c-4.565-1.143-9.207,1.638-10.351,6.204
				C84.444,87.832,87.226,92.466,91.791,93.609z"/>
			<path d="M392.531,204.799c-6.229,0-12.134,1.766-17.229,4.83c-1.877-21.803-20.224-38.963-42.505-38.963
				c-10.837,0-20.736,4.062-28.271,10.735c-6.042-16.222-21.692-27.802-39.996-27.802c-16.179,0-30.276,9.045-37.513,22.349
				c-7.706-8.678-18.5-13.815-30.754-13.815c-23.526,0-42.667,19.14-42.667,42.667v59.733c0,4.71,3.823,8.533,8.533,8.533
				s8.533-3.823,8.533-8.533v-59.733c0-14.114,11.486-25.6,25.6-25.6c15.71,0,24.201,13.329,25.651,26.53
				c0.495,4.506,4.497,7.782,8.951,7.595c4.523-0.247,8.064-3.994,8.064-8.525v-8.533c0-14.114,11.486-25.6,25.6-25.6
				s25.6,11.486,25.6,25.6v17.067c0,4.71,3.823,8.533,8.533,8.533c4.71,0,8.533-3.823,8.533-8.533c0-14.114,11.486-25.6,25.6-25.6
				s25.6,11.486,25.6,25.6v25.6c0,4.71,3.823,8.533,8.533,8.533s8.533-3.823,8.533-8.533c0-8.934,8.132-17.067,17.067-17.067
				c8.61,0,17.067,8.457,17.067,17.067v110.933c0,37.026-7.902,55.714-16.273,75.494c-6.204,14.66-12.604,29.773-16.606,52.506
				H186.093c-9.429-41.216-31.249-91.332-64.939-149.112c-3.644-6.255-7.305-12.373-10.94-18.33
				c-9.293-15.241-10.394-35.499-2.671-49.254c3.507-6.255,10.419-13.705,23.39-13.705c4.71,0,8.533-3.823,8.533-8.533
				c0-4.71-3.823-8.533-8.533-8.533c-16.563,0-30.157,7.962-38.272,22.417c-10.769,19.191-9.574,45.909,2.995,66.5
				c3.567,5.862,7.168,11.887,10.761,18.031c34.62,59.401,56.294,110.106,64.418,150.724c0.794,3.994,4.292,6.861,8.363,6.861h204.8
				c4.25,0,7.842-3.123,8.448-7.322c3.533-24.73,10.172-40.422,16.597-55.603c8.661-20.48,17.621-41.651,17.621-82.142V238.932
				C426.665,221.072,410.392,204.799,392.531,204.799z"/>
			<path d="M504.523,153.667l-204.8-25.6c-4.685-0.589-8.943,2.731-9.523,7.407c-0.589,4.676,2.731,8.943,7.407,9.523l204.8,25.6
				c0.358,0.051,0.717,0.068,1.067,0.068c4.241,0,7.919-3.157,8.457-7.475C512.519,158.514,509.199,154.247,504.523,153.667z"/>
			<path d="M341.152,92.107c-0.973-4.617-5.513-7.578-10.112-6.588L6.773,153.786c-4.617,0.964-7.561,5.495-6.588,10.103
				c0.845,4.019,4.386,6.776,8.337,6.776c0.58,0,1.178-0.06,1.766-0.188l324.267-68.258
				C339.172,101.247,342.116,96.724,341.152,92.107z"/>
		</g>
	</g>
</g>
</svg>