<svg id="svg1787" height="512" viewBox="0 0 8.4666664 8.4666664" width="512" xmlns="http://www.w3.org/2000/svg" xmlns:svg="http://www.w3.org/2000/svg"><g id="layer1" transform="translate(0 -288.533)"><g id="g4990" transform="translate(176.324 264.751)"><path id="rect4808-0" d="m-172.64069 24.475378-2.20816 1.57402c-.41746.31613-.41728.60318-.41728.7852v3.80443c0 .59918.45473 1.08119 1.01993 1.08119h4.31161c.5652 0 1.01993-.48201 1.01993-1.08119v-3.80443c0-.18202.00018-.46907-.41728-.7852l-2.20816-1.57402c-.32395-.20809-.77887-.22505-1.10059 0z" fill="#e9eaff"/><path id="path4220-0" d="m-168.91492 27.507539c-2.35338 0-3.59521 2.218469-3.05511 4.212663h2.03554c.56519 0 1.01957-.481891 1.01957-1.081071z" fill="#ffc861"/><path id="rect2398-6" d="m-172.55971 28.624648c-.41054 0-.74105.33051-.74105.74105v2.35451h2.4229v-2.35451c0-.41054-.33051-.74105-.74105-.74105z" fill="#55a1ff"/><path id="path2674-0" d="m-172.09086 23.913148c-.35616 0-.69201.18101-.77928.24081-1.09874.72187-2.13433 1.51869-3.16776 2.32183-.35506.27615-.0501.83683.37465.68884v3.477309c0 .799981.62717 1.476911 1.418 1.476911 1.43744.00014 2.87481 0 4.31085 0 .79084 0 1.418-.67693 1.418-1.476911v-3.477819c.42374.14612.72742-.41181.37466-.68833-1.0159-.82835-2.10084-1.56162-3.16777-2.32183-.23432-.13806-.41831-.24119-.78135-.24081zm.33591.89865 2.18385 1.55702c.14192.10472.25941.28729.25941.4687v3.804419c0 .39839-.28315.683681-.6227.683681h-.54518v-1.9575c0-.62355-.51489-1.13844-1.13844-1.13844h-.94154c-.62355 0-1.13688.51489-1.13688 1.13844v.76584c-.0213.54973.81455.54973.79323 0v-.76584c0-.19754.14611-.34572.34365-.34572h.94154c.19755 0 .34365.14818.34365.34572v1.9575h-2.97089c-.33955 0-.6227-.285291-.6227-.683681v-3.804419c0-.25407.15814-.38417.26459-.47232l2.19056-1.56321c.23177-.15685.43972-.14404.65785.01z" fill="#4d4d4d" font-variant-ligatures="normal" font-variant-position="normal" font-variant-caps="normal" font-variant-numeric="normal" font-variant-alternates="normal" font-feature-settings="normal" text-indent="0" text-align="start" text-decoration-line="none" text-decoration-style="solid" text-decoration-color="#000000" text-transform="none" text-orientation="mixed" white-space="normal" shape-padding="0" isolation="auto" mix-blend-mode="normal" solid-color="#000000" solid-opacity="1" vector-effect="none"/></g></g></svg>