<svg height="512" viewBox="0 0 24 24" width="512" xmlns="http://www.w3.org/2000/svg"><g id="_01" data-name="01"><path d="m10.571 5.333v1.905a2.979 2.979 0 0 1 -3.333 3.333h-1.905a2.98 2.98 0 0 1 -3.333-3.333v-1.905a2.98 2.98 0 0 1 3.333-3.333h1.905a2.98 2.98 0 0 1 3.333 3.333z" fill="#6282c1"/><path d="m22 5.333v1.905a2.98 2.98 0 0 1 -3.333 3.333h-1.905a2.979 2.979 0 0 1 -3.333-3.333v-1.905a2.98 2.98 0 0 1 3.333-3.333h1.905a2.98 2.98 0 0 1 3.333 3.333z" fill="#c0cdea"/><path d="m22 16.762v1.905a2.98 2.98 0 0 1 -3.333 3.333h-1.905a2.98 2.98 0 0 1 -3.333-3.333v-1.905a2.979 2.979 0 0 1 3.333-3.333h1.905a2.98 2.98 0 0 1 3.333 3.333z" fill="#f7b115"/><path d="m10.571 16.762v1.905a2.98 2.98 0 0 1 -3.333 3.333h-1.905a2.98 2.98 0 0 1 -3.333-3.333v-1.905a2.98 2.98 0 0 1 3.333-3.333h1.905a2.979 2.979 0 0 1 3.333 3.333z" fill="#c0cdea"/></g></svg>