<svg xmlns="http://www.w3.org/2000/svg" id="Capa_1" enable-background="new 0 0 512.017 512.017" height="512" viewBox="0 0 512.017 512.017" width="512"><path d="m256.3 512.012h-.382c-33.508 0-60.768-27.261-60.768-60.769v-14.2c0-8.284 6.716-15 15-15h91.918c8.284 0 15 6.716 15 15v14.2c0 33.509-27.261 60.769-60.768 60.769z" fill="#ffa81c"/><path d="m302.068 422.044h-45.959v89.969h.191c33.508 0 60.768-27.261 60.768-60.769v-14.2c0-8.285-6.716-15-15-15z" fill="#ff9300"/><path d="m286.093 93.76h-59.969c-8.284 0-15-6.716-15-15v-33.763c0-24.805 20.18-44.984 44.984-44.984s44.984 20.18 44.984 44.984v33.763c.001 8.284-6.715 15-14.999 15z" fill="#ffa81c"/><path d="m286.093 93.76c8.284 0 15-6.716 15-15v-33.763c0-24.805-20.18-44.984-44.984-44.984v93.747z" fill="#ff9300"/><path d="m415.057 452.044h-317.897c-12.983 0-23.546-10.563-23.546-23.546v-21.446c0-23.491 8.649-46.049 24.354-63.519 10.746-11.954 16.664-27.389 16.664-43.462v-97.177c0-78.01 63.465-141.475 141.475-141.475s141.475 63.465 141.475 141.475v97.177c0 16.073 5.918 31.508 16.664 43.461 15.706 17.47 24.355 40.028 24.355 63.519v21.446c.001 12.984-10.561 23.547-23.544 23.547z" fill="#ffcf2c"/><path d="m415.057 452.044c12.983 0 23.546-10.563 23.546-23.546v-21.446c0-23.491-8.649-46.049-24.355-63.519-10.746-11.953-16.664-27.388-16.664-43.461v-97.177c0-78.01-63.465-141.475-141.475-141.475v390.624z" fill="#ffc12e"/><path d="m73.615 407.052v21.446c0 12.983 10.563 23.546 23.546 23.546h317.896c12.983 0 23.546-10.563 23.546-23.546v-21.446c0-10.288-1.66-20.396-4.844-29.978h-355.3c-3.184 9.582-4.844 19.69-4.844 29.978z" fill="#fff566"/><path d="m256.109 377.074v74.969h158.948c12.983 0 23.546-10.563 23.546-23.546v-21.446c0-10.288-1.66-20.396-4.844-29.978h-177.65z" fill="#ffe645"/></svg>