<svg id="Layer_4" height="512" viewBox="0 0 24 24" width="512" xmlns="http://www.w3.org/2000/svg" xmlns:xlink="http://www.w3.org/1999/xlink" data-name="Layer 4"><linearGradient id="linear-gradient" gradientUnits="userSpaceOnUse" x1="3.965" x2="20.035" y1="3.965" y2="20.035"><stop offset="0" stop-color="#fee140"/><stop offset="1" stop-color="#fa709a"/></linearGradient><path d="m17 3h-10a5 5 0 0 0 -5 5v8a5 5 0 0 0 5 5h10a5 5 0 0 0 5-5v-8a5 5 0 0 0 -5-5zm-6.29 3.29-1.3-1.29h4.18l2 2-2 2h-4.18l1.3-1.29a1.008 1.008 0 0 0 0-1.42zm-6.71 1.71a2.992 2.992 0 0 1 2.62-2.96l1.97 1.96-2 2h-2.59zm16 1h-3.59l1.3-1.29a1.008 1.008 0 0 0 0-1.42l-1.3-1.29h.59a3.009 3.009 0 0 1 3 3z" fill="url(#linear-gradient)"/></svg>