<svg id="Capa_1" enable-background="new 0 0 512 512" height="512" viewBox="0 0 512 512" width="512" xmlns="http://www.w3.org/2000/svg"><g><g><path d="m366.754 85.737c10.087 0 19.888 1.219 29.272 3.502 3.303-11.485 12.095-19.7 22.424-19.7 13.158 0 23.825 13.327 23.825 29.767 0 1.208-.064 2.396-.176 3.566 10.955-7.231 24.279-7.352 32.137.506 9.304 9.304 7.423 26.27-4.202 37.895-.041.041-.083.078-.124.118 12.803 19.451 20.26 42.733 20.26 67.761v23.33h-246.831v-23.33c0-68.16 55.255-123.415 123.415-123.415z" fill="#f2b88f"/></g><g><path d="m366.754 85.737c10.087 0 19.888 1.219 29.272 3.502 3.303-11.485 12.095-19.7 22.424-19.7 13.158 0 23.825 13.327 23.825 29.767 0 1.208-.064 2.396-.176 3.566 10.955-7.231 24.279-7.352 32.137.506 9.304 9.304 7.423 26.27-4.202 37.895-.041.041-.083.078-.124.118 12.803 19.451 20.26 42.733 20.26 67.761v23.33h-246.831v-23.33c0-68.16 55.255-123.415 123.415-123.415z" fill="#f2b88f"/></g><g><path d="m243.339 209.152v23.33h49.425v-18.597c0-48.48 25.247-118.141 73.99-128.148-68.16 0-123.415 55.255-123.415 123.415z" fill="#e3a67b"/></g><g><path d="m473.508 417.827c-10.087-57.438-54.766-100.723-108.355-100.723-17.74 0-34.502 4.748-49.357 13.178-14.774-10.108-35.956-16.446-59.496-16.446-44.645 0-80.837 22.781-80.837 50.884v17.372l60.299 60.299 219.821.072c11.468-.001 20.166-11.876 17.925-24.636z" fill="#a4e7ff"/></g><g><path d="m302.958 417.899c8.597-48.953 42.323-87.619 85.275-97.976-7.445-1.795-15.164-2.747-23.08-2.747-17.74 0-34.502 4.748-49.357 13.178-14.774-10.108-35.956-16.446-59.496-16.446-44.645 0-80.837 22.781-80.837 50.884v17.372l60.299 60.299 85.123.072c-11.469-.002-20.168-11.876-17.927-24.636z" fill="#5ad6ff"/></g><g><circle cx="365.153" cy="348.545" fill="#ffcdbe" r="30"/></g><g><circle cx="477.392" cy="246.579" fill="#ffdecf" r="27.108"/></g><g><path d="m431.327 210.526c-31.368-12.846-54.523-35.674-64.71-60.454-10.187 24.781-33.342 47.609-64.71 60.454-14.59 5.975-29.441 9.168-43.627 9.815-1.351 6.853-2.065 13.934-2.065 21.183 0 60.165 48.773 108.939 108.939 108.939s108.939-48.774 108.939-108.939c0-7.355-.734-14.538-2.123-21.485-13.275-.883-27.056-3.949-40.643-9.513z" fill="#ffeee5"/></g><g><path d="m292.552 221.869c0-2.679.083-5.337.212-7.984-11.604 3.821-23.25 5.943-34.48 6.455-1.351 6.854-2.07 13.934-2.07 21.184 0 56.891 43.611 103.587 99.225 108.503-38.255-29.639-62.887-76.019-62.887-128.158z" fill="#ffdecf"/></g><g><g><path d="m310.153 259.729c-4.142 0-7.5-3.358-7.5-7.5v-10.569c0-4.142 3.358-7.5 7.5-7.5s7.5 3.358 7.5 7.5v10.568c0 4.143-3.358 7.501-7.5 7.501z"/></g><g><path d="m420.153 259.729c-4.142 0-7.5-3.358-7.5-7.5v-10.569c0-4.142 3.358-7.5 7.5-7.5s7.5 3.358 7.5 7.5v10.568c0 4.143-3.358 7.501-7.5 7.501z"/></g><g><path d="m365.152 266.02c-7.726 0-15.072-3.345-20.155-9.178-2.721-3.123-2.395-7.861.728-10.582 3.123-2.72 7.86-2.395 10.582.728 2.233 2.563 5.457 4.033 8.845 4.033 3.389 0 6.613-1.47 8.846-4.033 2.721-3.124 7.458-3.449 10.582-.728 3.123 2.721 3.448 7.459.727 10.582-5.082 5.833-12.429 9.178-20.155 9.178z"/></g></g><g><path d="m252.588 417.855c-10.076-57.372-54.703-100.608-108.231-100.608s-98.156 43.236-108.231 100.608c-2.239 12.745 6.45 24.607 17.905 24.607h180.652c11.455 0 20.143-11.861 17.905-24.607z" fill="#fad989"/></g><g><path d="m82.233 417.855c8.587-48.897 42.275-87.519 85.177-97.864-7.436-1.793-15.147-2.744-23.054-2.744-53.528 0-98.155 43.236-108.231 100.608-2.239 12.745 6.45 24.606 17.905 24.606h46.108c-11.455.001-20.144-11.861-17.905-24.606z" fill="#f6ca56"/></g><g><circle cx="144.357" cy="348.405" fill="#d69a8a" r="30"/></g><g><path d="m276.009 229.437c3.382-5.229 5.348-11.459 5.348-18.151 0-11.554-5.853-21.742-14.755-27.76 3.13-5.093 4.938-11.087 4.938-17.504 0-17.008-12.684-31.045-29.106-33.191.11-1.107.168-2.229.168-3.365 0-18.493-14.992-33.485-33.486-33.485-3.677 0-7.212.601-10.522 1.696-4.741-12.732-17.003-21.802-31.387-21.802-8.8 0-16.803 3.4-22.779 8.951-5.976-5.551-13.979-8.951-22.779-8.951-14.384 0-26.646 9.07-31.387 21.802-3.31-1.095-6.845-1.696-10.522-1.696-18.494 0-33.486 14.992-33.486 33.485 0 1.136.058 2.259.168 3.366-16.423 2.147-29.106 16.183-29.106 33.191 0 6.417 1.808 12.41 4.938 17.504-8.902 6.017-14.754 16.205-14.754 27.759 0 6.692 1.966 12.922 5.348 18.151z" fill="#6b7d8e"/></g><g><path d="m79.74 95.98c-18.494 0-33.486 14.992-33.486 33.485 0 1.136.058 2.259.168 3.366-16.423 2.146-29.106 16.183-29.106 33.191 0 6.417 1.808 12.41 4.938 17.504-8.902 6.018-14.754 16.206-14.754 27.76 0 6.692 1.966 12.922 5.348 18.151h60.347c.445-14.778.982-26.087 1.623-29.823 2.519-14.695 8.143-20.994 8.143-20.994s-13.957-8.511-11.234-28.55 22.468-24.897 22.468-24.897c-3.745-4.085-7.83-17.702-3.933-27.497-3.31-1.094-6.844-1.696-10.522-1.696z" fill="#5f7080"/></g><g><g><circle cx="253.392" cy="244.489" fill="#e1ac9a" r="27.108"/></g><g><circle cx="35.321" cy="244.489" fill="#d69a8a" r="27.108"/></g></g><g><path d="m143.405 212.469c-33.986 0-64.638-6.608-86.313-17.203-5.229-2.556-11.507-.148-13.692 5.246-5.394 13.315-8.234 27.937-7.905 43.263 1.254 58.378 49.058 105.776 107.444 106.557 60.86.813 110.45-48.277 110.45-108.95 0-14.803-2.952-28.916-8.3-41.783-2.246-5.404-8.583-7.764-13.801-5.113-21.752 11.049-53.069 17.983-87.883 17.983z" fill="#e7beaf"/></g><g><path d="m70.921 234.95c0-11.219 1.13-22.172 3.269-32.76v-.001c-6.189-2.054-11.946-4.37-17.171-6.923-5.229-2.556-11.507-.148-13.692 5.246-5.394 13.315-8.234 27.937-7.905 43.263 1.04 48.406 34.085 89.261 78.63 102.252-26.784-29.279-43.131-68.268-43.131-111.077z" fill="#e1ac9a"/></g><g><g><path d="m89.428 259.589c-4.142 0-7.5-3.358-7.5-7.5v-10.569c0-4.142 3.358-7.5 7.5-7.5s7.5 3.358 7.5 7.5v10.569c0 4.142-3.358 7.5-7.5 7.5z"/></g><g><path d="m199.428 259.589c-4.142 0-7.5-3.358-7.5-7.5v-10.569c0-4.142 3.358-7.5 7.5-7.5s7.5 3.358 7.5 7.5v10.569c0 4.142-3.358 7.5-7.5 7.5z"/></g><g><path d="m144.428 265.88c-7.726 0-15.072-3.345-20.155-9.178-2.721-3.123-2.395-7.861.728-10.582 3.123-2.72 7.86-2.395 10.582.728 2.233 2.563 5.457 4.033 8.845 4.033s6.613-1.47 8.846-4.033c2.721-3.124 7.459-3.448 10.582-.727 3.123 2.722 3.448 7.459.727 10.582-5.083 5.831-12.43 9.177-20.155 9.177z"/></g></g><g><circle cx="91.318" cy="348.706" fill="#ffdecf" r="35"/></g><path d="m474.672 281.073c.903.071 1.81.114 2.72.114 19.083 0 34.608-15.525 34.608-34.607 0-11.513-5.656-21.724-14.33-28.019v-9.407c0-23.736-6.358-46.783-18.44-67.014 4.562-5.953 7.43-12.836 8.208-19.856 1.05-9.467-1.755-18.064-7.898-24.207-7.678-7.678-19.193-9.942-30.469-6.65-3.047-16.778-15.619-29.386-30.62-29.386-11.325 0-21.583 7.211-27.099 18.516-8.09-1.54-16.336-2.318-24.597-2.318-23.465 0-46.487 6.283-66.577 18.17-3.565 2.109-4.745 6.709-2.635 10.274s6.71 4.745 10.274 2.635c17.778-10.52 38.159-16.08 58.938-16.08 9.274 0 18.526 1.107 27.5 3.29 3.908.95 7.869-1.35 8.98-5.214 2.456-8.537 8.571-14.273 15.217-14.273 8.849 0 16.325 10.197 16.325 22.268 0 .918-.046 1.851-.142 2.853-.275 2.875 1.126 5.652 3.601 7.141 2.476 1.488 5.585 1.423 7.996-.168 8.212-5.42 17.548-5.605 22.702-.451 2.856 2.857 4.134 7.1 3.596 11.948-.603 5.434-3.339 10.846-7.741 15.284-.053.05-.113.108-.149.143-2.544 2.513-2.959 6.472-.994 9.459 12.446 18.909 19.025 40.915 19.025 63.638v3.221c-1.721-.265-3.484-.402-5.278-.402-1.961 0-3.923.176-5.847.504-12.673-.943-25.243-3.921-37.376-8.89-28.192-11.545-50.853-32.617-60.616-56.366-1.156-2.813-3.896-4.648-6.937-4.648s-5.78 1.836-6.937 4.648c-9.764 23.749-32.424 44.82-60.616 56.366-3.421 1.401-6.901 2.639-10.405 3.738-.957-9.887-5.461-19.051-12.645-25.834 1.991-4.885 3.025-10.133 3.025-15.466 0-8.579-2.683-16.625-7.29-23.278 4.158-5.935 8.866-11.495 14.058-16.563 2.965-2.893 3.023-7.641.13-10.605-2.894-2.965-7.642-3.023-10.605-.13-5.25 5.123-10.065 10.691-14.386 16.611-3.321-2.248-6.991-4.031-10.928-5.233-1.366-21.374-19.189-38.344-40.902-38.344-2.134 0-4.257.166-6.354.495-7.223-12.543-20.789-20.601-35.555-20.601-8.186 0-16.077 2.422-22.779 6.915-6.702-4.493-14.593-6.915-22.779-6.915-14.766 0-28.332 8.058-35.555 20.601-2.097-.329-4.22-.495-6.354-.495-21.712 0-39.536 16.97-40.901 38.344-16.937 5.169-29.022 20.985-29.022 39.198 0 5.333 1.035 10.581 3.026 15.466-8.136 7.677-12.843 18.411-12.843 29.793 0 6.331 1.474 12.508 4.249 18.123-2.217 4.561-3.464 9.677-3.464 15.081 0 18.662 14.851 33.913 33.355 34.576 5.271 15.376 13.787 29.547 25.189 41.707-6.537 7.476-10.511 17.247-10.511 27.934 0 4.515.714 8.865 2.025 12.951-10.991 16.123-18.614 35.024-22.104 54.901-1.549 8.815.753 17.671 6.316 24.296 4.86 5.788 11.776 9.107 18.976 9.107h105.326c4.142 0 7.5-3.358 7.5-7.5s-3.358-7.5-7.5-7.5h-105.327c-3.773 0-6.311-2.352-7.488-3.753-2.666-3.175-3.798-7.682-3.03-12.056 2.674-15.224 8.042-29.786 15.675-42.676 7.799 9.011 19.306 14.73 32.131 14.73 11.925 0 22.712-4.944 30.438-12.881 6.446 4.878 14.337 7.579 22.6 7.579 19.549 0 35.643-15.038 37.343-34.153 6.395-2.157 12.586-4.873 18.515-8.124 23.229 17.237 39.543 44.53 44.987 75.525.768 4.375-.365 8.881-3.03 12.056-1.177 1.401-3.714 3.753-7.488 3.753h-45.326c-4.142 0-7.5 3.358-7.5 7.5s3.358 7.5 7.5 7.5h266.226c7.205 0 14.126-3.322 18.99-9.115 5.567-6.63 7.872-15.494 6.322-24.317-5.757-32.778-22.453-61.947-46.365-81.55 18.179-13.531 32.29-32.232 40.142-53.907zm4.3-14.967c1.711-7.928 2.62-16.15 2.62-24.583 0-4.759-.293-9.525-.871-14.248 9.229 1.588 16.279 9.628 16.279 19.303 0 10.279-7.954 18.719-18.028 19.528zm-336.006 76.726c-3.216-.043-6.441-.258-9.642-.607-3.13-20.369-20.775-36.018-42.006-36.018-7.329 0-14.231 1.865-20.255 5.145-17.645-18.416-27.595-42.257-28.143-67.738-.299-13.939 2.177-27.494 7.358-40.285.362-.893 1.057-1.271 1.439-1.418.381-.145 1.148-.327 2.009.094 23.702 11.585 55.524 17.965 89.607 17.965 35.002 0 67.419-6.676 91.28-18.797.812-.413 1.537-.293 2.005-.121.389.144 1.097.52 1.474 1.425 5.126 12.336 7.726 25.425 7.726 38.905 0 27.357-10.726 53.007-30.201 72.224-19.473 19.212-45.282 29.589-72.651 29.226zm111.647-63.764c.102-.003.206-.004.308-.008 3.418 10.038 8.141 19.406 13.961 27.924-4.141-.384-8.341-.577-12.584-.577-5.407 0-10.722.328-15.934.944 6.057-8.769 10.839-18.272 14.249-28.283zm4.142-15.717c1.359-7.165 2.062-14.511 2.062-21.97 0-5.198-.345-10.346-1.017-15.429 7.708 2.643 13.272 9.945 13.272 18.537 0 8.977-6.071 16.545-14.317 18.862zm-232.299-73.611c3.326-2.249 4.292-6.719 2.189-10.14-2.504-4.076-3.828-8.771-3.828-13.578 0-13 9.707-24.072 22.579-25.754 4.02-.525 6.895-4.15 6.491-8.184-.087-.869-.131-1.75-.131-2.619 0-14.329 11.657-25.985 25.985-25.985 2.778 0 5.525.443 8.166 1.317 3.833 1.267 7.977-.723 9.384-4.503 3.769-10.12 13.558-16.92 24.358-16.92 6.576 0 12.853 2.467 17.675 6.946 2.878 2.673 7.332 2.673 10.208 0 4.823-4.479 11.1-6.946 17.675-6.946 10.801 0 20.589 6.8 24.358 16.92 1.407 3.781 5.555 5.771 9.384 4.503 2.641-.874 5.388-1.317 8.166-1.317 14.329 0 25.986 11.657 25.986 25.985 0 .864-.044 1.746-.131 2.621-.402 4.033 2.472 7.655 6.491 8.181 12.872 1.683 22.578 12.755 22.578 25.755 0 4.807-1.324 9.502-3.828 13.578-2.102 3.421-1.137 7.891 2.189 10.14 7.173 4.85 11.455 12.904 11.455 21.547 0 1.664-.171 3.309-.481 4.923-4.845-3.421-10.6-5.63-16.828-6.183-1.26-4.508-2.794-8.948-4.605-13.306-1.873-4.506-5.566-8.057-10.133-9.742-4.557-1.681-9.655-1.382-13.991.82-21.48 10.912-52.274 17.171-84.486 17.171-31.383 0-61.643-5.993-83.02-16.441-4.352-2.127-9.439-2.355-13.958-.626-4.521 1.73-8.159 5.3-9.979 9.794-1.641 4.05-3.036 8.168-4.203 12.341-6.175.573-11.881 2.776-16.69 6.172-.31-1.613-.482-3.258-.482-4.922.001-8.644 4.283-16.699 11.457-21.548zm-10.671 54.75c0-8.533 5.488-15.791 13.113-18.479-.777 5.898-1.104 11.88-.974 17.925.141 6.573.833 13.048 2.04 19.38-8.176-2.362-14.179-9.9-14.179-18.826zm75.533 131.716c-15.164 0-27.5-12.336-27.5-27.5s12.336-27.5 27.5-27.5 27.5 12.336 27.5 27.5-12.336 27.5-27.5 27.5zm53.038-5.301c-5.223 0-10.197-1.801-14.173-5.032 1.211-2.732 2.153-5.609 2.768-8.605 3.263.32 6.542.52 9.814.563.537.007 1.07.011 1.605.011 7.185 0 14.268-.654 21.189-1.919-3.1 8.72-11.432 14.982-21.203 14.982zm321.765 48.219c.77 4.382-.365 8.897-3.036 12.077-1.179 1.404-3.722 3.76-7.503 3.76h-198.114c2.714-5.577 3.631-11.999 2.506-18.404-5.754-32.764-22.458-61.931-46.376-81.514 3.826-2.842 7.501-5.935 11.005-9.272 9.939-2.887 20.589-4.365 31.695-4.365 9.479 0 18.685 1.091 27.402 3.218 12.436 12.147 27.505 21.482 44.1 27.14 1.64 19.175 17.76 34.28 37.352 34.28 19.574 0 35.683-15.076 37.348-34.225 6.499-2.207 12.739-4.977 18.669-8.245 23.212 17.263 39.508 44.552 44.952 75.55zm-122.202-63.151c6.92 1.293 14.017 1.99 21.234 1.99 7.245 0 14.336-.671 21.219-1.944-3.089 8.743-11.432 15.026-21.219 15.026-9.804 0-18.159-6.305-21.234-15.072zm21.234-13.01c-43.109 0-81.564-27.575-95.704-67.793 11.056-5.784 18.623-17.362 18.623-30.68 0-5.403-1.247-10.52-3.464-15.081.959-1.941 1.764-3.947 2.402-6.007 5.986-1.586 11.939-3.56 17.74-5.935 26.838-10.991 48.69-29.091 61.868-50.839 13.177 21.748 35.029 39.848 61.868 50.839 12.041 4.931 24.484 8.128 37.071 9.53.689 4.803 1.037 9.669 1.037 14.527-.002 55.933-45.508 101.439-101.441 101.439z"/></g></svg>