<svg width="900" height="900" viewBox="0 0 12 14" fill="none" xmlns="http://www.w3.org/2000/svg">
<path style="fill: #028a7e;" d="M4 11L4.05398 10.5029L3.45625 10.438L3.50141 11.0376L4 11ZM8 11L8.49859 11.0376L8.54375 10.438L7.94602 10.5029L8 11ZM7.93931 11.3706L8.42386 11.494V11.494L7.93931 11.3706ZM7.8845 11.5859L7.39996 11.4626V11.4626L7.8845 11.5859ZM6.47068 12.9464L6.58324 13.4335L6.58324 13.4335L6.47068 12.9464ZM5.52932 12.9464L5.41676 13.4335H5.41676L5.52932 12.9464ZM4.1155 11.5859L4.60004 11.4626V11.4626L4.1155 11.5859ZM4.06069 11.3706L3.57614 11.494V11.494L4.06069 11.3706ZM3.94602 11.4971C5.31107 11.6453 6.68893 11.6453 8.05398 11.4971L7.94602 10.5029C6.65273 10.6434 5.34727 10.6434 4.05398 10.5029L3.94602 11.4971ZM8.42386 11.494C8.46201 11.3441 8.487 11.1914 8.49859 11.0376L7.50141 10.9624C7.49419 11.0583 7.47861 11.1536 7.45477 11.2473L8.42386 11.494ZM8.36905 11.7093L8.42386 11.494L7.45477 11.2473L7.39996 11.4626L8.36905 11.7093ZM6.58324 13.4335C7.45584 13.2319 8.14961 12.5712 8.36905 11.7093L7.39996 11.4626C7.27594 11.9497 6.87857 12.339 6.35812 12.4592L6.58324 13.4335ZM5.41676 13.4335C5.80029 13.5222 6.19972 13.5222 6.58324 13.4335L6.35812 12.4592C6.12272 12.5136 5.87728 12.5136 5.64188 12.4592L5.41676 13.4335ZM3.63095 11.7093C3.85039 12.5712 4.54416 13.2319 5.41676 13.4335L5.64188 12.4592C5.12143 12.339 4.72406 11.9497 4.60004 11.4626L3.63095 11.7093ZM3.57614 11.494L3.63095 11.7093L4.60004 11.4626L4.54523 11.2473L3.57614 11.494ZM3.50141 11.0376C3.513 11.1914 3.53799 11.3441 3.57614 11.494L4.54523 11.2473C4.52139 11.1536 4.50581 11.0583 4.49859 10.9624L3.50141 11.0376Z" class="icon_main_fill"></path>
<path style="fill: #028a7e;" d="M6.75 1C6.75 0.585786 6.41421 0.25 6 0.25C5.58579 0.25 5.25 0.585786 5.25 1H6.75ZM5.25 2C5.25 2.41421 5.58579 2.75 6 2.75C6.41421 2.75 6.75 2.41421 6.75 2H5.25ZM5.25 1V2H6.75V1H5.25Z" class="icon_main_fill"></path>
<path d="M2.01853 4.96193L2.74031 5.16573L2.74031 5.16573L2.01853 4.96193ZM4.77225 2.19164L4.54949 1.47549L4.77225 2.19164ZM1.98865 5.06777L1.26687 4.86397L1.26687 4.86397L1.98865 5.06777ZM1.85971 7.67111L2.59805 7.53937L2.59805 7.53937L1.85971 7.67111ZM1.87471 7.7552L1.13637 7.88693L1.13637 7.88694L1.87471 7.7552ZM2.19173 10.6073L2.33562 9.87124H2.33562L2.19173 10.6073ZM2.43679 10.6552L2.29289 11.3913H2.2929L2.43679 10.6552ZM9.56321 10.6552L9.7071 11.3913H9.70711L9.56321 10.6552ZM9.80827 10.6073L9.66438 9.87124H9.66438L9.80827 10.6073ZM10.1282 7.73908L10.8665 7.87081V7.87081L10.1282 7.73908ZM10.1441 7.64988L9.40574 7.51814V7.51815L10.1441 7.64988ZM10.0278 5.08581L9.30436 5.28361V5.28361L10.0278 5.08581ZM9.9862 4.93362L10.7096 4.73583V4.73583L9.9862 4.93362ZM7.31138 2.19558L7.53796 1.48062L7.31138 2.19558ZM10.2353 7.94832L9.88052 8.60909L10.2353 7.94832ZM1.77865 7.94091L2.12648 8.60538L1.77865 7.94091ZM2.74031 5.16573C3.03753 4.1131 3.88629 3.25268 4.99502 2.9078L4.54949 1.47549C2.9804 1.96357 1.73864 3.19315 1.29675 4.75813L2.74031 5.16573ZM2.71042 5.27157L2.74031 5.16573L1.29675 4.75813L1.26687 4.86397L2.71042 5.27157ZM2.59805 7.53937C2.4634 6.78475 2.50167 6.01089 2.71043 5.27157L1.26687 4.86397C0.996569 5.82126 0.946817 6.82456 1.12137 7.80284L2.59805 7.53937ZM2.61305 7.62346L2.59805 7.53937L1.12137 7.80284L1.13637 7.88693L2.61305 7.62346ZM1.75 9.20195C1.75 8.95735 1.89082 8.72874 2.12648 8.60538L1.43082 7.27645C0.738905 7.63864 0.25 8.35738 0.25 9.20195H1.75ZM2.33562 9.87124C1.97579 9.8009 1.75 9.50677 1.75 9.20195H0.25C0.25 10.2614 1.02094 11.1426 2.04783 11.3434L2.33562 9.87124ZM2.58069 9.91915L2.33562 9.87124L2.04783 11.3434L2.29289 11.3913L2.58069 9.91915ZM9.41931 9.91915C7.1628 10.3603 4.8372 10.3603 2.58069 9.91915L2.2929 11.3913C4.73947 11.8696 7.26053 11.8696 9.7071 11.3913L9.41931 9.91915ZM9.66438 9.87124L9.41931 9.91915L9.70711 11.3913L9.95217 11.3434L9.66438 9.87124ZM10.25 9.20195C10.25 9.50677 10.0242 9.8009 9.66438 9.87124L9.95217 11.3434C10.9791 11.1426 11.75 10.2614 11.75 9.20195H10.25ZM9.88052 8.60909C10.112 8.73341 10.25 8.95974 10.25 9.20195H11.75C11.75 8.36597 11.2709 7.65309 10.5901 7.28756L9.88052 8.60909ZM9.40574 7.51815L9.38983 7.60734L10.8665 7.87081L10.8824 7.78162L9.40574 7.51815ZM9.30436 5.28361C9.50383 6.01318 9.53833 6.77504 9.40574 7.51814L10.8824 7.78162C11.0542 6.81902 11.0094 5.83204 10.7513 4.88802L9.30436 5.28361ZM9.26275 5.13142L9.30436 5.28361L10.7513 4.88802L10.7096 4.73583L9.26275 5.13142ZM7.0848 2.91053C8.16642 3.25332 8.97948 4.09536 9.26275 5.13142L10.7096 4.73583C10.2872 3.19055 9.08667 1.97144 7.53796 1.48062L7.0848 2.91053ZM4.99502 2.9078C5.67318 2.69685 6.41116 2.69704 7.0848 2.91053L7.53796 1.48062C6.56876 1.17347 5.51711 1.1745 4.54949 1.47549L4.99502 2.9078ZM10.5901 7.28756C10.7675 7.3828 10.9144 7.60213 10.8665 7.87081L9.38983 7.60734C9.31189 8.04414 9.54858 8.43084 9.88052 8.60909L10.5901 7.28756ZM1.13637 7.88694C1.08665 7.60829 1.23944 7.37662 1.43082 7.27645L2.12648 8.60538C2.45643 8.43265 2.6895 8.05194 2.61305 7.62346L1.13637 7.88694Z" fill="currentColor"></path></svg>