<svg width="900" height="900" viewBox="0 0 20 21" fill="none" xmlns="http://www.w3.org/2000/svg">
<path style="fill: #028a7e;" d="M16.969 18.5307C17.2619 18.8236 17.7368 18.8236 18.0297 18.5307C18.3226 18.2378 18.3226 17.7629 18.0297 17.47L16.969 18.5307ZM13.915 15.4766L16.969 18.5307L18.0297 17.47L14.9756 14.416L13.915 15.4766Z" stroke-width="2"></path>
<path d="M2.76311 7.43667C3.24887 5.36581 4.86581 3.74886 6.93667 3.26311C8.43222 2.9123 9.98866 2.9123 11.4842 3.26311C13.5551 3.74886 15.172 5.36581 15.6578 7.43667C16.0086 8.93222 16.0086 10.4887 15.6578 11.9842C15.172 14.0551 13.5551 15.672 11.4842 16.1578C9.98866 16.5086 8.43222 16.5086 6.93667 16.1578C4.86581 15.672 3.24887 14.0551 2.76311 11.9842C2.4123 10.4887 2.4123 8.93222 2.76311 7.43667Z"  style="stroke: #028a7e;" stroke-width="2" stroke-linecap="round"></path>
<path d="M2.76311 7.43667C2.4123 8.93222 2.4123 10.4887 2.76311 11.9842C3.24887 14.0551 4.86581 15.672 6.93667 16.1578C8.43222 16.5086 9.98866 16.5086 11.4842 16.1578C13.5551 15.672 15.172 14.0551 15.6578 11.9842C16.0086 10.4887 16.0086 8.93222 15.6578 7.43667C15.172 5.36581 13.5551 3.74886 11.4842 3.26311C9.98866 2.9123 8.43222 2.9123 6.93667 3.26311" stroke="currentColor" stroke-width="2" stroke-linecap="round"></path></svg>