<svg width="2590" height="1388" viewBox="0 0 2590 1388" fill="none" xmlns="http://www.w3.org/2000/svg">
<path opacity="0.3" d="M1294.54 1387.42C2009.49 1387.42 2589.08 1341.96 2589.08 1285.87C2589.08 1229.79 2009.49 1184.33 1294.54 1184.33C579.585 1184.33 0 1229.79 0 1285.87C0 1341.96 579.585 1387.42 1294.54 1387.42Z" fill="#E6E6E6"/>
<path d="M273.039 677.707C273.039 677.707 140.36 741.725 123.075 888.245C105.79 1034.77 56.7353 1318.28 417.321 1301.88C777.907 1285.47 947.957 1265.63 862.892 989.793C777.827 713.957 273.039 677.707 273.039 677.707Z" fill="#F5802F"/>
<path opacity="0.09" d="M259.672 754.128C255.963 774.837 258.557 796.182 267.118 815.4C275.678 834.618 289.811 850.823 307.686 861.918C356.58 893.927 431.882 1008.68 490.299 1066.69C499.468 1075.7 506.718 1086.47 511.614 1098.35C516.51 1110.23 518.95 1122.98 518.788 1135.83C518.957 1142.41 520.675 1148.85 523.804 1154.63C526.933 1160.42 531.383 1165.38 536.793 1169.12C577.365 1202.25 747.575 1218.9 842.803 1116.87C938.031 1014.84 812.474 964.346 812.474 964.346L394.111 737.884L259.672 754.128Z" fill="black"/>
<path d="M1184.51 1253.87C1187.34 1260.46 1191.61 1266.34 1196.99 1271.09C1202.37 1275.83 1208.74 1279.33 1215.64 1281.31C1237.88 1286.35 1249.97 1313.72 1201.31 1309.24C1152.66 1304.76 1126.01 1312.44 1132.97 1285.71C1139.94 1258.99 1136.82 1254.99 1136.82 1254.99L1184.51 1253.87Z" fill="#F4A28C"/>
<path d="M857.851 1234.74C856.946 1241.86 857.632 1249.09 859.86 1255.91C862.088 1262.74 865.802 1268.98 870.735 1274.19C887.299 1290.2 883.778 1319.64 844.168 1291C804.557 1262.35 777.669 1255.39 797.275 1236.02C816.88 1216.66 816.24 1211.45 816.24 1211.45L857.851 1234.74Z" fill="#F4A28C"/>
<path d="M900.108 896.887C900.108 896.887 1197.55 899.928 1194.67 1254.67L1124.49 1266.51C1124.49 1266.51 1111.05 892.006 724.376 1070.38L744.542 922.815L900.108 896.887Z" fill="#24285B"/>
<path opacity="0.09" d="M900.108 896.887C900.108 896.887 1197.55 899.928 1194.67 1254.67L1124.49 1266.51C1124.49 1266.51 1111.05 892.006 724.376 1070.38L744.542 922.815L900.108 896.887Z" fill="black"/>
<path d="M923.712 570.157L949.48 577.039L931.154 557.274L923.712 570.157Z" fill="#FFD200"/>
<path d="M518.315 745.726C518.315 745.726 569.689 875.522 695.164 852.795C820.638 830.069 868.252 566.716 868.252 566.716C868.252 566.716 917.945 534.708 893.859 498.458C869.772 462.208 830.801 540.309 830.801 540.309C830.801 540.309 776.786 762.05 659.794 690.19L518.315 745.726Z" fill="#F4A28C"/>
<path opacity="0.09" d="M518.315 745.726C518.315 745.726 569.689 875.522 695.164 852.795C820.638 830.069 868.252 566.716 868.252 566.716C868.252 566.716 917.945 534.708 893.859 498.458C869.772 462.208 830.801 540.309 830.801 540.309C830.801 540.309 776.786 762.05 659.794 690.19L518.315 745.726Z" fill="black"/>
<path d="M519.504 481.813L546.712 487.494C546.712 487.494 756.209 601.206 717.239 715.157C678.268 829.109 763.411 937.299 763.411 937.299L581.201 1065.33C581.201 1065.33 343.135 947.061 378.745 621.852C378.745 622.172 395.31 470.53 519.504 481.813Z" fill="#2673D1"/>
<path d="M1001.14 546.081L966.808 529.575L825.739 822.95L860.067 839.457L1001.14 546.081Z" fill="#E6E6E6"/>
<path d="M509.59 338.894L471.899 471.89L546.72 487.415L544.079 384.426L509.59 338.894Z" fill="#F4A28C"/>
<path opacity="0.31" d="M545.6 406.992C536.474 403.458 528.577 397.34 522.874 389.387C522.874 389.387 520.953 414.674 545.6 442.762V406.992Z" fill="#CE8172"/>
<path d="M587.051 342.815C584.799 366.182 579.416 389.14 571.047 411.073C569.906 413.619 568.272 415.914 566.24 417.825C564.207 419.737 561.816 421.226 559.204 422.208C556.593 423.19 553.813 423.646 551.025 423.547C548.236 423.449 545.495 422.8 542.959 421.636C534.537 418.395 527.231 412.788 521.921 405.49C516.611 398.193 513.524 389.516 513.031 380.505L507.109 342.014C506.699 334.191 508.737 326.435 512.939 319.823C517.141 313.212 523.299 308.074 530.556 305.124C557.363 292.401 590.332 317.608 587.051 342.815Z" fill="#F4A28C"/>
<path d="M536.638 370.503C536.638 370.503 539.119 354.498 526.875 353.538C514.632 352.578 510.871 375.784 526.875 380.905L536.638 370.503Z" fill="#F4A28C"/>
<path d="M583.37 369.142L592.093 387.227C592.594 388.249 592.828 389.382 592.772 390.519C592.716 391.657 592.371 392.761 591.771 393.729C591.171 394.697 590.335 395.496 589.342 396.053C588.348 396.609 587.23 396.904 586.091 396.909H569.606L583.37 369.142Z" fill="#F4A28C"/>
<path d="M936.085 561.377L806.454 486.878L799.011 499.827L928.643 574.327L936.085 561.377Z" fill="#24285B"/>
<path opacity="0.18" d="M622.972 994.915L581.201 1065.65C581.201 1065.65 429.639 992.354 386.187 793.579C342.735 594.804 486.295 672.186 486.295 672.186L622.972 994.915Z" fill="black"/>
<path d="M581.21 1065.65C581.21 1065.65 721.649 779.335 929.306 780.456C1136.96 781.576 867.209 1242.34 867.209 1242.34L798.39 1214.5C798.39 1214.5 900.338 1016.76 874.251 953.143C848.164 889.526 809.033 1328.61 581.21 1065.65Z" fill="#24285B"/>
<path d="M461.007 497.898C461.007 497.898 523.506 465.889 555.275 530.547C587.044 595.204 561.997 871.921 690.835 886.325C819.673 900.729 885.052 766.292 885.052 766.292C885.052 766.292 895.695 709.636 913.46 700.433C931.225 691.231 946.67 750.447 913.46 785.017C913.46 785.017 856.643 998.516 676.431 1003.32C496.218 1008.12 283.195 644.018 461.007 497.898Z" fill="#F4A28C"/>
<path d="M587.361 288.239C587.361 288.239 628.413 336.253 575.198 346.656C521.983 357.058 511.18 366.341 516.222 420.196C521.263 474.051 542.309 523.584 471.889 557.674C401.47 591.763 462.287 647.379 449.003 713.717C435.719 780.055 374.022 825.748 294.721 780.455C215.419 735.163 166.685 620.011 251.429 550.792C336.172 481.573 443.482 464.928 443.482 353.537C443.482 242.147 532.386 236.385 587.361 288.239Z" fill="#24285B"/>
<path d="M927.025 781.869L874.385 761.8L863.067 791.484L915.707 811.554L927.025 781.869Z" fill="#2673D1"/>
<path opacity="0.44" d="M927.025 781.869L874.385 761.8L863.067 791.484L915.707 811.554L927.025 781.869Z" fill="white"/>
<path d="M2262.34 658.021C2262.34 658.021 2528.02 702.914 2515.7 888.245C2505.94 1035.65 2582.04 1318.28 2221.53 1302.12C1861.03 1285.95 1690.9 1265.87 1775.88 990.033C1860.87 714.197 2262.34 658.021 2262.34 658.021Z" fill="#F5802F"/>
<path opacity="0.09" d="M2379.1 754.128C2382.81 774.837 2380.21 796.182 2371.65 815.4C2363.09 834.618 2348.96 850.823 2331.09 861.918C2282.19 893.927 2206.97 1008.68 2148.47 1066.69C2139.32 1075.71 2132.08 1086.48 2127.18 1098.36C2122.29 1110.24 2119.84 1122.99 2119.98 1135.83C2119.81 1142.41 2118.1 1148.85 2114.97 1154.63C2111.84 1160.42 2107.39 1165.38 2101.98 1169.12C2061.41 1202.25 1891.2 1218.9 1796.05 1116.87C1700.9 1014.84 1826.3 964.346 1826.3 964.346L2238.82 678.748C2224.57 671.225 2362.21 698.433 2379.1 754.128Z" fill="black"/>
<path d="M1454.59 1253.87C1451.74 1260.47 1447.47 1266.36 1442.07 1271.1C1436.67 1275.85 1430.29 1279.34 1423.38 1281.31C1401.13 1286.35 1389.05 1313.72 1437.7 1309.24C1486.36 1304.76 1513.08 1312.44 1506.04 1285.71C1499 1258.99 1502.28 1254.99 1502.28 1254.99L1454.59 1253.87Z" fill="#F4A28C"/>
<path d="M1687.21 1266.51C1685.62 1273.53 1682.49 1280.1 1678.05 1285.76C1673.61 1291.42 1667.96 1296.03 1661.53 1299.24C1640.64 1308.28 1633.68 1337.33 1680.73 1324.13C1727.78 1310.92 1755.39 1313.48 1743.63 1288.52C1731.86 1263.55 1734.27 1258.99 1734.27 1258.99L1687.21 1266.51Z" fill="#F4A28C"/>
<path d="M1738.67 896.887C1738.67 896.887 1441.22 899.928 1444.1 1254.67L1514.36 1266.51C1514.36 1266.51 1527.81 892.006 1914.48 1070.38L1894.31 922.815L1738.67 896.887Z" fill="#24285B"/>
<path opacity="0.09" d="M1738.67 896.887C1738.67 896.887 1441.22 899.928 1444.1 1254.67L1514.36 1266.51C1514.36 1266.51 1527.81 892.006 1914.48 1070.38L1894.31 922.815L1738.67 896.887Z" fill="black"/>
<path d="M1749.39 572.878C1749.39 572.878 1643.36 627.293 1607.03 602.407C1570.7 577.52 1560.38 439.001 1560.38 439.001L1510.61 450.045C1510.61 450.045 1491.48 723.72 1575.74 752.128C1660.01 780.536 1806.69 707.876 1806.69 707.876L1749.39 572.878Z" fill="#F4A28C"/>
<path d="M2039.15 572.718C2004.18 642.177 1927.6 735.243 1765.16 752.448L1730.35 577.919C1730.35 577.919 1853.9 499.818 1984.74 489.895C1994.79 489.241 2004.83 491.263 2013.85 495.755C2022.86 500.246 2030.53 507.048 2036.06 515.465C2041.59 523.883 2044.79 533.617 2045.33 543.674C2045.88 553.731 2043.74 563.753 2039.15 572.718Z" fill="#2673D1"/>
<path opacity="0.46" d="M2039.15 572.718C2004.18 642.177 1927.6 735.243 1765.16 752.448L1730.35 577.919C1730.35 577.919 1853.9 499.818 1984.74 489.895C1994.79 489.241 2004.83 491.263 2013.85 495.755C2022.86 500.246 2030.53 507.048 2036.06 515.465C2041.59 523.883 2044.79 533.617 2045.33 543.674C2045.88 553.731 2043.74 563.753 2039.15 572.718Z" fill="white"/>
<path d="M1557.9 439.562C1560.38 439.002 1562.86 386.107 1556.46 390.988C1552.13 394.94 1549.1 400.097 1547.73 405.792C1547.73 405.792 1547.73 368.342 1528.45 372.503C1509.16 376.664 1502.6 419.796 1510.2 450.045L1557.58 441.322" fill="#F4A28C"/>
<path d="M2010.59 331.051C2007.94 350.594 2007.94 370.405 2010.59 389.948C2011.04 392.246 2011.94 394.431 2013.24 396.379C2014.54 398.326 2016.21 399.995 2018.16 401.291C2020.11 402.586 2022.3 403.481 2024.6 403.924C2026.9 404.367 2029.26 404.349 2031.56 403.871C2039 402.789 2045.98 399.588 2051.65 394.651C2057.33 389.713 2061.46 383.247 2063.56 376.024L2075.73 345.695C2077.52 339.358 2077.31 332.623 2075.14 326.408C2072.96 320.193 2068.92 314.8 2063.56 310.966C2044.44 295.602 2012.51 309.605 2010.59 331.051Z" fill="#F4A28C"/>
<path d="M2073.65 351.137L2085.73 466.609L2021.63 468.769L2038.6 383.866L2073.65 351.137Z" fill="#F4A28C"/>
<path d="M2019.31 333.052C2030.22 334.05 2041.2 333.782 2052.04 332.252C2048.72 336.859 2046.78 342.324 2046.47 347.998C2046.16 353.672 2047.48 359.316 2050.28 364.261C2053 369.155 2057.34 372.945 2062.56 374.976C2067.78 377.007 2073.54 377.152 2078.85 375.384L2080.69 329.851C2081.17 323.36 2079.89 316.858 2076.97 311.039C2074.06 305.219 2069.62 300.299 2064.13 296.802C2059.38 293.807 2054.43 291.134 2049.32 288.8C2036.52 282.878 2016.91 290.56 2005.63 280.798C2004.49 279.856 2003.13 279.225 2001.67 278.967C2000.22 278.708 1998.72 278.831 1997.33 279.322C1995.93 279.813 1994.69 280.657 1993.72 281.771C1992.75 282.885 1992.08 284.231 1991.79 285.679C1989.07 299.363 1990.35 321.209 2008.67 329.771C2012 331.465 2015.6 332.575 2019.31 333.052Z" fill="#DD6034"/>
<path d="M2046.76 363.381C2046.76 363.381 2047.72 349.777 2057.88 351.377C2068.05 352.978 2066.77 372.663 2052.76 373.704L2046.76 363.381Z" fill="#F4A28C"/>
<path d="M2008.67 353.378L1998.03 366.421C1997.44 367.176 1997.05 368.066 1996.89 369.009C1996.73 369.953 1996.81 370.921 1997.12 371.826C1997.43 372.731 1997.96 373.545 1998.66 374.194C1999.37 374.843 2000.22 375.307 2001.15 375.544L2014.51 378.825L2008.67 353.378Z" fill="#F4A28C"/>
<path opacity="0.31" d="M2034.04 402.271C2042.1 400.701 2049.53 396.807 2055.4 391.068C2052.1 407.529 2042.66 422.118 2029 431.879L2034.04 402.271Z" fill="#CE8172"/>
<path d="M2224.49 580.481C2211.41 545.657 2187.68 515.849 2156.67 495.302C2125.66 474.755 2088.96 464.518 2051.8 466.049L2023.39 467.009C2023.39 467.009 1823.74 466.129 1808.61 647.939C1793.49 829.749 1875.67 973.789 1875.67 973.789L2143.98 983.552C2143.98 983.552 2282.42 740.845 2224.49 580.481Z" fill="#2673D1"/>
<path opacity="0.08" d="M2089.33 560.475C2089.33 560.475 2051.08 695.392 2065.33 826.148C2079.57 956.904 2042.12 979.871 2042.12 979.871L2144.23 983.552C2144.23 983.552 2174.56 931.057 2182.8 903.53C2191.04 876.002 2235.13 565.676 2089.33 560.475Z" fill="black"/>
<path d="M2181.52 511.661C2243.3 558.874 2320.6 651.38 2307.32 814.225L2129.35 816.065C2129.35 816.065 2075.57 680.028 2090.38 549.832C2091.62 539.886 2095.47 530.446 2101.53 522.463C2107.6 514.48 2115.66 508.238 2124.9 504.366C2134.15 500.494 2144.25 499.129 2154.19 500.41C2164.13 501.691 2173.56 505.572 2181.52 511.661V511.661Z" fill="#2673D1"/>
<path opacity="0.46" d="M2181.52 511.661C2243.3 558.874 2320.6 651.38 2307.32 814.225L2129.35 816.065C2129.35 816.065 2075.57 680.028 2090.38 549.832C2091.62 539.886 2095.47 530.446 2101.53 522.463C2107.6 514.48 2115.66 508.238 2124.9 504.366C2134.15 500.494 2144.25 499.129 2154.19 500.41C2164.13 501.691 2173.56 505.572 2181.52 511.661V511.661Z" fill="white"/>
<path d="M2290.51 814.385C2290.51 814.385 2295.07 1055.33 2225.61 1193.93L2187.68 1188.25C2187.68 1188.25 2219.05 957.624 2156.31 815.825L2290.51 814.385Z" fill="#F4A28C"/>
<path d="M2225.61 1193.93C2225.61 1193.93 2209.21 1273.15 2166.71 1244.26C2124.22 1215.38 2187.68 1188.25 2187.68 1188.25L2225.61 1193.93Z" fill="#F4A28C"/>
<path d="M2141.19 990.353C2141.19 990.353 1917.12 779.335 1709.54 780.455C1501.96 781.576 1661.53 1295.4 1661.53 1295.4L1730.11 1267.55C1730.11 1267.55 1738.11 1016.76 1764.04 953.143C1789.96 889.525 1893.35 1309.4 2141.19 990.353Z" fill="#24285B"/>
<path d="M1813.25 144.28H1491.88V203.816H1408.25V0H897.062V308.405H1408.25V218.94H1491.88V338.093H1741.55L1789.56 411.474V338.093H1813.25V144.28Z" fill="#CEE0F6"/>
<path opacity="0.09" d="M1588.47 264.393C1599.25 264.393 1607.99 255.651 1607.99 244.868C1607.99 234.084 1599.25 225.342 1588.47 225.342C1577.68 225.342 1568.94 234.084 1568.94 244.868C1568.94 255.651 1577.68 264.393 1588.47 264.393Z" fill="black"/>
<path opacity="0.09" d="M1652.56 264.393C1663.35 264.393 1672.09 255.651 1672.09 244.868C1672.09 234.084 1663.35 225.342 1652.56 225.342C1641.78 225.342 1633.04 234.084 1633.04 244.868C1633.04 255.651 1641.78 264.393 1652.56 264.393Z" fill="black"/>
<path opacity="0.09" d="M1716.66 264.393C1727.45 264.393 1736.19 255.651 1736.19 244.868C1736.19 234.084 1727.45 225.342 1716.66 225.342C1705.88 225.342 1697.14 234.084 1697.14 244.868C1697.14 255.651 1705.88 264.393 1716.66 264.393Z" fill="black"/>
<path opacity="0.09" d="M1055.99 166.446C1070.31 166.446 1081.92 154.838 1081.92 140.519C1081.92 126.2 1070.31 114.592 1055.99 114.592C1041.67 114.592 1030.06 126.2 1030.06 140.519C1030.06 154.838 1041.67 166.446 1055.99 166.446Z" fill="black"/>
<path opacity="0.09" d="M1140.98 166.446C1155.3 166.446 1166.9 154.838 1166.9 140.519C1166.9 126.2 1155.3 114.592 1140.98 114.592C1126.66 114.592 1115.05 126.2 1115.05 140.519C1115.05 154.838 1126.66 166.446 1140.98 166.446Z" fill="black"/>
<path opacity="0.09" d="M1225.96 166.446C1240.28 166.446 1251.89 154.838 1251.89 140.519C1251.89 126.2 1240.28 114.592 1225.96 114.592C1211.64 114.592 1200.03 126.2 1200.03 140.519C1200.03 154.838 1211.64 166.446 1225.96 166.446Z" fill="black"/>
</svg>
