<svg width="3792" height="1225" viewBox="0 0 3792 1225" fill="none" xmlns="http://www.w3.org/2000/svg">
<path opacity="0.18" d="M1183.56 591.79C1183.55 695.921 1156.08 798.209 1103.91 888.327C1051.74 978.446 976.714 1053.2 886.412 1105.06C796.109 1156.91 693.725 1184.02 589.595 1183.65C485.465 1183.29 383.275 1155.45 293.34 1102.97L317.502 1124.86L27.0878 1224.53L125.151 955.729C67.1913 881.418 27.8174 794.339 10.3059 701.739C-7.2055 609.138 -2.34799 513.695 24.4742 423.351C51.2965 333.007 99.3077 250.375 164.512 182.333C229.717 114.29 310.23 62.8042 399.35 32.1598C488.47 1.5153 583.62 -7.40144 676.882 6.15152C770.144 19.7045 858.82 55.3352 935.531 110.079C1012.24 164.822 1074.77 237.095 1117.91 320.882C1161.05 404.67 1183.56 497.549 1183.56 591.79V591.79Z" fill="#2673D1"/>
<path d="M491.166 791.126C491.166 791.126 328.451 794.429 245.772 930.245C245.772 930.245 202.639 1123.26 208.019 1164.41L314.671 1116.08C317.88 1124.86 474.555 1186.78 611.126 1180.64C863.032 1169.41 977.141 1041.81 977.141 1041.81C977.141 1041.81 950.431 860.685 801.118 819.535C651.805 778.384 491.166 791.126 491.166 791.126Z" fill="#2673D1"/>
<path d="M490.034 783.009C490.034 783.009 454.829 788.389 455.962 813.872C457.094 839.355 461.342 916.088 500.888 897.684C540.434 879.279 573.94 823.593 573.94 823.593L490.034 783.009Z" fill="white"/>
<path d="M672.855 783.009C672.855 783.009 708.059 788.389 707.021 813.872C705.983 839.355 701.547 916.088 662.095 897.684C622.643 879.279 589.043 823.593 589.043 823.593L672.855 783.009Z" fill="white"/>
<path d="M356.954 415.672C356.954 415.672 316.936 668.9 417.547 701.274C428.521 707.797 440.715 712.001 453.378 713.624C466.04 715.248 478.901 714.256 491.165 710.712V790.748C491.165 790.748 592.815 867.575 676.155 785.368V579.332C676.155 579.332 666.717 453.331 641.517 466.733C635.759 469.942 584.887 464.657 576.582 372.351C576.582 372.351 459.736 320.441 405.655 356.117C351.574 391.794 356.954 415.672 356.954 415.672Z" fill="#F7AF87"/>
<path d="M332.319 407.178C338.436 418.286 346.728 428.048 356.701 435.881C366.674 443.713 378.123 449.455 390.365 452.765C402.703 455.707 415.656 454.671 427.37 449.806C439.084 444.94 448.959 436.495 455.583 425.677C465.69 439.866 480.662 449.842 497.649 453.706C514.636 457.569 532.45 455.051 547.7 446.63C561.102 465.507 586.68 470.698 609.615 469.282C639.018 467.959 667.017 456.332 688.707 436.437C699.249 426.361 707.297 413.966 712.212 400.237C717.127 386.507 718.774 371.821 717.022 357.344C712.02 323.461 686.442 296.184 659.071 275.704C615.804 242.733 564.519 221.913 510.513 215.393C461.718 209.919 383.758 215.393 346.382 252.202C309.007 289.011 305.609 362.252 332.319 407.178Z" fill="#DD6034"/>
<path d="M491.166 711.467C491.166 711.467 552.797 695.234 575.543 667.108C575.543 667.108 544.114 790.466 491.166 791.504V711.467Z" fill="url(#paint0_linear_9_57)"/>
<path d="M616.221 433.794L620.657 521.098L638.213 497.124C640.855 493.444 644.442 489.48 648.878 490.235C653.314 490.99 654.352 494.104 655.862 497.124C662.706 511.193 665.143 527.001 662.853 542.478C660.562 557.954 653.652 572.379 643.026 583.862C639.285 587.087 636.235 591.036 634.06 595.471C633.005 599.311 632.748 603.326 633.305 607.269C635.098 632.752 672.662 662.671 679.08 644.172C685.498 625.673 686.725 605.57 692.766 586.882C702.323 562.842 715.745 540.526 732.501 520.815C749.42 501.035 762.251 478.099 770.254 453.331C776.483 428.225 771.575 398.684 751.377 382.167C747.584 379.742 744.364 376.522 741.939 372.729C740.787 369.713 740.18 366.518 740.146 363.29C737.907 331.935 724.942 302.306 703.431 279.384C692.609 268.063 679.511 259.165 664.999 253.275C650.488 247.386 634.892 244.64 619.242 245.218C613.94 245.25 608.714 246.476 603.952 248.804C599.614 251.806 595.954 255.683 593.206 260.186C590.459 264.689 588.686 269.718 588.001 274.948C577.902 322.14 599.799 369.331 608.01 417.277" fill="#DD6034"/>
<path opacity="0.18" d="M2492.64 591.79C2492.62 695.924 2465.13 798.209 2412.95 888.324C2360.76 978.439 2285.73 1053.19 2195.43 1105.04C2105.12 1156.89 2002.73 1184 1898.6 1183.64C1794.47 1183.27 1692.27 1155.45 1602.33 1102.97L1626.49 1124.86L1335.8 1224.53L1433.76 955.729C1375.83 881.412 1336.48 794.335 1318.99 701.742C1301.5 609.15 1306.37 513.719 1333.21 423.39C1360.04 333.062 1408.05 250.446 1473.26 182.417C1538.46 114.388 1618.96 62.9137 1708.07 32.2754C1797.18 1.63722 1892.32 -7.27855 1985.57 6.26989C2078.82 19.8183 2167.49 55.4392 2244.2 110.169C2320.9 164.899 2383.43 237.155 2426.58 320.926C2469.73 404.697 2492.25 497.56 2492.26 591.79H2492.64Z" fill="#2673D1"/>
<path d="M1797.52 791.126C1797.52 791.126 1634.8 794.43 1552.12 930.246C1552.12 930.246 1495.49 1124.86 1501.15 1166.2L1626.87 1125.05C1689.54 1160.07 1783.64 1186.87 1917.48 1180.83C2169.85 1169.6 2283.49 1041.71 2283.49 1041.71C2283.49 1041.71 2256.78 860.592 2107.47 819.441C1958.15 778.29 1797.52 791.126 1797.52 791.126Z" fill="#2673D1"/>
<path d="M2151.26 574.612C2171.74 470.037 2190.14 308.643 2118.13 275.609L2070.94 273.438C2070.94 273.438 2036.3 193.213 1897.56 206.238C1758.82 219.263 1618.94 336.203 1682.18 526.194C1715.02 624.729 1656.69 768.096 1656.69 768.096L1860.75 767.341L2175.8 757.337C2147.6 700.829 2138.97 636.557 2151.26 574.612V574.612Z" fill="#404040"/>
<path d="M2120.3 413.691C2120.3 413.691 2160.32 666.919 2059.71 699.386C2048.74 705.921 2036.54 710.13 2023.88 711.754C2011.21 713.377 1998.35 712.38 1986.09 708.825V788.955C1986.09 788.955 1884.44 865.782 1801.1 783.481V576.783C1801.1 576.783 1810.54 450.877 1835.74 464.28C1841.5 467.394 1892.37 462.109 1900.67 369.897C1900.67 369.897 2017.52 317.893 2071.6 353.664C2125.68 389.434 2120.3 413.691 2120.3 413.691Z" fill="#F7AF87"/>
<path d="M1986.09 709.107C1986.09 709.107 1924.46 692.874 1901.71 664.748C1901.71 664.748 1933.05 788.106 1986.09 789.238V709.107Z" fill="url(#paint1_linear_9_57)"/>
<path d="M2036.58 340.261C2005.34 340.261 1971.36 344.697 1949.37 366.782C1922.19 394.059 1922.85 437.475 1910.96 474.095C1902.18 501.996 1884.6 526.302 1860.84 543.372C1848.95 551.757 1835.5 557.686 1821.29 560.814C1807.08 563.942 1792.38 564.205 1778.07 561.588C1775.13 561.278 1772.28 560.374 1769.7 558.93C1767.12 557.486 1764.86 555.532 1763.06 553.188C1761.07 548.952 1760.38 544.223 1761.08 539.596C1763.82 487.686 1769.95 433.983 1796.76 389.528C1811.71 364.947 1832.37 344.326 1856.97 329.407C1871.27 320.281 1887.36 314.356 1904.16 312.04C1937.2 308.265 1969.29 322.989 1999.21 337.429" fill="#404040"/>
<path d="M1796.48 783.009C1796.48 783.009 1761.27 788.389 1762.4 813.872C1763.54 839.355 1767.78 916.088 1807.33 897.684C1846.88 879.279 1880.38 823.593 1880.38 823.593L1796.48 783.009Z" fill="white"/>
<path d="M1979.29 783.009C1979.29 783.009 2014.49 788.389 2013.46 813.872C2012.42 839.355 2007.98 916.088 1968.53 897.684C1929.08 879.279 1895.48 823.593 1895.48 823.593L1979.29 783.009Z" fill="white"/>
<path d="M1885.95 944.403C1896.74 944.403 1905.49 935.656 1905.49 924.866C1905.49 914.076 1896.74 905.328 1885.95 905.328C1875.16 905.328 1866.41 914.076 1866.41 924.866C1866.41 935.656 1875.16 944.403 1885.95 944.403Z" fill="white"/>
<path d="M1885.95 1013.49C1896.74 1013.49 1905.49 1004.74 1905.49 993.954C1905.49 983.164 1896.74 974.417 1885.95 974.417C1875.16 974.417 1866.41 983.164 1866.41 993.954C1866.41 1004.74 1875.16 1013.49 1885.95 1013.49Z" fill="white"/>
<path d="M1885.95 1082.58C1896.74 1082.58 1905.49 1073.83 1905.49 1063.04C1905.49 1052.25 1896.74 1043.5 1885.95 1043.5C1875.16 1043.5 1866.41 1052.25 1866.41 1063.04C1866.41 1073.83 1875.16 1082.58 1885.95 1082.58Z" fill="white"/>
<path opacity="0.18" d="M3790.77 591.79C3790.77 695.921 3763.3 798.209 3711.13 888.327C3658.96 978.445 3583.93 1053.2 3493.63 1105.06C3403.33 1156.91 3300.94 1184.02 3196.81 1183.65C3092.68 1183.29 2990.49 1155.45 2900.56 1102.97L2924.63 1124.86L2634.31 1224.53L2732.65 955.729C2674.72 881.412 2635.37 794.335 2617.88 701.742C2600.39 609.15 2605.26 513.719 2632.09 423.39C2658.93 333.062 2706.94 250.446 2772.14 182.417C2837.35 114.388 2917.85 62.9137 3006.96 32.2754C3096.07 1.63722 3191.21 -7.27855 3284.46 6.26989C3377.71 19.8183 3466.38 55.4392 3543.09 110.169C3619.79 164.899 3682.32 237.155 3725.47 320.926C3768.62 404.697 3791.13 497.56 3791.15 591.79H3790.77Z" fill="#2673D1"/>
<path d="M3095.75 791.126C3095.75 791.126 2933.03 794.43 2849.88 930.246C2849.88 930.246 2793.25 1124.86 2798.91 1166.2L2924.63 1125.05C2987.3 1160.07 3081.4 1186.87 3215.33 1180.83C3467.61 1169.6 3581.25 1041.71 3581.25 1041.71C3581.25 1041.71 3554.54 860.592 3405.23 819.441C3255.91 778.29 3095.75 791.126 3095.75 791.126Z" fill="#2673D1"/>
<path d="M3108.01 652.573C3108.01 652.573 3105.94 767.625 3095.74 791.126C3085.55 814.627 3175.69 886.452 3267.99 820.856L3274.13 792.07C3274.13 792.07 3257.8 712.128 3267.99 642.379C3278.19 572.631 3108.01 652.573 3108.01 652.573Z" fill="#F7AF87"/>
<path d="M3106.6 667.674C3106.6 667.674 3122.74 744.973 3191.07 750.353C3259.4 755.733 3264.97 732.609 3264.97 732.609L3266.67 633.508L3106.6 667.674Z" fill="url(#paint2_linear_9_57)"/>
<path d="M3004.1 418.881C3000.17 416.037 2995.67 414.09 2990.9 413.177C2986.14 412.263 2981.24 412.406 2976.54 413.596C2972.89 415.118 2969.66 417.479 2967.1 420.486C2952.75 435.681 2953.51 459.655 2957.66 480.136C2960.22 491.626 2963.69 502.894 2968.04 513.83C2969.79 518.909 2972.38 523.662 2975.69 527.893C2985.79 540.068 3004 541.673 3019.58 539.88C3024.26 539.881 3028.87 538.769 3033.04 536.636C3037.21 534.502 3040.81 531.409 3043.55 527.61C3044.97 524.354 3045.8 520.87 3046 517.322C3049.97 476.077 3040.25 440.778 3004.1 418.881Z" fill="#F7AF87"/>
<path d="M3394.18 435.682C3405.79 427.565 3420.89 421.336 3433.91 426.904C3439.01 429.478 3443.35 433.34 3446.5 438.109C3449.64 442.877 3451.49 448.385 3451.85 454.086C3452.49 465.526 3450.49 476.96 3445.99 487.498C3441.55 501.046 3434.53 513.608 3425.32 524.496C3415.93 535.273 3402.75 542.03 3388.51 543.372C3381.41 543.906 3374.29 542.416 3368 539.076C3361.7 535.735 3356.48 530.68 3352.93 524.496C3349.47 516.198 3347.86 507.243 3348.21 498.257C3347.56 491.31 3348.36 484.302 3350.57 477.682C3356.14 463.997 3382.29 443.893 3394.18 435.682Z" fill="#F7AF87"/>
<path d="M3382.2 474.473C3367.47 597.83 3298.86 699.386 3196.17 699.386C3093.48 699.386 3010.23 598.68 3010.23 474.473C3010.23 350.265 3076.3 210.202 3178.99 210.202C3281.68 210.202 3412.21 222.189 3382.2 474.473Z" fill="#F7AF87"/>
<path d="M3010.33 417.75L3012.02 445.309C3012.02 449.651 3013.44 454.747 3017.69 455.974C3021.93 457.201 3026.09 449.556 3026.18 443.893C3026.18 421.242 3019.1 395.664 3033.17 377.826C3036.69 374.344 3039.85 370.518 3042.6 366.406C3048.46 354.608 3039.58 339.601 3044.87 327.52C3047.98 320.63 3054.87 316.383 3059.88 310.625C3066.01 301.629 3070.69 291.724 3073.75 281.273C3074.89 277.757 3077.1 274.687 3080.07 272.495C3082.91 271.313 3085.9 270.519 3088.95 270.135C3100.46 267.21 3107.26 255.412 3117.26 249.277C3126.32 244.771 3136.45 242.875 3146.52 243.803C3185.88 245.03 3226.84 258.998 3263.27 243.803C3278.24 265.079 3301 279.594 3326.6 284.198C3328.74 284.324 3330.8 285.044 3332.55 286.275C3334.23 288.304 3335.34 290.749 3335.76 293.353C3339.51 301.651 3344.83 309.149 3351.42 315.439C3374.17 343.754 3373.7 382.922 3372 419.26L3369.36 476.927L3389.46 443.138C3391.53 439.194 3394.24 435.621 3397.48 432.568C3401.16 429.453 3406.07 427.565 3408.34 423.129C3409.29 420.918 3409.83 418.551 3409.94 416.145L3414.85 366.689C3416.29 357.778 3415.97 348.672 3413.9 339.884C3412.21 334.41 3409.19 329.408 3407.49 323.933C3405.59 313.88 3405.31 303.591 3406.64 293.448C3407.29 288.368 3406.83 283.206 3405.3 278.319C3403.77 273.431 3401.2 268.933 3397.77 265.133C3404.37 243.048 3410.6 219.641 3405.41 197.178C3400.22 174.715 3379.36 154.234 3356.61 157.632C3353.17 158.546 3349.58 158.802 3346.04 158.387C3343.06 157.363 3340.33 155.723 3338.02 153.573C3322.15 141.075 3302.79 133.818 3282.62 132.809C3258.86 131.299 3235.03 131.299 3211.27 132.809C3157.84 137.245 3101.78 126.202 3051.85 145.456C3039.83 149.889 3028.75 156.55 3019.2 165.088C3009.34 175.15 3000.86 186.481 2994 198.782C2990.16 204.254 2987.32 210.355 2985.6 216.809C2984.79 223.897 2984.79 231.053 2985.6 238.14C2985.6 261.83 2973.52 285.331 2977.48 308.455C2978.9 317.044 2982.39 325.066 2983.62 333.655C2984.28 341.475 2984.28 349.336 2983.62 357.156C2982.96 376.94 2986.44 396.643 2993.81 415.012C2995.04 418.127 2997.02 421.714 3000.42 421.997C3003.81 422.28 3007.31 414.069 3010.33 417.75Z" fill="#404040"/>
<path d="M3037.41 625.012C3039.96 636.427 3043.89 647.488 3049.12 657.952C3062.53 680.704 3083.66 697.886 3108.67 706.37C3133.54 714.639 3159.58 718.815 3185.78 718.734C3220.94 719.682 3256.12 717.598 3290.92 712.505C3303.38 710.712 3302.44 707.975 3312.44 700.518C3328.58 688.437 3347.08 666.918 3350.2 647.004C3360.2 587.826 3376.91 505.43 3374.45 445.403C3358.41 475.039 3358.6 538.464 3335.28 562.814C3322.64 575.934 3303.76 580.464 3285.83 583.39C3228.13 592.944 3169.2 592.145 3111.79 581.03C3094.42 579.062 3078.01 572.039 3064.6 560.832C3044.21 540.729 3045.72 508.356 3041.28 480.041C3039.49 467.583 3034.68 448.989 3020.99 444.836C3016.84 469.659 3022.5 496.841 3023.07 521.852C3023.91 556.673 3028.72 591.283 3037.41 625.012V625.012Z" fill="#404040"/>
<path d="M2991.36 458.428C2991.4 455.594 2991.05 452.768 2990.32 450.028C2989.93 448.665 2989.14 447.453 2988.04 446.558C2986.94 445.663 2985.6 445.128 2984.18 445.026C2981.16 445.026 2978.99 447.857 2977.58 450.5C2972.5 461.694 2971.99 474.425 2976.16 485.988C2979.26 497.782 2986.54 508.048 2996.64 514.869C2999.11 516.71 3002.05 517.819 3005.12 518.07C3008.19 518.32 3011.27 517.701 3014.01 516.284C3023.45 509.772 3019.77 490.707 3011.27 485.421C3006.08 482.212 3001.83 482.59 2997.78 476.927C2993.89 471.511 2991.66 465.085 2991.36 458.428V458.428Z" fill="url(#paint3_linear_9_57)"/>
<path d="M3411.17 458.428C3411.13 455.594 3411.48 452.768 3412.21 450.028C3412.59 448.665 3413.38 447.453 3414.48 446.558C3415.58 445.663 3416.93 445.128 3418.34 445.026C3421.36 445.026 3423.53 447.857 3424.95 450.5C3430.02 461.694 3430.53 474.425 3426.36 485.988C3423.27 497.782 3415.99 508.048 3405.88 514.869C3403.41 516.71 3400.47 517.819 3397.4 518.07C3394.33 518.32 3391.25 517.701 3388.52 516.284C3379.08 509.772 3382.85 490.707 3391.25 485.421C3396.44 482.212 3400.69 482.59 3404.75 476.927C3408.63 471.511 3410.86 465.085 3411.17 458.428V458.428Z" fill="url(#paint4_linear_9_57)"/>
<path d="M3305.84 744.029C3296.38 739.747 3285.96 738.053 3275.64 739.121C3211.93 740.82 3146.05 754.033 3086.12 732.42C3075.84 742.395 3068.3 754.842 3064.22 768.568C3058.09 797.543 3082.53 824.442 3108.96 837.656C3153.6 860.119 3205.89 859.647 3255.72 856.532C3275.26 855.4 3296.4 853.418 3310.94 840.204C3334.06 819.629 3335.29 760.545 3305.84 744.029Z" fill="#2673D1"/>
<path d="M3062.99 790.088C3062.99 790.088 3042.42 839.261 3145.01 841.337C3145.01 841.337 3042.42 843.414 3013.73 865.971C2985.03 888.529 2913.21 923.356 2909.15 968.565C2905.09 1013.77 2880.36 1134.68 2880.36 1134.68L2798.72 1166.01L2849.69 930.057C2873.85 893.438 2905.23 862.137 2941.9 838.069C2978.58 814.001 3019.79 797.674 3062.99 790.088V790.088Z" fill="url(#paint5_linear_9_57)"/>
<defs>
<linearGradient id="paint0_linear_9_57" x1="555.157" y1="817.081" x2="484.842" y2="533.557" gradientUnits="userSpaceOnUse">
<stop stop-opacity="0"/>
<stop offset="0.99"/>
</linearGradient>
<linearGradient id="paint1_linear_9_57" x1="98319" y1="25809.3" x2="99600" y2="22308.3" gradientUnits="userSpaceOnUse">
<stop stop-opacity="0"/>
<stop offset="0.99"/>
</linearGradient>
<linearGradient id="paint2_linear_9_57" x1="58730.2" y1="25662.7" x2="59104.5" y2="17985.4" gradientUnits="userSpaceOnUse">
<stop stop-opacity="0"/>
<stop offset="0.99"/>
</linearGradient>
<linearGradient id="paint3_linear_9_57" x1="17992.6" y1="12667.8" x2="18460.5" y2="12624.9" gradientUnits="userSpaceOnUse">
<stop stop-opacity="0"/>
<stop offset="0.99"/>
</linearGradient>
<linearGradient id="paint4_linear_9_57" x1="46486.6" y1="12667.8" x2="46019.1" y2="12624.9" gradientUnits="userSpaceOnUse">
<stop stop-opacity="0"/>
<stop offset="0.99"/>
</linearGradient>
<linearGradient id="paint5_linear_9_57" x1="117874" y1="91951.9" x2="103874" y2="47467.8" gradientUnits="userSpaceOnUse">
<stop stop-opacity="0"/>
<stop offset="0.99"/>
</linearGradient>
</defs>
</svg>
