<!-- icon666.com - MILLIONS vector ICONS FREE --><svg id="Layer_1" viewBox="0 0 64 64" xmlns="http://www.w3.org/2000/svg"><g><g id="LINE_359_"><g><path d="m34.929 51.07c-.512 0-1.023-.195-1.414-.586-.781-.781-.781-2.047 0-2.828l14.143-14.143c.781-.781 2.047-.781 2.828 0s.781 2.047 0 2.828l-14.143 14.143c-.391.391-.903.586-1.414.586z" fill="rgb(0,0,0)"></path></g></g><g id="LINE_360_"><g><path d="m42 53.999h-30c-1.104 0-2-.896-2-2s.896-2 2-2h30c1.104 0 2 .896 2 2s-.896 2-2 2z" fill="rgb(0,0,0)"></path></g></g><g id="LWPOLYLINE_15_"><g><path d="m12 45.999c-.001 0-.002 0-.003 0-1.104-.002-1.999-.898-1.997-2.003.011-6.459 4.631-12.418 11.499-14.829 5.913-2.076 12.538-1.36 17.72 1.913.934.59 1.213 1.825.623 2.759-.591.934-1.824 1.213-2.76.623-4.097-2.587-9.561-3.169-14.259-1.52-4.385 1.538-8.814 5.556-8.823 11.06-.002 1.103-.896 1.997-2 1.997z" fill="rgb(0,0,0)"></path></g></g><g id="CIRCLE_41_"><g><path d="m41.945 53.958c-1.928 0-3.84-.465-5.529-1.345-5.147-2.678-7.664-9.099-5.729-14.618 1.649-4.703 6.339-7.987 11.402-7.987.725 0 1.45.068 2.157.201 5.561 1.049 9.754 6.118 9.754 11.79 0 2.362-.736 4.752-2.074 6.73-2.214 3.274-5.945 5.229-9.981 5.229zm.144-19.95c-3.395 0-6.531 2.184-7.627 5.311-1.292 3.684.378 7.965 3.8 9.746 1.123.584 2.396.893 3.684.893 2.706 0 5.198-1.296 6.666-3.468.895-1.325 1.388-2.92 1.388-4.491 0-3.72-2.853-7.172-6.495-7.859-.463-.087-.94-.132-1.416-.132z" fill="rgb(0,0,0)"></path></g></g><g id="LINE_361_"><g><path d="m12 53.999c-1.104 0-2-.896-2-2v-8c0-1.104.896-2 2-2s2 .896 2 2v8c0 1.105-.896 2-2 2z" fill="rgb(0,0,0)"></path></g></g><g id="CIRCLE_42_"><g><path d="m28.667 31.99c-.521 0-1.046-.039-1.56-.114-5.813-.856-9.979-6.326-9.285-12.194.667-5.636 5.853-10.011 11.596-9.662 5.694.341 10.326 5.266 10.326 10.979 0 .588-.048 1.182-.142 1.764-.85 5.26-5.551 9.227-10.935 9.227zm.119-17.989c-3.454 0-6.59 2.759-6.991 6.151-.435 3.675 2.265 7.232 5.895 7.767.322.047.651.071.978.071 3.386 0 6.455-2.576 6.986-5.865.061-.372.091-.751.091-1.126 0-3.574-3.006-6.773-6.564-6.986-.133-.008-.265-.012-.395-.012z" fill="rgb(0,0,0)"></path></g></g></g></svg>