<svg id="Group" xmlns="http://www.w3.org/2000/svg" width="32" height="32" viewBox="0 0 32 32">
  <rect id="Rectangle" width="32" height="32" fill="none"/>
  <path id="Combined_Shape" data-name="Combined Shape" d="M4.361,20A4.36,4.36,0,0,1,0,15.64V4.361A4.36,4.36,0,0,1,4.361,0H15.5a4.36,4.36,0,0,1,4.36,4.361V15.64A4.36,4.36,0,0,1,15.5,20Zm20.471-4.076-3.344-2.007v-7.5l3.347-2.007C26.577,3.361,28,4.112,28,6.09v8.149c0,1.37-.689,2.155-1.694,2.154A2.918,2.918,0,0,1,24.832,15.924Z" transform="translate(2 6)" fill="#2a87ff"/>
</svg>
