<svg id="Group" xmlns="http://www.w3.org/2000/svg" width="32" height="32" viewBox="0 0 32 32">
  <rect id="Rectangle" width="32" height="32" fill="none"/>
  <path id="Combined_Shape" data-name="Combined Shape" d="M3.666,26A3.7,3.7,0,0,1,0,22.292V4.666A3.642,3.642,0,0,1,3.666,1.03H14.575a.734.734,0,0,1,0,1.468H3.666a2.172,2.172,0,0,0-2.2,2.167V22.292a2.235,2.235,0,0,0,2.2,2.24h17.6a2.233,2.233,0,0,0,2.2-2.24V11.4a.734.734,0,0,1,1.467,0V22.292A3.7,3.7,0,0,1,21.263,26Zm4.67-8.308a.824.824,0,0,1-.214-.778l1.152-4.628a.806.806,0,0,1,.214-.38L20.43.928a3.332,3.332,0,0,1,4.614,0,3.279,3.279,0,0,1,0,4.628L14.1,16.535a.814.814,0,0,1-.379.216L9.11,17.908a.839.839,0,0,1-.2.024A.807.807,0,0,1,8.336,17.692ZM10.8,12.9l-.769,3.086,3.076-.771,9.052-9.083L19.854,3.821ZM21.584,2.084l-.576.579,2.307,2.315.576-.579a1.634,1.634,0,0,0-2.307-2.315Z" transform="translate(3 3)" fill="#121213" stroke="#121213" stroke-miterlimit="10" stroke-width="0.5"/>
</svg>
