<svg xmlns="http://www.w3.org/2000/svg" width="26" height="26" viewBox="0 0 26 26">
  <path id="Combined_Shape" data-name="Combined Shape" d="M19.888,25.97a.382.382,0,0,0-.078-.005H8.383A2.364,2.364,0,0,1,6.019,23.6V13.373l-.01-.418a.566.566,0,0,1,.274-.5l.263-.158c1.836-1.186,5.73-4.556,5.228-11.552l-.011-.1a.564.564,0,0,1,.516-.623L12.541,0c1.846.014,4.9,1.17,3.208,9.284a.489.489,0,0,0,.409.575.523.523,0,0,0,.212,0c.857-.1,13-1.636,8.718,4.574a.475.475,0,0,0,.054.6c.193.246,1.683,2.2-.681,3.28a.482.482,0,0,0-.26.616c.073.2.845,2.526-.976,3.268a.493.493,0,0,0-.314.5c0,.383-.1,3.309-2.571,3.309A3.52,3.52,0,0,1,19.888,25.97Zm-18.8-.086a1.114,1.114,0,0,1-.766-.3A.974.974,0,0,1,0,24.858V12.893a1,1,0,0,1,.319-.724,1.093,1.093,0,0,1,.766-.3H4.077a1.114,1.114,0,0,1,.766.3.975.975,0,0,1,.319.724v12a.34.34,0,0,0-.012.108,1.01,1.01,0,0,1-.308.576,1.093,1.093,0,0,1-.766.3Z" fill="#2a87ff"/>
</svg>
