<svg xmlns="http://www.w3.org/2000/svg" width="27" height="24" viewBox="0 0 27 24">
  <path id="Combined_Shape" data-name="Combined Shape" d="M2.3,24A2.3,2.3,0,0,1,0,21.7V19.379a4.672,4.672,0,0,1,4.62-4.666h.224a7.192,7.192,0,0,0,2.108.853,8.444,8.444,0,0,0,2.377.313,8.454,8.454,0,0,0,2.378-.313,6.933,6.933,0,0,0,2.063-.853h.224A4.5,4.5,0,0,1,17.267,16.1a4.5,4.5,0,0,1,1.39,3.274V21.7a2.3,2.3,0,0,1-2.3,2.3Zm19.165-3.006a1.152,1.152,0,0,1-1.152-1.152V19.6a6.638,6.638,0,0,0-1.75-4.351L15.347,13.31a.308.308,0,0,1-.1-.436.481.481,0,0,1,.5-.206l.58.116a6.985,6.985,0,0,0,1.39.09,8.455,8.455,0,0,0,2.378-.314,8.28,8.28,0,0,0,2.063-.807h.224A4.46,4.46,0,0,1,25.655,13.1,4.536,4.536,0,0,1,27,16.374v3.469a1.152,1.152,0,0,1-1.152,1.152ZM3.408,7.67a5.921,5.921,0,1,1,5.92,5.922A5.921,5.921,0,0,1,3.408,7.67Zm14.532,3.186a5.753,5.753,0,0,1-.852-.18l-.4-.134.09-.494a6.932,6.932,0,0,0,.179-.941,7.671,7.671,0,0,0-.583-4.038,7.638,7.638,0,0,0-2.108-2.96A5.355,5.355,0,0,1,16.281.537a4.777,4.777,0,0,1,2.87-.493,5.22,5.22,0,0,1,3.633,2.019A5.189,5.189,0,0,1,23.95,6.055a5.264,5.264,0,0,1-1.973,3.634,5.742,5.742,0,0,1-3.506,1.19Q18.209,10.879,17.941,10.856Z" transform="translate(0 0)" fill="#b8c0d2"/>
</svg>
