<svg id="Group_Copy" data-name="Group Copy" xmlns="http://www.w3.org/2000/svg" width="32" height="32" viewBox="0 0 32 32">
  <rect id="Rectangle" width="32" height="32" fill="none"/>
  <path id="Path" d="M21.6,15.352l-3.433-2.9a1.176,1.176,0,0,0-1.577.106,7.888,7.888,0,0,0-.853,1.17c-.229.362-.49.771-.66.785a1.449,1.449,0,0,1-.2.009c-3.112,0-8.956-5.061-9.2-7.966-.014-.161.358-.477.683-.757A7.885,7.885,0,0,0,7.385,4.8a1.14,1.14,0,0,0-.142-1.6L3.759.255a1.185,1.185,0,0,0-1.577.1A7.836,7.836,0,0,0,.014,5.858C.454,11.144,10.634,20,16.272,20c.147,0,.289-.009.431-.018a7.842,7.842,0,0,0,5.06-3.061A1.146,1.146,0,0,0,21.6,15.352Z" transform="matrix(0.995, 0.105, -0.105, 0.995, 6.106, 5.905)" fill="#2a87ff"/>
</svg>
