<svg id="Group_4_Copy_2" data-name="Group 4 Copy 2" xmlns="http://www.w3.org/2000/svg" width="32" height="32" viewBox="0 0 32 32">
  <rect id="Rectangle" width="32" height="32" fill="none"/>
  <path id="Combined_Shape" data-name="Combined Shape" d="M3.778,26a.9.9,0,0,1-.672-.3.993.993,0,0,1,0-1.4.9.9,0,0,1,.672-.3H7.683V22a8.545,8.545,0,0,1-5.506-2.966A8.854,8.854,0,0,1,0,13.067v-2a.979.979,0,0,1,.288-.7.9.9,0,0,1,1.345,0,.836.836,0,0,1,.257.7v2A6.939,6.939,0,0,0,3.81,18a6.214,6.214,0,0,0,4.675,2.033A6.164,6.164,0,0,0,13.158,18a6.94,6.94,0,0,0,1.922-4.933v-2a.975.975,0,0,1,.288-.7.9.9,0,0,1,1.345,0,.979.979,0,0,1,.288.7v2a8.977,8.977,0,0,1-2.177,5.966A8.327,8.327,0,0,1,9.317,22v2h3.905a.794.794,0,0,1,.641.3,1,1,0,0,1,0,1.4.906.906,0,0,1-.672.3Zm1.569-9.367A5.439,5.439,0,0,1,3.906,13V5A5.13,5.13,0,0,1,5.347,1.467,4.238,4.238,0,0,1,8.58,0a4.176,4.176,0,0,1,3.234,1.467,5.183,5.183,0,0,1,1.345,3.567v8.033a5.124,5.124,0,0,1-1.345,3.566A4.285,4.285,0,0,1,8.58,18.1,4.172,4.172,0,0,1,5.347,16.633Z" transform="translate(8 3)" fill="#2a87ff"/>
</svg>
