<!-- icon666.com - MILLIONS vector ICONS FREE --><svg xmlns="http://www.w3.org/2000/svg" viewBox="0 0 24 24"><path d="M19.214,17.688a3.5,3.5,0,1,0-4.428,0A4.489,4.489,0,0,0,12,19.982a4.489,4.489,0,0,0-2.786-2.294,3.5,3.5,0,1,0-4.428,0A4.491,4.491,0,0,0,1.5,22a.5.5,0,0,0,.5.5H22a.5.5,0,0,0,.5-.5A4.491,4.491,0,0,0,19.214,17.688ZM4.5,15A2.5,2.5,0,1,1,7,17.5,2.5,2.5,0,0,1,4.5,15ZM2.535,21.5A3.507,3.507,0,0,1,6,18.5H8a3.507,3.507,0,0,1,3.465,3ZM14.5,15A2.5,2.5,0,1,1,17,17.5,2.5,2.5,0,0,1,14.5,15Zm-1.965,6.5A3.507,3.507,0,0,1,16,18.5h2a3.507,3.507,0,0,1,3.465,3ZM6.989,10H7a5,5,0,0,1,1.059.118A3.493,3.493,0,0,1,11,8.5h2a3.493,3.493,0,0,1,2.941,1.618A5,5,0,0,1,17,10h.011a4.527,4.527,0,0,0-2.782-2.326,3.5,3.5,0,1,0-4.458,0A4.527,4.527,0,0,0,6.989,10ZM9.5,5A2.5,2.5,0,1,1,12,7.5,2.5,2.5,0,0,1,9.5,5Z"></path></svg>