<svg id="Iconly_Bold_Time_Circle" data-name="Iconly/Bold/Time Circle" xmlns="http://www.w3.org/2000/svg" width="15.347" height="15.347" viewBox="0 0 15.347 15.347">
  <g id="Time_Circle" data-name="Time Circle">
    <path id="Time_Circle-2" data-name="Time Circle" d="M7.674,15.347A7.674,7.674,0,0,1,7.674,0,7.677,7.677,0,0,1,13.1,13.1,7.625,7.625,0,0,1,7.674,15.347ZM7.4,3.783a.576.576,0,0,0-.575.575V8.234a.573.573,0,0,0,.284.491l3.008,1.8a.586.586,0,0,0,.3.085.572.572,0,0,0,.491-.285.58.58,0,0,0-.2-.79L7.981,7.9V4.359A.576.576,0,0,0,7.4,3.783Z" fill="#898c91"/>
  </g>
</svg>
