<svg xmlns="http://www.w3.org/2000/svg" width="172" height="40.562" viewBox="0 0 172 40.562">
  <defs>
    <clipPath id="clip-path">
      <path id="Combined_Shape" data-name="Combined Shape" d="M-147.665,38H-19A19,19,0,0,0,0,19,19,19,0,0,0-19,0H-153a19,19,0,0,0-19,19,18.994,18.994,0,0,0,9.64,16.538,17.055,17.055,0,0,1-4.492,3.628.571.571,0,0,0-.294.624.683.683,0,0,0,.56.481c.025,0,.642.119,1.749.2.673.051,1.5.089,2.46.089A46.21,46.21,0,0,0-147.665,38Z" transform="translate(172)" fill="#dce7ff"/>
    </clipPath>
  </defs>
  <g id="Message" transform="translate(0)">
    <g id="Placeholder">
      <path id="Combined_Shape-2" data-name="Combined Shape" d="M-147.665,38H-19A19,19,0,0,0,0,19,19,19,0,0,0-19,0H-153a19,19,0,0,0-19,19,18.994,18.994,0,0,0,9.64,16.538,17.055,17.055,0,0,1-4.492,3.628.571.571,0,0,0-.294.624.683.683,0,0,0,.56.481c.025,0,.642.119,1.749.2.673.051,1.5.089,2.46.089A46.21,46.21,0,0,0-147.665,38Z" transform="translate(172)" fill="#dce7ff"/>
    </g>
    <text id="Value" transform="translate(12 20)" fill="#121213" font-size="15" font-family="Helvetica" letter-spacing="0.02em"><tspan x="0" y="0">Hi Anni, What’s Up?</tspan></text>
  </g>
</svg>
