<svg xmlns="http://www.w3.org/2000/svg" width="24.7" height="24.7" viewBox="0 0 24.7 24.7">
  <g id="noun_emoji_966933_1_" data-name="noun_emoji_966933 (1)" transform="translate(-0.65 -0.65)">
    <path id="Path" d="M12.35,0A12.35,12.35,0,1,0,24.7,12.35,12.35,12.35,0,0,0,12.35,0Z" transform="translate(0.65 0.65)" fill="#2a87ff"/>
    <path id="Path-2" data-name="Path" d="M5,1.48A5.437,5.437,0,0,1,1.184.179.7.7,0,0,0,.207.225.785.785,0,0,0,.177,1.253,6.8,6.8,0,0,0,5,2.994a6.8,6.8,0,0,0,4.823-1.74A.785.785,0,0,0,9.793.225.7.7,0,0,0,8.816.179,5.437,5.437,0,0,1,5,1.48Z" transform="translate(8.076 15.946)" fill="#fff"/>
    <path id="Shape" d="M3.6,1.8A1.8,1.8,0,1,0,1.8,3.6,1.8,1.8,0,0,0,3.6,1.8Z" transform="translate(7.377 7.53)" fill="#fff"/>
    <path id="Shape-2" data-name="Shape" d="M1.8,0A1.8,1.8,0,1,0,3.6,1.8,1.8,1.8,0,0,0,1.8,0Z" transform="translate(15.377 7.53)" fill="#fff"/>
  </g>
</svg>
