<svg xmlns="http://www.w3.org/2000/svg" width="26.168" height="24.388" viewBox="0 0 26.168 24.388">
  <path id="Path" d="M23.562,16.887l-3.745-3.2a1.275,1.275,0,0,0-1.72.116,8.674,8.674,0,0,0-.93,1.287c-.25.4-.535.848-.72.863a1.568,1.568,0,0,1-.22.01c-3.4,0-9.771-5.567-10.036-8.762-.015-.177.39-.525.745-.833a8.633,8.633,0,0,0,1.12-1.09A1.261,1.261,0,0,0,7.9,3.526L4.1.281a1.285,1.285,0,0,0-1.72.106A8.661,8.661,0,0,0,.015,6.444C.5,12.258,11.6,22,17.751,22c.16,0,.315-.01.47-.02a8.541,8.541,0,0,0,5.52-3.367A1.268,1.268,0,0,0,23.562,16.887Z" transform="matrix(0.995, 0.105, -0.105, 0.995, 2.3, 0)" fill="#b8c0d2"/>
</svg>
