<svg xmlns="http://www.w3.org/2000/svg" width="16.889" height="16.889" viewBox="0 0 16.889 16.889">
  <path id="Shape" d="M15.686,16a.318.318,0,0,1-.226-.093l-4.673-4.68a6.753,6.753,0,0,1-4.2,1.46A6.476,6.476,0,0,1,0,6.344,6.477,6.477,0,0,1,6.588,0a6.477,6.477,0,0,1,6.589,6.344,6.186,6.186,0,0,1-1.926,4.477l4.662,4.668a.294.294,0,0,1-.009.427A.319.319,0,0,1,15.686,16ZM6.588.6A5.86,5.86,0,0,0,.627,6.344a5.86,5.86,0,0,0,5.961,5.739,5.86,5.86,0,0,0,5.961-5.739A5.86,5.86,0,0,0,6.588.6Z" transform="translate(0.444 0.444)" fill="#2a87ff" stroke="#2a87ff" stroke-miterlimit="10" stroke-width="0.889"/>
</svg>
