<svg id="svgexport-6_-_2022-10-01T150843.448" data-name="svgexport-6 - 2022-10-01T150843.448" xmlns="http://www.w3.org/2000/svg" width="25.224" height="15.314" viewBox="0 0 25.224 15.314">
  <g id="Graduation_Hat" data-name="Graduation Hat" transform="translate(0 0)">
    <path id="Path_2674" data-name="Path 2674" d="M4.322,18.622l12.161-3.6a.453.453,0,0,1,.256,0l12.161,3.6a.45.45,0,0,1,0,.864l-12.161,3.6a.453.453,0,0,1-.256,0L7.6,20.458v6.253a.45.45,0,0,1,.444.376l.45,2.7a.45.45,0,0,1-.444.524h-1.8a.45.45,0,0,1-.444-.524l.45-2.7a.45.45,0,0,1,.444-.376v-6.52l-2.38-.705a.45.45,0,0,1,0-.864Z" transform="translate(-3.999 -15)" fill="#898c91"/>
    <path id="Path_2675" data-name="Path 2675" d="M23.756,32.628a1.343,1.343,0,0,0,.383-.055l6.373-1.888v5.1c0,1.547-3.5,2.252-6.756,2.252S17,37.329,17,35.781v-5.1l6.372,1.888A1.358,1.358,0,0,0,23.756,32.628Z" transform="translate(-11.144 -23.62)" fill="#898c91"/>
  </g>
</svg>
