<svg height="128" width="128" xmlns="http://www.w3.org/2000/svg" xmlns:xlink="http://www.w3.org/1999/xlink"><linearGradient id="a"><stop offset="0" stop-color="#181818"/><stop offset="1" stop-color="#181818" stop-opacity="0"/></linearGradient><radialGradient id="b" cx="4.992979" cy="43.5" gradientTransform="matrix(2.003784 0 0 1.4 27.98813 -17.4)" gradientUnits="userSpaceOnUse" r="2.5" xlink:href="#a"/><radialGradient id="c" cx="4.992979" cy="43.5" gradientTransform="matrix(2.003784 0 0 1.4 -20.01187 -104.4)" gradientUnits="userSpaceOnUse" r="2.5" xlink:href="#a"/><linearGradient id="d" gradientUnits="userSpaceOnUse" x1="25.058096" x2="25.058096" y1="47.027729" y2="39.999443"><stop offset="0" stop-color="#181818" stop-opacity="0"/><stop offset=".5" stop-color="#181818"/><stop offset="1" stop-color="#181818" stop-opacity="0"/></linearGradient><linearGradient id="e" gradientUnits="userSpaceOnUse" x1="63.9999699027" x2="63.9999699027" y1="15.13693797297" y2="118.8667004"><stop offset="0" stop-color="#fff"/><stop offset=".06316455" stop-color="#fff" stop-opacity=".235294"/><stop offset=".95056331" stop-color="#fff" stop-opacity=".156863"/><stop offset="1" stop-color="#fff" stop-opacity=".392157"/></linearGradient><radialGradient id="f" cx="-4.028777" cy="93.467628" gradientTransform="matrix(1.5563924 0 0 .16978827 70.270355 102.1321)" gradientUnits="userSpaceOnUse" r="35.338131"><stop offset="0"/><stop offset="1" stop-opacity="0"/></radialGradient><linearGradient id="g" gradientUnits="userSpaceOnUse" x1="66.996674" x2="66.996674" y1="15.857451" y2="117.80992"><stop offset="0" stop-color="#ffa154"/><stop offset="1" stop-color="#f37329"/></linearGradient><linearGradient id="h" gradientUnits="userSpaceOnUse" x1="70.15717373296" x2="70.15717373296" y1="25.23845307796" y2="107.50001677289"><stop offset="0" stop-color="#fff5ef"/><stop offset="1" stop-color="#fef8dd"/></linearGradient><path d="m119 118.00181a55 6 0 0 1 -109.9999975 0 55 6 0 1 1 109.9999975 0z" fill="url(#f)" opacity=".2"/><g opacity=".4" transform="matrix(2.8421052421 0 0 .71428566143 -4.21053321053 87.43038209176)"><path d="m38 40h5v7h-5z" fill="url(#b)"/><path d="m-10-47h5v7h-5z" fill="url(#c)" transform="scale(-1)"/><path d="m10 40h28v7.000001h-28z" fill="url(#d)"/></g><rect fill="url(#g)" height="103" rx="6.054541" width="103" x="12.499989" y="15.501808"/><rect fill="none" height="101" opacity=".5" rx="5" stroke="url(#e)" stroke-linecap="round" stroke-linejoin="round" width="101" x="13.499989" y="16.501808"/><rect fill="none" height="103" opacity=".5" rx="6.054541" stroke="#a62100" stroke-linecap="round" stroke-linejoin="round" width="103" x="12.499989" y="15.501808"/><path d="m63.999999 35.000002c-15.01735 0-27.67766 9.965955-31.656251 23.71875a.98724289.98724289 0 0 0 .9375 1.28125h7.5a.98724289.98724289 0 0 0 .906251-.65625c3.444361-8.96802 12.124126-15.34375 22.3125-15.34375 6.235096 0 11.866465 2.551158 16.125 6.5l-7.9375 7.8125a.98724289.98724289 0 0 0 .6875 1.6875h23.125a.98724289.98724289 0 0 0 1-1v-23a.98724289.98724289 0 0 0 -1.6875-.6875l-8.75 8.78125c-5.899537-5.570859-13.811502-9.09375-22.5625-9.09375zm-32.000001 41a.98724289.98724289 0 0 0 -.999999 1v22.999998a.98724289.98724289 0 0 0 1.687499.6875l8.750001-8.749998c5.900725 5.569657 13.81374 9.062498 22.5625 9.062498 15.017349 0 27.677658-9.965955 31.65625-23.718748a.98724289.98724289 0 0 0 -.9375-1.28125h-7.5a.98724289.98724289 0 0 0 -.90625.65625c-3.444362 8.968018-12.124128 15.34375-22.3125 15.34375-6.235097 0-11.866465-2.551158-16.125-6.5l7.9375-7.8125a.98724289.98724289 0 0 0 -.6875-1.6875z" fill="#a62100" opacity=".15"/><path d="m63.999989 36.002004c-14.581276 0-26.863626 9.660177-30.722224 22.998191h7.500001c3.586853-9.339021 12.620377-16 23.222223-16 6.866013 0 13.058559 2.940656 17.555555 7.446253l-8.666666 8.553747h23.111111v-22.998191l-9.38889 9.388889c-5.784193-5.792657-13.778155-9.388889-22.61111-9.388889zm-32.000001 40.998191v23.001805l9.388891-9.388888c5.784193 5.792658 13.778155 9.388888 22.61111 9.388888 14.581275 0 26.863624-9.663793 30.722222-23.001805h-7.5c-3.586853 9.339019-12.620378 16-23.222222 16-6.866014 0-13.05856-2.93704-17.555556-7.442637l8.666666-8.557363z" fill="#a62100" opacity=".3"/><path d="m63.999989 35.001811c-14.581276 0-26.863626 9.660177-30.722224 22.998191h7.500001c3.586853-9.339021 12.620377-16 23.222223-16 6.866013 0 13.058559 2.940656 17.555555 7.446253l-8.666666 8.553747h23.111111v-22.998191l-9.38889 9.388889c-5.784193-5.792657-13.778155-9.388889-22.61111-9.388889zm-32.000001 40.998191v23.001807l9.388891-9.38889c5.784193 5.792658 13.778155 9.38889 22.61111 9.38889 14.581275 0 26.863624-9.663795 30.722222-23.001807h-7.5c-3.586853 9.339019-12.620378 16-23.222222 16-6.866014 0-13.05856-2.93704-17.555556-7.442637l8.666666-8.557363z" fill="url(#h)"/></svg>