<svg id="undraw_access_account_re_8spm" xmlns="http://www.w3.org/2000/svg" width="220" height="220.658" viewBox="0 0 220 220.658">
  <path id="Path_1" data-name="Path 1" d="M257.208,673.349l1.938-7.642a99.247,99.247,0,0,1,10.528-3.777l.245,3.552.992-3.913c4.437-1.268,7.455-1.826,7.455-1.826s-4.076,15.5-12.628,27.356l-9.964,1.75,7.741,1.116a40.143,40.143,0,0,1-3.461,3.669c-12.439,11.546-26.294,16.844-30.946,11.832s1.661-18.434,14.1-29.979a52.866,52.866,0,0,1,13.55-8.713Z" transform="translate(-58.364 -487.464)" fill="#f2f2f2"/>
  <path id="Path_2" data-name="Path 2" d="M325.722,623.833l-2.291-7.543a99.242,99.242,0,0,1,7.059-8.675l2.045,2.914-1.173-3.862c3.143-3.378,5.438-5.415,5.438-5.415s4.523,15.379,3.33,29.945l-7.625,6.649,7.2-3.046a40.153,40.153,0,0,1-1.067,4.931c-4.68,16.314-13.8,28.011-20.375,26.125s-8.107-16.639-3.426-32.953a52.86,52.86,0,0,1,7.1-14.462Z" transform="translate(-145.305 -446.248)" fill="#f2f2f2"/>
  <path id="Path_22" data-name="Path 22" d="M375.962,128.736h1.209V95.626a19.164,19.164,0,0,1,19.164-19.164h70.151a19.164,19.164,0,0,1,19.164,19.164V277.274a19.164,19.164,0,0,1-19.164,19.164H396.335a19.164,19.164,0,0,1-19.164-19.164V152.3h-1.209Z" transform="translate(-309.477 -76.462)" fill="#e6e6e6"/>
  <path id="Path_23" data-name="Path 23" d="M408.176,93.335h9.156a6.8,6.8,0,0,0,6.3,9.367h40.188a6.8,6.8,0,0,0,6.3-9.367h8.553a14.312,14.312,0,0,1,14.311,14.311V289.031a14.311,14.311,0,0,1-14.311,14.311H408.176a14.311,14.311,0,0,1-14.311-14.311h0V107.646a14.311,14.311,0,0,1,14.311-14.311Z" transform="translate(-322.092 -88.351)" fill="#fff"/>
  <path id="Path_6" data-name="Path 6" d="M510.4,320.733a7.218,7.218,0,0,0-3.613-6.255,7.222,7.222,0,1,1,0,12.508A7.217,7.217,0,0,0,510.4,320.733Z" transform="translate(-380.092 -243.495)" fill="#ccc"/>
  <path id="Path_7" data-name="Path 7" d="M541.141,320.733a7.218,7.218,0,0,0-3.614-6.255,7.222,7.222,0,1,1,0,12.508,7.217,7.217,0,0,0,3.612-6.253Z" transform="translate(-419.908 -243.495)" fill="#ccc"/>
  <ellipse id="Ellipse_1" data-name="Ellipse 1" cx="7.222" cy="7.222" rx="7.222" ry="7.222" transform="translate(105.138 70.016)" fill="#fe4e66"/>
  <path id="Path_8" data-name="Path 8" d="M486.766,306.709h42.089a1.513,1.513,0,0,0,1.511-1.511V263.108a1.513,1.513,0,0,0-1.511-1.511H486.766a1.513,1.513,0,0,0-1.512,1.511V305.2A1.513,1.513,0,0,0,486.766,306.709ZM528.856,262.2a.908.908,0,0,1,.907.907V305.2a.908.908,0,0,1-.907.907H486.766a.908.908,0,0,1-.907-.907V263.109a.908.908,0,0,1,.907-.907Z" transform="translate(-386.476 -206.915)" fill="#ccc"/>
  <rect id="Rectangle_1" data-name="Rectangle 1" width="64.552" height="0.605" transform="translate(90.893 132.057)" fill="#ccc"/>
  <ellipse id="Ellipse_2" data-name="Ellipse 2" cx="2.039" cy="2.039" rx="2.039" ry="2.039" transform="translate(151.368 124.205)" fill="#fe4e66"/>
  <rect id="Rectangle_2" data-name="Rectangle 2" width="64.552" height="0.605" transform="translate(90.893 152.442)" fill="#ccc"/>
  <ellipse id="Ellipse_3" data-name="Ellipse 3" cx="2.039" cy="2.039" rx="2.039" ry="2.039" transform="translate(151.368 144.59)" fill="#fe4e66"/>
  <path id="Path_2515" data-name="Path 2515" d="M588.451,647.772h20.4a1.331,1.331,0,0,0,1.329-1.329v-7.15a1.331,1.331,0,0,0-1.329-1.329h-20.4a1.331,1.331,0,0,0-1.329,1.329v7.15A1.331,1.331,0,0,0,588.451,647.772Z" transform="translate(-496.377 -472.117)" fill="#fe4e66"/>
  <ellipse id="Ellipse_7" data-name="Ellipse 7" cx="2.039" cy="2.039" rx="2.039" ry="2.039" transform="translate(144.718 124.205)" fill="#fe4e66"/>
  <ellipse id="Ellipse_8" data-name="Ellipse 8" cx="2.039" cy="2.039" rx="2.039" ry="2.039" transform="translate(138.068 124.205)" fill="#fe4e66"/>
  <ellipse id="Ellipse_9" data-name="Ellipse 9" cx="2.039" cy="2.039" rx="2.039" ry="2.039" transform="translate(144.718 144.59)" fill="#fe4e66"/>
  <ellipse id="Ellipse_10" data-name="Ellipse 10" cx="2.039" cy="2.039" rx="2.039" ry="2.039" transform="translate(138.068 144.59)" fill="#fe4e66"/>
  <path id="Path_88" data-name="Path 88" d="M249.7,821.822H461.762c.454,0,.822-.161.822-.36s-.368-.36-.822-.36H249.7c-.454,0-.822.161-.822.36S249.242,821.822,249.7,821.822Z" transform="translate(-248.874 -601.163)" fill="#3f3d56"/>
  <path id="Path_2516" data-name="Path 2516" d="M797.259,544.586a2.966,2.966,0,0,0-.417.233l-13.248-5.654-.473-3.49-5.293-.032.313,8,17.486,4.624a3.1,3.1,0,0,0,.132.357,3.023,3.023,0,1,0,1.5-4.041Z" transform="translate(-744.043 -400.018)" fill="#ffb8b8"/>
  <path id="Path_2517" data-name="Path 2517" d="M618.889,701.7h3.621l1.723-13.967h-5.344Z" transform="translate(-587.029 -484.603)" fill="#ffb8b8"/>
  <path id="Path_2518" data-name="Path 2518" d="M608.06,731.518h-6.984v4.4h11.381A4.4,4.4,0,0,0,608.06,731.518Z" transform="translate(-569.992 -515.456)" fill="#2f2e41"/>
  <path id="Path_2519" data-name="Path 2519" d="M662.018,698.4l3.6.355,3.084-13.731-5.319-.524Z" transform="translate(-644.241 -482.323)" fill="#ffb8b8"/>
  <path id="Path_2520" data-name="Path 2520" d="M4.4,4.4h6.984V0H0A4.4,4.4,0,0,0,4.4,4.4Z" transform="matrix(-0.995, -0.098, 0.098, -0.995, 28.003, 220.46)" fill="#2f2e41"/>
  <ellipse id="Ellipse_369" data-name="Ellipse 369" cx="7.254" cy="7.254" rx="7.254" ry="7.254" transform="translate(23.598 106.334)" fill="#ffb8b8"/>
  <path id="Path_2521" data-name="Path 2521" d="M836.993,680.124a1.32,1.32,0,0,0,1.3-1.092c1.874-10.4,8-44.424,8.147-45.367a.441.441,0,0,0,0-.065v-2.537a.439.439,0,0,0-.082-.258l-.809-1.134a.437.437,0,0,0-.338-.185c-4.614-.216-19.726-.85-20.456.062h0c-.733.917-.474,3.694-.415,4.241l0,.057-6.789,43.417a1.333,1.333,0,0,0,1.1,1.517l4.24.7a1.335,1.335,0,0,0,1.484-.914c1.312-4.191,5.709-18.288,7.233-23.743a.147.147,0,0,1,.29.041c-.076,5.2-.26,18.467-.324,23.049l-.007.494a1.335,1.335,0,0,0,1.209,1.34l4.089.372C836.911,680.123,836.952,680.124,836.993,680.124Z" transform="translate(-800.703 -465.851)" fill="#2f2e41"/>
  <path id="Path_99" data-name="Path 99" d="M833.34,493.644a6.066,6.066,0,0,1,2.458,3.543,33.565,33.565,0,0,1,1.443,8.022l.459,8.152,5.687,21.612c-4.929,4.171-7.773,3.223-14.408-.189s-7.393,1.138-7.393,1.138l-1.327-18.389-1.9-20.094a8.9,8.9,0,0,1,1.436-1.381,14.667,14.667,0,0,1,12.536-2.657Z" transform="translate(-797.884 -369.948)" fill="#fe4e66"/>
  <path id="Path_2522" data-name="Path 2522" d="M851.455,556.194a3.109,3.109,0,0,0-.443.208l-13.1-6.556-.217-3.552-5.4-.372-.29,8.1,17.505,5.789a3.1,3.1,0,1,0,1.947-3.613Z" transform="translate(-814.152 -407.26)" fill="#ffb8b8"/>
  <path id="Path_101" data-name="Path 101" d="M883.1,507.478c-3.223,1.137-3.791,13.461-3.791,13.461,3.792-2.085,8.341,1.327,8.341,1.327s.948-3.223,2.085-7.394a7.245,7.245,0,0,0-1.517-6.825A5.163,5.163,0,0,0,883.1,507.478Z" transform="translate(-862.525 -379.896)" fill="#fe4e66"/>
  <path id="Path_102" data-name="Path 102" d="M844.5,438.8c.9-.723,2.137.591,2.137.591l.723-6.508a25.841,25.841,0,0,0,7.412-.181c2.892-.722,3.344,2.621,3.344,2.621a23.212,23.212,0,0,0,.09-4.067c-.181-1.627-2.531-3.254-6.689-4.339s-6.327,3.615-6.327,3.615C842.3,431.976,843.6,439.52,844.5,438.8Z" transform="translate(-820.156 -323.29)" fill="#2f2e41"/>
</svg>
