<!-- icon666.com - MILLIONS vector ICONS FREE --><svg viewBox="0 0 32 32" xmlns="http://www.w3.org/2000/svg"><g id="unfollow"><path d="m14.5 17.5a5.5 5.5 0 1 1 5.5-5.5 5.5066 5.5066 0 0 1 -5.5 5.5zm0-9a3.5 3.5 0 1 0 3.5 3.5 3.5042 3.5042 0 0 0 -3.5-3.5z"></path><path d="m14.5 26.5a13.0816 13.0816 0 0 1 -8.0371-2.7725 1.001 1.001 0 0 1 -.3731-.9257 8.496 8.496 0 0 1 15.0977-4.0479 1 1 0 0 1 -1.5752 1.2324 6.4514 6.4514 0 0 0 -5.1123-2.4863 6.52 6.52 0 0 0 -6.3232 5.01 10.7112 10.7112 0 0 0 7.0244 1.9629c.2754-.0108.5005-.0372.7246-.0625l.6929-.1153c.21-.042.4448-.1.67-.1553a1 1 0 0 1 .4824 1.9415c-.2544.0634-.52.1269-.7856.18l-.751.126c-.3584.042-.6333.0723-.9185.0821-.2437.0199-.5299.0306-.816.0306z"></path><path d="m14.5 26.5a13 13 0 1 1 13-13 12.8558 12.8558 0 0 1 -1.312 5.71 1 1 0 0 1 -1.7959-.8809 10.867 10.867 0 0 0 1.1079-4.8291 11 11 0 1 0 -11 11 10.7371 10.7371 0 0 0 2.771-.3555 1 1 0 0 1 .5176 1.9317 12.7148 12.7148 0 0 1 -3.2886.4238z"></path><path d="m23.5 31.5a7 7 0 1 1 7-7 7.0081 7.0081 0 0 1 -7 7zm0-12a5 5 0 1 0 5 5 5.0059 5.0059 0 0 0 -5-5z"></path><path d="m25.5 25.5h-4a1 1 0 0 1 0-2h4a1 1 0 0 1 0 2z"></path></g></svg>