<svg xmlns="http://www.w3.org/2000/svg" width="17.521" height="21.881" viewBox="0 0 17.521 21.881">
  <g id="gf" transform="translate(-48.65)">
    <g id="Group_7112" data-name="Group 7112" transform="translate(48.65)">
      <g id="Group_7111" data-name="Group 7111" transform="translate(0)">
        <path id="Path_2612" data-name="Path 2612" d="M60.551,85.4H50.38a1.731,1.731,0,0,0-1.73,1.73v14.595a1.731,1.731,0,0,0,1.73,1.73H60.551a1.731,1.731,0,0,0,1.73-1.73V87.13A1.736,1.736,0,0,0,60.551,85.4Zm.515,16.32a.52.52,0,0,1-.52.52H50.375a.52.52,0,0,1-.52-.52V87.13a.52.52,0,0,1,.52-.52H60.547a.52.52,0,0,1,.52.52Z" transform="translate(-48.65 -81.573)" fill="#535252"/>
        <path id="Path_2613" data-name="Path 2613" d="M147.351,0H137.18a1.731,1.731,0,0,0-1.73,1.73.6.6,0,0,0,1.21,0,.52.52,0,0,1,.52-.52h10.172a.52.52,0,0,1,.52.52V16.324a.52.52,0,0,1-.52.52.6.6,0,1,0,0,1.21,1.731,1.731,0,0,0,1.73-1.73V1.73A1.731,1.731,0,0,0,147.351,0Z" transform="translate(-131.561)" fill="#535252"/>
      </g>
    </g>
  </g>
</svg>
