<svg xmlns="http://www.w3.org/2000/svg" width="19.742" height="22.036" viewBox="0 0 19.742 22.036">
  <g id="Group_2908" data-name="Group 2908" transform="translate(-15.25 -50.199)">
    <g id="Iconly_Light_Chat" data-name="Iconly/Light/Chat" transform="translate(16 55.659)">
      <g id="Chat">
        <path id="Combined_Shape" data-name="Combined Shape" d="M7.19.923a.925.925,0,1,1,.925.925A.925.925,0,0,1,7.19.923ZM3.6.923a.924.924,0,1,1,.924.925A.925.925,0,0,1,3.6.923ZM0,.923a.925.925,0,1,1,.924.925A.925.925,0,0,1,0,.923Z" transform="translate(3.582 7.166)"/>
        <path id="Stroke_7" data-name="Stroke 7" d="M7.929,0A7.918,7.918,0,0,0,0,7.925a8.376,8.376,0,0,0,1.068,3.954.831.831,0,0,1,.055.714l-.53,1.775a.494.494,0,0,0,.649.617l1.6-.475A1.343,1.343,0,0,1,4.02,14.8,7.911,7.911,0,1,0,7.929,0Z" fill="none" stroke="#000" stroke-linecap="round" stroke-linejoin="round" stroke-miterlimit="10" stroke-width="1.5"/>
      </g>
    </g>
    <g id="Group_2651" data-name="Group 2651" transform="translate(25.496 51)">
      <circle id="Ellipse_34" data-name="Ellipse 34" cx="4.748" cy="4.748" r="4.748" transform="translate(0 0.951)" fill="#ee2e2e"/>
      <text id="_5" data-name="5" transform="translate(6.748 8.199)" fill="#fff" font-size="7" font-family="Cairo-Regular, Cairo"><tspan x="-3.92" y="0">5</tspan></text>
    </g>
  </g>
</svg>
