<svg id="Iconly_Bold_Location" data-name="Iconly/Bold/Location" xmlns="http://www.w3.org/2000/svg" width="14" height="17" viewBox="0 0 14 17">
  <g id="Location">
    <path id="Location-2" data-name="Location" d="M7,17a1.1,1.1,0,0,1-.6-.21,17.949,17.949,0,0,1-4.563-4.37A9.007,9.007,0,0,1,0,7.07a7.053,7.053,0,0,1,2.061-5A6.913,6.913,0,0,1,6.994,0,7.046,7.046,0,0,1,14,7.07a9.012,9.012,0,0,1-1.837,5.35A18.288,18.288,0,0,1,7.6,16.789,1.064,1.064,0,0,1,7,17ZM6.994,4.911A2.38,2.38,0,0,0,5.366,8.952a2.277,2.277,0,0,0,1.629.679A2.331,2.331,0,0,0,9.311,7.29a2.4,2.4,0,0,0-.682-1.677A2.267,2.267,0,0,0,6.994,4.911Z" fill="#898c91"/>
  </g>
</svg>
