<svg xmlns="http://www.w3.org/2000/svg" width="11.331" height="13.856" viewBox="0 0 11.331 13.856">
  <g id="Iconly_Light_Bookmark" data-name="Iconly/Light/Bookmark" transform="translate(0.5 0.5)">
    <g id="Bookmark" transform="translate(0)">
      <path id="Path_33968" d="M4.912,10.569.958,12.735a.659.659,0,0,1-.879-.262h0A.7.7,0,0,1,0,12.162v-9.6C0,.732,1.251,0,3.051,0H7.28c1.745,0,3.051.683,3.051,2.441v9.721a.653.653,0,0,1-.653.653.72.72,0,0,1-.317-.079L5.382,10.569A.494.494,0,0,0,4.912,10.569Z" transform="translate(0)" fill="none" stroke="#4e4e4e" stroke-linecap="round" stroke-linejoin="round" stroke-miterlimit="10" stroke-width="1"/>
      <path id="Line_209" d="M0,.458H4.863" transform="translate(2.715 3.905)" fill="none" stroke="#4e4e4e" stroke-linecap="round" stroke-linejoin="round" stroke-miterlimit="10" stroke-width="1"/>
    </g>
  </g>
</svg>
