<svg xmlns="http://www.w3.org/2000/svg" width="17.052" height="19.865" viewBox="0 0 17.052 19.865">
  <g id="Iconly_Light_Paper_Fail" data-name="Iconly/Light/Paper Fail" transform="translate(0.75 0.75)">
    <g id="Paper_Fail" data-name="Paper Fail" transform="translate(-0.75 -0.75)">
      <path id="Stroke_1" data-name="Stroke 1" d="M10.487,0H3.729A3.729,3.729,0,0,0,0,3.729V14.578a3.8,3.8,0,0,0,3.94,3.775h7.883a3.768,3.768,0,0,0,3.729-3.775v-9.3Z" transform="translate(0.75 0.762)" fill="none" stroke="#535252" stroke-linecap="round" stroke-linejoin="round" stroke-miterlimit="10" stroke-width="1.5"/>
      <path id="Stroke_3" data-name="Stroke 3" d="M0,0V2.909A2.574,2.574,0,0,0,2.568,5.484c1.317,0,2.664,0,2.755,0" transform="translate(10.974 0.75)" fill="none" stroke="#535252" stroke-linecap="round" stroke-linejoin="round" stroke-miterlimit="10" stroke-width="1.5"/>
      <path id="Stroke_5" data-name="Stroke 5" d="M3.466,3.466,0,0" transform="translate(6.61 9.182)" fill="none" stroke="#535252" stroke-linecap="round" stroke-linejoin="round" stroke-miterlimit="10" stroke-width="1.5"/>
      <path id="Stroke_7" data-name="Stroke 7" d="M0,3.466,3.466,0" transform="translate(6.611 9.182)" fill="none" stroke="#535252" stroke-linecap="round" stroke-linejoin="round" stroke-miterlimit="10" stroke-width="1.5"/>
    </g>
  </g>
</svg>
