<svg xmlns="http://www.w3.org/2000/svg" width="18.467" height="18.997" viewBox="0 0 18.467 18.997">
  <g id="svgexport-6_-_2022-09-18T193138.701" data-name="svgexport-6 - 2022-09-18T193138.701" transform="translate(-6.675 0)">
    <g id="Group_2912" data-name="Group 2912" transform="translate(6.675 0)">
      <path id="Path_2565" data-name="Path 2565" d="M24.588,12.915a2.36,2.36,0,0,0,.552-1.577,2.423,2.423,0,0,0-.516-1.367,2.123,2.123,0,0,0-.5-2.443,4.387,4.387,0,0,0-3.19-.763,12.467,12.467,0,0,0-1.955.25h0c-.2.036-.409.079-.624.127a6.931,6.931,0,0,1,.5-2.308c.556-1.692.524-2.987-.1-3.853A2.525,2.525,0,0,0,16.718,0a1,1,0,0,0-.767.35,2.673,2.673,0,0,0-.334,1.895C15.093,3.651,13.623,7.1,12.38,8.057a.425.425,0,0,0-.064.056,4.268,4.268,0,0,0-.779,1.168,1.639,1.639,0,0,0-.787-.2H8.328a1.654,1.654,0,0,0-1.653,1.653V17.19a1.654,1.654,0,0,0,1.653,1.653h2.423a1.649,1.649,0,0,0,.953-.3l.934.111a40,40,0,0,0,5.3.29c.473.036.918.056,1.331.056a8.913,8.913,0,0,0,1.847-.167A3.455,3.455,0,0,0,23.579,17.3a2.432,2.432,0,0,0,.27-1.522,2.534,2.534,0,0,0,.9-2.062A2.684,2.684,0,0,0,24.588,12.915ZM8.328,17.77a.581.581,0,0,1-.58-.58V10.73a.581.581,0,0,1,.58-.58h2.423a.581.581,0,0,1,.58.58v6.456a.581.581,0,0,1-.58.58H8.328ZM23.571,12.45a.534.534,0,0,0-.072.648,1.653,1.653,0,0,1,.183.663,1.59,1.59,0,0,1-.747,1.375.541.541,0,0,0-.183.612,1.4,1.4,0,0,1-.107,1.025,2.485,2.485,0,0,1-1.756,1.009,10.466,10.466,0,0,1-2.9.087h-.056a39.214,39.214,0,0,1-5.164-.282h0l-.4-.048a1.683,1.683,0,0,0,.036-.35V10.73a1.681,1.681,0,0,0-.075-.493,3.32,3.32,0,0,1,.739-1.363c1.784-1.414,3.528-6.185,3.6-6.392a.5.5,0,0,0,.024-.266,2.483,2.483,0,0,1,.052-1.152,1.425,1.425,0,0,1,1.12.536c.405.56.389,1.561-.048,2.888-.667,2.022-.723,3.087-.195,3.556a.866.866,0,0,0,.866.155c.242-.056.473-.1.691-.139l.052-.012c1.22-.266,3.4-.429,4.163.262a1.143,1.143,0,0,1,.135,1.45.531.531,0,0,0,.1.691,1.5,1.5,0,0,1,.441.926A1.475,1.475,0,0,1,23.571,12.45Z" transform="translate(-6.675 0)" fill="#5c5c5c"/>
    </g>
  </g>
</svg>
