<svg id="Notification" xmlns="http://www.w3.org/2000/svg" width="13" height="16" viewBox="0 0 13 16">
  <path id="Notification-2" data-name="Notification" d="M6.1,15.973a2.706,2.706,0,0,1-1.31-.586,1.252,1.252,0,0,1-.532-.938c0-.4.353-.588.68-.667a18.975,18.975,0,0,1,3.094,0c.327.079.68.264.68.667a1.254,1.254,0,0,1-.531.939,2.718,2.718,0,0,1-1.31.585A2.923,2.923,0,0,1,6.485,16,2.683,2.683,0,0,1,6.1,15.973ZM2.878,12.6a3.411,3.411,0,0,1-2.217-1.13A2.973,2.973,0,0,1,0,9.564,2.778,2.778,0,0,1,.559,7.716a3.118,3.118,0,0,0,.813-2.28V5.1A4.634,4.634,0,0,1,2.353,2.01,5.316,5.316,0,0,1,6.466,0h.069a5.3,5.3,0,0,1,4.18,2.1,4.573,4.573,0,0,1,.914,3v.341a3.194,3.194,0,0,0,.812,2.28A2.775,2.775,0,0,1,13,9.564a2.973,2.973,0,0,1-.66,1.9,3.414,3.414,0,0,1-2.217,1.13c-1.2.107-2.4.2-3.622.2A30.487,30.487,0,0,1,2.878,12.6Z" fill="#222"/>
</svg>
