<svg xmlns="http://www.w3.org/2000/svg" width="13.387" height="13.387" viewBox="0 0 13.387 13.387">
  <g id="Send" transform="translate(0 0)">
    <path id="Send-2" data-name="Send" d="M8.872,13.387A1.29,1.29,0,0,1,7.81,12.84l-.061-.091L5.076,8.318.63,5.582A1.327,1.327,0,0,1,.849,3.215l.1-.034L11.7.054A1.339,1.339,0,0,1,12.073,0a1.325,1.325,0,0,1,1.282,1.608l-.025.1L10.142,12.441A1.316,1.316,0,0,1,8.872,13.387ZM9.34,3.516a.51.51,0,0,1,.3.1l.058.049a.518.518,0,0,1,.052.67l-.049.058L6.1,8.023l2.532,4.193a.282.282,0,0,0,.245.141.286.286,0,0,0,.257-.157l.021-.053L12.343,1.411a.294.294,0,0,0-.046-.262.29.29,0,0,0-.231-.118l-.03,0-.05.01L1.24,4.169a.288.288,0,0,0-.2.214.3.3,0,0,0,.086.287L1.17,4.7l4.2,2.587,3.6-3.624A.513.513,0,0,1,9.34,3.516Z" transform="translate(0 0)" fill="#4e4e4e"/>
  </g>
</svg>
