<svg xmlns="http://www.w3.org/2000/svg" width="20.302" height="16.156" viewBox="0 0 20.302 16.156">
  <g id="svgexport-6_-_2022-10-01T151249.717" data-name="svgexport-6 - 2022-10-01T151249.717" transform="translate(0.001 -46.994)">
    <g id="Group_7314" data-name="Group 7314" transform="translate(-0.001 46.994)">
      <g id="Group_7313" data-name="Group 7313" transform="translate(0 0)">
        <path id="Path_2676" data-name="Path 2676" d="M72.951,120.939l-7.241,5.969a.171.171,0,0,1-.006.038.173.173,0,0,0-.006.038v6.044a.818.818,0,0,0,.806.806h4.835V129h3.224v4.836H79.4a.819.819,0,0,0,.806-.806v-6.044a.177.177,0,0,0-.013-.075Z" transform="translate(-62.8 -117.678)" fill="#898c91"/>
        <path id="Path_2677" data-name="Path 2677" d="M20.161,54.864,17.4,52.573V47.435a.388.388,0,0,0-.4-.4H14.583a.388.388,0,0,0-.4.4V49.89l-3.073-2.569a1.562,1.562,0,0,0-1.914,0L.139,54.864A.366.366,0,0,0,0,55.135a.408.408,0,0,0,.088.3l.781.932a.429.429,0,0,0,.264.139.468.468,0,0,0,.3-.088l8.714-7.266,8.714,7.266a.388.388,0,0,0,.264.088h.038a.43.43,0,0,0,.264-.138l.781-.932a.408.408,0,0,0,.088-.3A.367.367,0,0,0,20.161,54.864Z" transform="translate(0.001 -46.994)" fill="#898c91"/>
      </g>
    </g>
  </g>
</svg>
