<svg xmlns="http://www.w3.org/2000/svg" width="20.096" height="21.54" viewBox="0 0 20.096 21.54">
  <g id="svgexport-6_-_2022-09-21T092345.679" data-name="svgexport-6 - 2022-09-21T092345.679" transform="translate(-2.011 -1.001)">
    <g id="megaphone" transform="translate(2.011 1.001)">
      <path id="Path_2636" data-name="Path 2636" d="M11.475,2.469a.718.718,0,0,0-1.142.172L5.814,11.176,3.351,13.639a2.864,2.864,0,0,0-.722,2.8,2.856,2.856,0,0,0,4.014,4.014,2.724,2.724,0,0,0,2.221-.286l1.85,1.849a1.795,1.795,0,0,0,2.538-2.538L11.475,17.7l.432-.432,8.536-4.519a.718.718,0,0,0,.172-1.142ZM3.86,19.224a1.433,1.433,0,0,1-.367-1.382L5.242,19.59a1.432,1.432,0,0,1-1.382-.366ZM6.4,18.716,4.367,16.685a1.438,1.438,0,0,1,0-2.031L6.4,12.623l4.062,4.062L8.429,18.716a1.437,1.437,0,0,1-2.031,0Zm5.839,1.777a.362.362,0,0,1,0,.507.365.365,0,0,1-.508,0L9.952,19.224l.508-.508ZM11.608,15.8,7.281,11.475l3.866-7.3,7.765,7.764Zm2.6-12.648V1.719a.718.718,0,0,1,1.436,0V3.155a.718.718,0,0,1-1.436,0Zm7.9,5.026a.718.718,0,0,1-.718.718H19.954a.718.718,0,1,1,0-1.436H21.39A.718.718,0,0,1,22.108,8.18ZM17.292,5.816a.718.718,0,0,1,0-1.015l1.436-1.436A.718.718,0,0,1,19.743,4.38L18.307,5.816a.718.718,0,0,1-1.015,0Z" transform="translate(-2.011 -1.001)" fill="#535252"/>
    </g>
  </g>
</svg>
