<svg id="Layer_1" enable-background="new 0 0 512 512" height="512" viewBox="0 0 512 512" width="512" xmlns="http://www.w3.org/2000/svg"><g><path d="m352.32 96.32c-88.18 0-159.68 71.5-159.68 159.68s71.5 159.68 159.68 159.68c88.19 0 159.68-71.5 159.68-159.68s-71.49-159.68-159.68-159.68zm0 198.97c-21.66 0-39.29-17.63-39.29-39.29s17.63-39.29 39.29-39.29c21.67 0 39.29 17.63 39.29 39.29s-17.62 39.29-39.29 39.29z" fill="#fe99a0"/><g><path d="m352.322 96.322c-5.214 0-10.367.258-15.453.747 80.933 7.774 144.226 75.961 144.226 158.931s-63.293 151.157-144.225 158.931c5.086.489 10.239.747 15.453.747 88.183 0 159.677-71.495 159.677-159.678 0-88.184-71.494-159.678-159.678-159.678z" fill="#fd8087"/></g><path d="m352.322 191.237c-35.71 0-64.764 29.053-64.764 64.763s29.053 64.763 64.764 64.763 64.764-29.053 64.764-64.763-29.054-64.763-64.764-64.763zm0 98.621c-18.699 0-33.858-15.159-33.858-33.858s15.158-33.858 33.858-33.858 33.858 15.159 33.858 33.858-15.159 33.858-33.858 33.858z" fill="#d9e7ec"/><path d="m337.899 434.221h-333.778c-2.276 0-4.121-1.845-4.121-4.121v-348.201c0-2.276 1.845-4.121 4.121-4.121h333.779c2.276 0 4.121 1.845 4.121 4.121v348.201c-.001 2.276-1.846 4.121-4.122 4.121z" fill="#f9f7f8"/><path d="m337.899 77.779h-30.905c2.276 0 4.121 1.845 4.121 4.121v348.201c0 2.276-1.845 4.121-4.121 4.121h30.905c2.276 0 4.121-1.845 4.121-4.121v-348.202c0-2.276-1.845-4.12-4.121-4.12z" fill="#efedef"/><path d="m30.905 399.195v-286.39c0-2.276 1.845-4.121 4.121-4.121h271.968c2.276 0 4.121 1.845 4.121 4.121v286.39c0 2.276-1.845 4.121-4.121 4.121h-271.968c-2.276 0-4.121-1.845-4.121-4.121z" fill="#d4f2f6"/><path d="m306.994 108.684h-30.905c2.276 0 4.121 1.845 4.121 4.121v286.39c0 2.276-1.845 4.121-4.121 4.121h30.905c2.276 0 4.121-1.845 4.121-4.121v-286.39c0-2.276-1.845-4.121-4.121-4.121z" fill="#a6e7f0"/><path d="m48.485 403.316s19.336-106.029 90.762-106.029 116.753 106.029 116.753 106.029z" fill="#86e8d0"/><path d="m139.246 297.286c-5.373 0-10.445.61-15.242 1.72 62.322 13.641 101.09 104.31 101.09 104.31h30.906s-45.328-106.03-116.754-106.03z" fill="#5de1c4"/><circle cx="220.439" cy="176.287" fill="#fece85" r="25.755"/></g></svg>