<svg height="512" viewBox="0 0 152 152" width="512" xmlns="http://www.w3.org/2000/svg"><g id="Layer_2" data-name="Layer 2"><g id="_11.moon_star" data-name="11.moon star"><path d="m121.86 0h-91.72a30.22 30.22 0 0 0 -30.14 30.14v91.72a30.22 30.22 0 0 0 30.14 30.14h91.72a30.22 30.22 0 0 0 30.14-30.14v-91.72a30.22 30.22 0 0 0 -30.14-30.14zm-44.13 41.93 2.15-3.93 2.12 3.93 4 2.15-4 2.15-2.15 3.93-2.15-3.93-3.9-2.15zm23.45 56.75c-5.59 8.38-13.28 13.53-23.31 15a2.16 2.16 0 0 0 -.55.27h-7.71c-.16-.09-.3-.25-.47-.27a31 31 0 0 1 -16.31-7.19c-9.78-8.39-13.73-19.11-11.72-31.85a32 32 0 0 1 10.75-19.31 33.64 33.64 0 0 1 14.51-7.41 4.28 4.28 0 0 0 .72-.34h1.82c.44.64.12 1.17-.23 1.72a32 32 0 0 0 -.71 33 30.14 30.14 0 0 0 21.2 15.08 31.87 31.87 0 0 0 11.15.1 1.18 1.18 0 0 1 1 .26 1.14 1.14 0 0 1 -.14.94zm2.73-28.58-4.09 7.49-4.1-7.49-7.48-4.1 7.48-4.1 4.1-7.48 4.09 7.48 7.49 4.1z"/></g></g></svg>