<?xml version="1.0" encoding="UTF-8"?>
<svg xmlns="http://www.w3.org/2000/svg" viewBox="0 0 152 152" width="512" height="512"><g id="Layer_2" data-name="Layer 2"><g id="_22.sun" data-name="22.sun"><path d="M121.86,0H30.14A30.22,30.22,0,0,0,0,30.14v91.72A30.22,30.22,0,0,0,30.14,152h91.72A30.22,30.22,0,0,0,152,121.86V30.14A30.22,30.22,0,0,0,121.86,0Zm-8.55,71.73L97.9,80a1.32,1.32,0,0,0-.36,2l11.7,13.12A1.32,1.32,0,0,1,108,97.34L91,93.62A1.3,1.3,0,0,0,89.39,95L90,112.64a1.29,1.29,0,0,1-2.31.85L77,99.52a1.29,1.29,0,0,0-2,0l-10.71,14a1.29,1.29,0,0,1-2.31-.85L62.61,95A1.3,1.3,0,0,0,61,93.62L44,97.34a1.32,1.32,0,0,1-1.23-2.17l11.7-13.12a1.32,1.32,0,0,0-.36-2L38.69,71.73a1.32,1.32,0,0,1,.43-2.46l17.27-2.43a1.31,1.31,0,0,0,1-1.79L50.84,48.66a1.3,1.3,0,0,1,1.89-1.61L67.5,56.46a1.28,1.28,0,0,0,1.92-.71l5.35-16.84a1.29,1.29,0,0,1,2.46,0l5.35,16.84a1.28,1.28,0,0,0,1.92.71l14.77-9.41a1.3,1.3,0,0,1,1.89,1.61L94.59,65.05a1.31,1.31,0,0,0,1,1.79l17.27,2.43A1.32,1.32,0,0,1,113.31,71.73Z"/><path d="M76,60.62A15.38,15.38,0,1,0,91.38,76,15.4,15.4,0,0,0,76,60.62Zm0,26.26A10.88,10.88,0,1,1,86.88,76,10.88,10.88,0,0,1,76,86.88Z"/></g></g></svg>
