<svg height="511pt" viewBox="0 -2 511.99963 511" width="511pt" xmlns="http://www.w3.org/2000/svg"><path d="m113.847656 45.859375-18.839844 187.328125h-57.089843l-37.792969-167.296875c-.429688-1.902344.269531-3.882813 1.789062-5.105469l74.714844-59.972656c.605469-.492188 1.488282-.390625 1.972656.226562l25.261719 32.132813zm0 0" fill="#ffa91e"/><path d="m511.875 65.890625-37.796875 167.296875h-57.085937l-18.839844-187.328125 10.992187-13.972656 24.253907-30.847657c.484374-.617187 1.367187-.71875 1.972656-.226562l74.714844 59.972656c1.519531 1.222656 2.21875 3.203125 1.789062 5.105469zm0 0" fill="#ffa91e"/><path d="m150.332031 62.785156v-35.148437c0-1.0625-1.148437-1.734375-2.074219-1.210938l-81.152343 45.828125c-1.753907.988282-2.761719 2.921875-2.570313 4.925782l14.882813 156.007812h57.082031" fill="#ffe671"/><path d="m113.847656 45.859375-18.839844 187.328125h-32.484374l-17.09375-163.535156c-.195313-2.015625.8125-3.945313 2.566406-4.933594l55.867187-31.546875zm0 0" fill="#ef9218"/><path d="m150.332031 62.785156v-35.148437c0-1.0625-1.148437-1.734375-2.074219-1.210938l-81.152343 45.828125c-1.753907.988282-2.761719 2.921875-2.570313 4.925782l14.882813 156.007812h57.082031" fill="#ffe671"/><path d="m466.21875 67.597656-16.578125 165.589844h-32.648437l-18.839844-187.328125 10.992187-13.972656 54.507813 30.777343c1.757812.988282 2.761718 2.917969 2.566406 4.933594zm0 0" fill="#ef9218"/><path d="m361.667969 62.785156v-35.148437c0-1.0625 1.148437-1.734375 2.074219-1.210938l81.152343 45.828125c1.753907.988282 2.761719 2.921875 2.570313 4.925782l-14.882813 156.007812h-57.082031" fill="#ffe671"/><path d="m375.144531 233.1875h-238.644531c-2.914062 0-5.277344-2.363281-5.277344-5.28125v-159.84375c0-2.914062 2.363282-5.277344 5.277344-5.277344h238.644531c2.914063 0 5.277344 2.363282 5.277344 5.277344v159.84375c0 2.917969-2.363281 5.28125-5.277344 5.28125zm0 0" fill="#48bbed"/><path d="m357.324219 215.914062h-203c-2.402344 0-4.347657-1.945312-4.347657-4.347656v-127.164062c0-2.398438 1.945313-4.34375 4.347657-4.34375h203c2.398437 0 4.34375 1.945312 4.34375 4.34375v127.167968c0 2.398438-1.945313 4.34375-4.34375 4.34375zm0 0" fill="#85dfff"/><path d="m.00390625 233.1875h511.99218775v59.933594h-511.99218775" fill="#354968"/><path d="m.00390625 233.1875v24.65625h450.51953175c19.484374 0 35.277343 15.792969 35.277343 35.277344h26.195313v-59.933594zm0 0" fill="#2a3a51"/><path d="m127.40625 337.800781c0 12.683594-10.285156 22.96875-22.96875 22.96875s-22.96875-10.285156-22.96875-22.96875c0-12.6875 10.285156-22.96875 22.96875-22.96875s22.96875 10.28125 22.96875 22.96875zm0 0" fill="#566591"/><path d="m52.558594 455v-82.957031c0-12.371094 10.027344-22.398438 22.398437-22.398438h57.601563c12.371094 0 22.398437 10.027344 22.398437 22.398438v82.957031" fill="#a82c56"/><path d="m229.804688 337.800781c0 12.683594-10.28125 22.96875-22.96875 22.96875-12.683594 0-22.96875-10.285156-22.96875-22.96875 0-12.6875 10.285156-22.96875 22.96875-22.96875 12.6875 0 22.96875 10.28125 22.96875 22.96875zm0 0" fill="#566591"/><path d="m154.957031 455v-82.957031c0-12.371094 10.03125-22.398438 22.402344-22.398438h57.597656c12.371094 0 22.402344 10.027344 22.402344 22.398438v82.957031" fill="#842448"/><path d="m332.203125 337.800781c0 12.683594-10.28125 22.96875-22.96875 22.96875-12.683594 0-22.964844-10.285156-22.964844-22.96875 0-12.6875 10.28125-22.96875 22.964844-22.96875 12.6875 0 22.96875 10.28125 22.96875 22.96875zm0 0" fill="#566591"/><path d="m257.359375 455v-82.957031c0-12.371094 10.027344-22.398438 22.398437-22.398438h57.601563c12.367187 0 22.398437 10.027344 22.398437 22.398438v82.957031" fill="#a82c56"/><path d="m434.601562 337.800781c0 12.683594-10.28125 22.96875-22.96875 22.96875-12.683593 0-22.964843-10.285156-22.964843-22.96875 0-12.6875 10.28125-22.96875 22.964843-22.96875 12.6875 0 22.96875 10.28125 22.96875 22.96875zm0 0" fill="#566591"/><path d="m359.757812 455v-82.957031c0-12.371094 10.027344-22.398438 22.398438-22.398438h57.601562c12.367188 0 22.398438 10.027344 22.398438 22.398438v82.957031" fill="#842448"/><path d="m74.847656 411.367188c0 12.6875-10.28125 22.96875-22.96875 22.96875-12.683594 0-22.964844-10.28125-22.964844-22.96875 0-12.683594 10.28125-22.964844 22.964844-22.964844 12.6875 0 22.96875 10.28125 22.96875 22.964844zm0 0" fill="#566591"/><path d="m.00390625 507.90625v-62.296875c0-12.367187 10.02734375-22.398437 22.39843775-22.398437h57.601562c12.367188 0 22.398438 10.027343 22.398438 22.398437v62.296875" fill="#e0365f"/><path d="m177.246094 411.367188c0 12.6875-10.28125 22.96875-22.964844 22.96875-12.6875 0-22.96875-10.28125-22.96875-22.96875 0-12.683594 10.28125-22.964844 22.96875-22.964844 12.683594 0 22.964844 10.28125 22.964844 22.964844zm0 0" fill="#566591"/><path d="m102.402344 507.90625v-62.296875c0-12.367187 10.027344-22.398437 22.398437-22.398437h57.601563c12.371094 0 22.398437 10.027343 22.398437 22.398437v62.296875" fill="#c4315b"/><path d="m279.648438 411.367188c0 12.6875-10.285157 22.96875-22.96875 22.96875-12.6875 0-22.96875-10.28125-22.96875-22.96875 0-12.683594 10.28125-22.964844 22.96875-22.964844 12.683593 0 22.96875 10.28125 22.96875 22.964844zm0 0" fill="#566591"/><path d="m204.800781 507.90625v-62.296875c0-12.367187 10.027344-22.398437 22.398438-22.398437h57.601562c12.371094 0 22.398438 10.027343 22.398438 22.398437v62.296875" fill="#e0365f"/><path d="m382.046875 411.367188c0 12.6875-10.285156 22.96875-22.96875 22.96875s-22.96875-10.28125-22.96875-22.96875c0-12.683594 10.285156-22.964844 22.96875-22.964844s22.96875 10.28125 22.96875 22.964844zm0 0" fill="#566591"/><path d="m307.199219 507.90625v-62.296875c0-12.367187 10.027343-22.398437 22.398437-22.398437h57.601563c12.371093 0 22.398437 10.027343 22.398437 22.398437v62.296875" fill="#c4315b"/><path d="m484.445312 411.367188c0 12.6875-10.285156 22.96875-22.96875 22.96875-12.683593 0-22.96875-10.28125-22.96875-22.96875 0-12.683594 10.285157-22.964844 22.96875-22.964844 12.683594 0 22.96875 10.28125 22.96875 22.964844zm0 0" fill="#566591"/><path d="m409.597656 507.90625v-62.296875c0-12.367187 10.027344-22.398437 22.398438-22.398437h57.601562c12.371094 0 22.398438 10.027343 22.398438 22.398437v62.296875" fill="#e0365f"/></svg>