<svg height="512" viewBox="0 0 128 128" width="512" xmlns="http://www.w3.org/2000/svg"><g id="_10._Gear" data-name="10. Gear"><circle cx="62" cy="66" fill="#e7efff" r="62"/><path d="m124 66c0 44.6-45.63 74.3-86.17 57.11a62 62 0 1 1 86.17-57.11z" fill="#e7efff"/><path d="m92.82 90-4.57 11.1a4 4 0 0 1 -5.25 2.14l-2.23-.92a4 4 0 0 0 -4.52 1.06 36.33 36.33 0 0 1 -2.77 2.78 4 4 0 0 0 -1.05 4.54l.93 2.22a4 4 0 0 1 -2.16 5.23l-11.07 4.62a4 4 0 0 1 -5.23-2.15l-.9-2.23a4 4 0 0 0 -4-2.45 36.79 36.79 0 0 1 -3.93 0 4 4 0 0 0 -3.94 2.47l-.91 2.22a4 4 0 0 1 -3.43 2.47 61.84 61.84 0 0 1 -15.29-9.29 16.29 16.29 0 0 1 1.14-3 4 4 0 0 0 -1.06-4.52 36.33 36.33 0 0 1 -2.78-2.77 4 4 0 0 0 -4.54-1.05c-2.14.9-2.35 1-2.64 1.08a61.34 61.34 0 0 1 -9.16-17c.83-1.43 2-1.7 4.11-2.56a4 4 0 0 0 2.45-4 36.79 36.79 0 0 1 0-3.93 4 4 0 0 0 -2.47-3.94l-2.22-.91a4 4 0 0 1 -2.15-5.21l4.57-11.1a4 4 0 0 1 5.25-2.14l2.23.92a4 4 0 0 0 4.52-1.06 36.33 36.33 0 0 1 2.77-2.78 4 4 0 0 0 1.05-4.54l-.93-2.22a4 4 0 0 1 2.16-5.23l11.07-4.62a4 4 0 0 1 5.23 2.15l.9 2.23a4 4 0 0 0 4 2.45 36.79 36.79 0 0 1 3.93 0 4 4 0 0 0 3.94-2.47l.91-2.22a4 4 0 0 1 5.22-2.19l11.1 4.57a4 4 0 0 1 2.14 5.25l-.92 2.23a4 4 0 0 0 1.06 4.52 36.33 36.33 0 0 1 2.78 2.77 4 4 0 0 0 4.54 1l2.22-.93a4 4 0 0 1 5.23 2.16l4.62 11.07a4 4 0 0 1 -2.15 5.23l-2.23.95a4 4 0 0 0 -2.45 4 36.79 36.79 0 0 1 0 3.93 4 4 0 0 0 2.47 3.94l2.22.91a4 4 0 0 1 2.19 5.22z" fill="#323fd4"/><circle cx="48" cy="78" fill="#4e6aff" r="26"/><circle cx="48" cy="78" fill="#e7efff" r="18"/><path d="m128 30v-8a2 2 0 0 0 -2-2h-1.38a2 2 0 0 1 -1.88-1.32 23 23 0 0 0 -.89-2.17 2 2 0 0 1 .39-2.26l1-1a2 2 0 0 0 0-2.83l-5.65-5.65a2 2 0 0 0 -2.83 0l-1 1a2 2 0 0 1 -2.26.39 23 23 0 0 0 -2.17-.89 2 2 0 0 1 -1.33-1.89v-1.38a2 2 0 0 0 -2-2h-8a2 2 0 0 0 -2 2v1.38a2 2 0 0 1 -1.32 1.88 23 23 0 0 0 -2.17.89 2 2 0 0 1 -2.26-.39l-1-1a2 2 0 0 0 -2.83 0l-5.65 5.65a2 2 0 0 0 0 2.83l1 1a2 2 0 0 1 .39 2.26 23 23 0 0 0 -.89 2.17 2 2 0 0 1 -1.89 1.33h-1.38a2 2 0 0 0 -2 2v8a2 2 0 0 0 2 2h1.38a2 2 0 0 1 1.88 1.32 23 23 0 0 0 .89 2.17 2 2 0 0 1 -.39 2.26l-1 1a2 2 0 0 0 0 2.83l5.65 5.65a2 2 0 0 0 2.83 0l1-1a2 2 0 0 1 2.26-.39 23 23 0 0 0 2.17.89 2 2 0 0 1 1.33 1.89v1.38a2 2 0 0 0 2 2h8a2 2 0 0 0 2-2v-1.38a2 2 0 0 1 1.32-1.88 23 23 0 0 0 2.17-.89 2 2 0 0 1 2.26.39l1 1a2 2 0 0 0 2.83 0l5.65-5.65a2 2 0 0 0 0-2.83l-1-1a2 2 0 0 1 -.39-2.26 23 23 0 0 0 .89-2.17 2 2 0 0 1 1.89-1.33h1.38a2 2 0 0 0 2-2z" fill="#ffa100"/><circle cx="102" cy="26" fill="#e7efff" r="10"/><circle cx="33" cy="19" fill="#ffa100" r="3"/><circle cx="119" cy="109" fill="#ffa100" r="3"/><g fill="#00c99f"><circle cx="115" cy="65" r="3"/><circle cx="13" cy="113" r="3"/></g></g></svg>