<svg id="Layer_1" enable-background="new 0 0 512 512" viewBox="0 0 512 512" xmlns="http://www.w3.org/2000/svg"><g><g fill="#a2aae2"><path d="m467.463 230.889-57.829 15.218c-3.907 1.028-3.907 6.574 0 7.602l57.829 15.218c1.884.496 3.727-.925 3.727-2.873v-32.293c0-1.946-1.843-3.367-3.727-2.872z"/><path d="m454.341 307.773-58.217-13.661c-3.933-.923-6.532 3.976-3.563 6.715l43.951 40.548c1.432 1.321 3.726.93 4.639-.791l15.136-28.526c.912-1.721-.05-3.84-1.946-4.285z"/><path d="m407.101 373.749-43.36-41.179c-2.929-2.782-7.646.135-6.466 3.999l17.474 57.188c.569 1.863 2.747 2.683 4.404 1.659l27.465-16.985c1.657-1.025 1.896-3.34.483-4.682z"/></g><path d="m112.419 412.688-32.7 13.477c-18.705 7.709-40.117-1.205-47.826-19.91l-21.619-52.456c-7.709-18.705 1.205-40.117 19.91-47.826l32.7-13.477z" fill="#dd636e"/><path d="m58.783 293.307h30v130h-30z" fill="#da4a54" transform="matrix(.925 -.381 .381 .925 -130.966 55.147)"/><path d="m86.519 281.876h30v130h-30z" fill="#ffd064" transform="matrix(.925 -.381 .381 .925 -124.517 64.854)"/><path d="m295.455 423.779c-7.659 3.157-16.427-.493-19.584-8.153l-99.073-240.384c-3.157-7.659.493-16.427 8.153-19.584 7.659-3.157 16.427.493 19.584 8.153l99.073 240.384c3.156 7.659-.494 16.427-8.153 19.584z" fill="#dd636e"/><path d="m289.26 303.547-19.948 17.438-30.484-73.964 26.442-1.681c9.397-.597 18.131 4.856 21.719 13.562l8.127 19.718c3.588 8.706 1.234 18.73-5.856 24.927z" fill="#a2aae2"/><path d="m169.01 497.524-11.954 4.927c-13.82 5.696-29.64-.89-35.336-14.71l-27.792-67.432 46.228-19.052 34.292 83.205c2.106 5.108-.329 10.957-5.438 13.062z" fill="#5490f9"/><path d="m172.575 429.717-17.686 7.289-14.734-35.749 27.737-11.431 10.591 25.699c2.289 5.549-.357 11.904-5.908 14.192z" fill="#dd636e"/><path d="m273.584 410.079-133.428-8.823-49.536-120.192 88.464-100.275z" fill="#ecf4ff"/><path d="m156.968 205.858 83.259 202.015 33.357 2.206-94.5-229.29z" fill="#ddeafb"/><path d="m504.5 34.167v119.957c0 14.728-11.939 26.667-26.667 26.667h-98.737c-1.813 0-3.594.476-5.165 1.379l-51.131 29.4c-2.034 1.17-4.547-.42-4.361-2.759l1.585-19.912c.348-4.37-3.105-8.108-7.488-8.108h-126.369c-14.728 0-26.667-11.939-26.667-26.667v-119.957c0-14.728 11.939-26.667 26.667-26.667h291.667c14.727 0 26.666 11.939 26.666 26.667z" fill="#ecf4ff"/><g><path d="m477.833 7.5h-30c14.728 0 26.667 11.939 26.667 26.667v119.957c0 14.728-11.939 26.667-26.667 26.667h30c14.728 0 26.667-11.939 26.667-26.667v-119.957c0-14.728-11.939-26.667-26.667-26.667z" fill="#ddeafb"/></g><g><path d="m227.617 62.706v49.968c0 1.927-.985 3.67-2.571 4.55-2.505 1.393-5.364-.653-6.478-1.598-3.158-2.68-7.891-2.292-10.571.865-2.68 3.158-2.293 7.891.865 10.571 3.68 3.123 8.862 5.644 14.458 5.644 2.94 0 5.996-.696 9.005-2.367 6.348-3.523 10.292-10.292 10.292-17.666v-49.967c0-4.142-3.358-7.5-7.5-7.5s-7.5 3.358-7.5 7.5z"/><path d="m362.559 55.206h-18.16c-4.143 0-7.5 3.358-7.5 7.5v62.519c0 1.995.795 3.908 2.209 5.315 1.405 1.4 3.308 2.185 5.291 2.185h.033c.002 0 16.697-.075 21.298-.075 13.415 0 24.328-10.914 24.328-24.328 0-7.742-3.639-14.645-9.292-19.104 2.321-3.474 3.678-7.644 3.678-12.127 0-12.067-9.818-21.885-21.885-21.885zm0 15c3.797 0 6.886 3.089 6.886 6.886 0 3.796-3.089 6.885-6.886 6.885-1.341 0-3.871.007-6.626.017h-4.034v-13.788zm3.17 47.444c-2.54 0-8.755.022-13.831.043v-18.683c1.335-.005 2.727-.011 4.066-.015h9.765c5.144 0 9.328 4.185 9.328 9.328s-4.184 9.327-9.328 9.327z"/><path d="m417.805 70.869c8.972-2.701 17.265 3.85 17.495 4.036 3.171 2.631 7.875 2.212 10.53-.946 2.665-3.171 2.256-7.902-.915-10.567-.585-.491-14.516-11.981-31.437-6.885-8.512 2.564-14.533 9.269-15.715 17.497-1.107 7.713 2.236 15.132 8.725 19.362.331.216.679.405 1.04.566s8.961 3.99 18.647 7.562c2.815 1.039 9.271 3.981 8.398 8.862-.646 3.622-5.024 7.368-11.231 7.368-6.301 0-12.368-2.543-16.229-6.804-2.783-3.071-7.525-3.301-10.594-.521-3.069 2.782-3.303 7.525-.521 10.594 6.657 7.346 16.879 11.731 27.344 11.731 13.022 0 23.957-8.298 25.998-19.731 1.534-8.592-2.382-19.821-17.974-25.572-7.732-2.852-14.927-5.959-17.078-6.902-1.861-1.468-1.8-3.529-1.678-4.385.168-1.162 1.009-4.004 5.195-5.265z"/><path d="m250.998 93.965c0 21.372 17.388 38.76 38.76 38.76s38.759-17.388 38.759-38.76-17.387-38.759-38.759-38.759-38.76 17.387-38.76 38.759zm62.519 0c0 13.101-10.658 23.76-23.759 23.76-13.102 0-23.76-10.659-23.76-23.76s10.658-23.759 23.76-23.759c13.1 0 23.759 10.658 23.759 23.759z"/><path d="m477.834 0h-31.165c-4.142 0-7.5 3.358-7.5 7.5s3.357 7.5 7.5 7.5h31.165c10.568 0 19.166 8.598 19.166 19.166v119.954c0 10.568-8.598 19.166-19.166 19.166h-98.734c-3.12 0-6.198.822-8.903 2.377l-43.586 25.062.895-11.236c.331-4.163-1.103-8.309-3.937-11.377-2.833-3.067-6.851-4.826-11.027-4.826h-126.366c-10.568 0-19.166-8.598-19.166-19.166v-119.954c0-10.568 8.598-19.166 19.166-19.166h225.494c4.142 0 7.5-3.358 7.5-7.5s-3.357-7.5-7.5-7.5h-225.494c-18.839 0-34.166 15.327-34.166 34.166v119.954c0 11.922 6.142 22.431 15.424 28.545l-81.273 92.123-26.124 10.767-32.699 13.477c-10.898 4.491-19.395 12.958-23.925 23.84-4.53 10.883-4.551 22.878-.06 33.776l21.619 52.455c7.012 17.015 23.504 27.315 40.858 27.315 5.592 0 11.276-1.07 16.759-3.33l7.274-2.998 24.933 60.497c3.518 8.536 10.149 15.191 18.673 18.739 4.281 1.782 8.781 2.673 13.282 2.673 4.461 0 8.923-.875 13.172-2.626l11.954-4.927c8.924-3.678 13.192-13.93 9.514-22.854l-16.7-40.521 10.751-4.431c4.537-1.87 8.074-5.394 9.96-9.924s1.894-9.523.025-14.06l-.381-.925 83.391 5.514.507 1.23c5.508 13.737 20.943 15.195 29.374 12.228 12.133-4.269 16.91-18.38 12.23-29.376l-6.831-16.574c-1.579-3.83-5.962-5.654-9.792-4.076s-5.655 5.962-4.077 9.792c0 0 6.828 16.566 6.831 16.574 1.557 3.779-.314 8.242-4.077 9.792-3.819 1.577-8.215-.252-9.791-4.076l-92.514-224.473 16.224.002s70.11 170.112 70.148 170.204c1.502 3.643 6.123 5.589 9.792 4.076 3.83-1.578 5.655-5.962 4.077-9.792l-12.236-29.689 15.902-13.901c9.511-8.315 12.667-21.75 7.853-33.43l-8.127-19.718c-4.814-11.681-16.53-18.992-29.128-18.189l-21.079 1.34-20.978-50.9 89.808.009-1.585 19.911c-.308 3.866 1.536 7.555 4.813 9.629 3.195 2.021 7.495 2.106 10.762.228l51.13-29.4c.434-.249.927-.381 1.427-.381h98.734c18.839 0 34.166-15.327 34.166-34.166v-119.953c0-18.839-15.327-34.166-34.166-34.166zm-228.074 253.835 15.993-1.017c6.203-.391 11.944 3.196 14.308 8.935l8.127 19.718c2.365 5.738.815 12.338-3.857 16.422l-12.066 10.548-15.26-37.026zm-163.205 37.014 43.819 106.322-13.868 5.715-43.819-106.321zm-9.682 128.372c-14.852 6.12-31.913-.982-38.034-15.833l-21.619-52.455c-6.12-14.851.982-31.912 15.833-38.033l25.765-10.619 21.91 53.161 21.91 53.161zm89.289 71.358-11.954 4.927c-4.831 1.992-10.149 1.982-14.974-.026-4.825-2.009-8.578-5.776-10.57-10.608l-24.933-60.497 32.358-13.336 3.663 8.888 27.77 67.381c.528 1.277-.083 2.744-1.36 3.271zm5.397-72.207c.463 1.123.196 2.099-.005 2.58-.2.481-.704 1.358-1.828 1.821l-10.751 4.431-7.286-17.678 16.678 1.103zm-26.238-24.3-45.976-111.555 77.405-87.738 85.318 207.012z"/><path d="m474.61 225.469c-2.592-1.998-5.895-2.664-9.058-1.832l-57.828 15.218c-5.097 1.341-8.521 5.784-8.521 11.054s3.425 9.713 8.521 11.054l57.83 15.219c.893.234 1.795.35 2.689.35 2.279 0 4.507-.75 6.367-2.184 2.592-1.998 4.078-5.02 4.078-8.292v-32.293c.001-3.273-1.485-6.296-4.078-8.294zm-10.921 34.711-39.03-10.271 39.03-10.271zm5.674-22.035.008-.002h.002c-.004 0-.007.001-.01.002z"/><path d="m456.056 300.471c-.001 0-.001 0 0 0l-58.218-13.662c-5.138-1.205-10.239 1.115-12.709 5.771s-1.526 10.185 2.347 13.758l43.95 40.548c1.96 1.808 4.466 2.778 7.072 2.778.593 0 1.19-.05 1.788-.152 3.226-.55 5.955-2.523 7.489-5.415l15.136-28.525c1.534-2.891 1.638-6.257.285-9.236s-3.955-5.117-7.14-5.865zm-18.777 31.407-29.663-27.366 39.291 9.22z"/><path d="m412.267 368.311-43.36-41.179c-3.822-3.63-9.4-4.207-13.885-1.433-4.482 2.772-6.459 8.021-4.919 13.062l17.474 57.189c.957 3.129 3.261 5.585 6.323 6.738 1.207.455 2.46.68 3.705.68 1.912 0 3.808-.53 5.494-1.573l27.465-16.986c2.782-1.721 4.571-4.575 4.907-7.83s-.832-6.414-3.204-8.668c0 .001 0 .001 0 0zm-32.062 17.636-11.794-38.598 29.266 27.792z"/></g></g><g/><g/><g/><g/><g/><g/><g/><g/><g/><g/><g/><g/><g/><g/><g/></svg>