<svg height="512" viewBox="0 0 64 64" width="512" xmlns="http://www.w3.org/2000/svg"><g id="_14-Gift" data-name="14-Gift"><path d="m40 25h18v34a4 4 0 0 1 -4 4h-15v-38z" fill="#ffad39"/><path d="m25 25v38h-15a4 4 0 0 1 -4-4v-34z" fill="#ffad39"/><path d="m24 13v12h-21a2.006 2.006 0 0 1 -2-2v-8a2.006 2.006 0 0 1 2-2z" fill="#febd55"/><path d="m63 15v8a2.006 2.006 0 0 1 -2 2h-21v-12h21a2.006 2.006 0 0 1 2 2z" fill="#febd55"/><path d="m37 11v2h-10v-2a2.006 2.006 0 0 1 2-2h6a2.006 2.006 0 0 1 2 2z" fill="#cb3541"/><path d="m35 11h-6a2 2 0 0 1 -1.721-1 1.975 1.975 0 0 0 -.279 1v2h10v-2a1.975 1.975 0 0 0 -.279-1 2 2 0 0 1 -1.721 1z" fill="#a81e29"/><path d="m27 11v2h-15a2.938 2.938 0 0 1 -3-3c0-4 5-4 5-4a19.617 19.617 0 0 1 13 5z" fill="#e03e3e"/><path d="m19 1c8 0 8 10 8 10a19.617 19.617 0 0 0 -13-5s0-5 5-5z" fill="#cb3541"/><path d="m37 11s0-10 8-10c5 0 5 5 5 5a19.617 19.617 0 0 0 -13 5z" fill="#cb3541"/><path d="m37 11a19.617 19.617 0 0 1 13-5s5 0 5 4a2.938 2.938 0 0 1 -3 3h-15z" fill="#e03e3e"/><path d="m25 25h14v38h-14z" fill="#cb3541"/><path d="m40 13v12h-1-14-1v-12h3 10z" fill="#ff6161"/><path d="m60.63 42.28c.21.95 2.37 1.7 2.37 2.72s-2.16 1.77-2.37 2.72c-.22.98 1.4 2.62.99 3.5-.43.9-2.69.62-3.3 1.4s.17 2.97-.59 3.59-2.68-.64-3.56-.2c-.86.43-1.1 2.75-2.05 2.97-.93.22-2.13-1.76-3.12-1.76s-2.19 1.98-3.12 1.76c-.95-.22-1.19-2.54-2.06-2.97s-2.8.82-3.55.2.01-2.82-.6-3.59-2.86-.5-3.29-1.4c-.41-.88 1.21-2.52.99-3.5-.21-.95-2.37-1.7-2.37-2.72s2.16-1.77 2.37-2.72c.22-.98-1.4-2.62-.99-3.5.43-.9 2.69-.62 3.3-1.4s-.17-2.97.59-3.59 2.68.64 3.56.2c.86-.43 1.1-2.75 2.05-2.97.93-.22 2.13 1.76 3.12 1.76s2.19-1.98 3.12-1.76c.95.22 1.19 2.54 2.06 2.97s2.8-.82 3.55-.2-.01 2.82.6 3.59 2.86.5 3.29 1.4c.41.88-1.21 2.52-.99 3.5z" fill="#cb3541"/><path d="m60 45c0 .8-1.7 1.391-1.863 2.137-.171.772 1.1 2.058.775 2.754s-2.112.486-2.586 1.093.128 2.338-.467 2.825-2.1-.5-2.793-.159-.866 2.162-1.618 2.337c-.729.17-1.669-1.389-2.448-1.389s-1.719 1.559-2.448 1.389c-.753-.175-.939-2-1.618-2.337s-2.2.644-2.793.159.008-2.215-.468-2.825-2.253-.384-2.586-1.094.947-1.982.776-2.753c-.163-.747-1.863-1.337-1.863-2.137s1.7-1.391 1.863-2.137c.171-.772-1.1-2.058-.775-2.754s2.112-.486 2.586-1.093-.128-2.338.467-2.825 2.1.5 2.793.159.866-2.162 1.618-2.337c.729-.17 1.669 1.389 2.448 1.389s1.719-1.559 2.448-1.389c.753.175.939 2 1.618 2.337s2.2-.644 2.793-.159-.008 2.215.468 2.825 2.253.387 2.586 1.094-.947 1.982-.776 2.753c.163.747 1.863 1.337 1.863 2.137z" fill="#ff6161"/><path d="m52 53a3 3 0 1 1 3-3 3 3 0 0 1 -3 3zm0-4a1 1 0 1 0 1 1 1 1 0 0 0 -1-1z" fill="#fbfbfb"/><path d="m46 43a3 3 0 1 1 3-3 3 3 0 0 1 -3 3zm0-4a1 1 0 1 0 1 1 1 1 0 0 0 -1-1z" fill="#fbfbfb"/><path d="m44 51a1 1 0 0 1 -.707-1.707l10-10a1 1 0 0 1 1.414 1.414l-10 10a1 1 0 0 1 -.707.293z" fill="#fbfbfb"/><path d="m58 29v-4h-18-1v4z" fill="#e68c15"/><path d="m54 59h-15v4h15a4 4 0 0 0 4-4v-4a4 4 0 0 1 -4 4z" fill="#e68c15"/><path d="m11 41v-8a4 4 0 0 1 4-4h10v-4h-19v34a4 4 0 0 0 4 4h15v-4.461a18 18 0 0 1 -14-17.539z" fill="#e68c15"/><path d="m29 59a18.052 18.052 0 0 1 -4-.461v4.461h14v-4z" fill="#a81e29"/><path d="m25 25h14v4h-14z" fill="#a81e29"/><path d="m11.5 20a3.5 3.5 0 0 1 0-7h-8.5a2.006 2.006 0 0 0 -2 2v8a2.006 2.006 0 0 0 2 2h21v-5z" fill="#ffa930"/><path d="m61 20h-21v5h21a2.006 2.006 0 0 0 2-2v-5a2 2 0 0 1 -2 2z" fill="#ffa930"/><path d="m24 20v5h1 14 1v-5z" fill="#cb3541"/><path d="m23 6s-5.835-1.941-8.872-1.033a5.944 5.944 0 0 0 -.128 1.033 19.617 19.617 0 0 1 13 5s0-4.413-2.35-7.376c.003 1.265-.36 2.376-1.65 2.376z" fill="#a81e29"/><path d="m42 6c-1.66 0-1.787-1.837-1.571-3.479-3.429 2.798-3.429 8.479-3.429 8.479a19.617 19.617 0 0 1 13-5 6.036 6.036 0 0 0 -.172-1.234c-3.16-.32-7.828 1.234-7.828 1.234z" fill="#a81e29"/><path d="m22.878 8.781a1.008 1.008 0 0 1 -.978 1.219h-9.9a2 2 0 0 1 -2-2v-.537a3.428 3.428 0 0 0 -1 2.537 2.938 2.938 0 0 0 3 3h15v-2a17.888 17.888 0 0 0 -4.329-2.934 4.79 4.79 0 0 1 .207.715z" fill="#cb3541"/><path d="m53 10h-9.9a1.008 1.008 0 0 1 -.98-1.219 4.688 4.688 0 0 1 .47-1.281 18.727 18.727 0 0 0 -5.59 3.5v2h15a2.938 2.938 0 0 0 3-3 3.917 3.917 0 0 0 -.179-1.181 2 2 0 0 1 -1.821 1.181z" fill="#cb3541"/><path d="m50 32.3v-19.3h-2v19.3a1.283 1.283 0 0 0 2 0z" fill="#a81e29"/><path d="m36.38 51.22c-.41-.88 1.21-2.52.99-3.5-.21-.95-2.37-1.7-2.37-2.72s2.16-1.77 2.37-2.72c.162-.723-.674-1.8-.961-2.677-.832.5-2.648.379-3.029 1.177-.41.88 1.21 2.52.99 3.5-.21.95-2.37 1.7-2.37 2.72s2.16 1.77 2.37 2.72c.22.98-1.4 2.62-.99 3.5.43.9 2.69.62 3.29 1.4s-.16 2.97.6 3.59c.375.31 1.045.15 1.73-.033v-5.963c-.909-.305-2.293-.309-2.62-.994z" fill="#961b25"/><g fill="#e68c15"><path d="m45.88 58.98c-.95-.22-1.19-2.54-2.06-2.97s-2.8.82-3.55.2.01-2.82-.6-3.59a1.38 1.38 0 0 0 -.67-.406v5.963a2.982 2.982 0 0 1 1.82-.167 2.025 2.025 0 0 1 .743.99c.383.82.7 1.838 1.317 1.98.93.22 2.13-1.76 3.12-1.76s2.19 1.98 3.12 1.76c.615-.142.933-1.16 1.314-1.98a3.73 3.73 0 0 1 .364-.637c-.609-.511-1.237-1.143-1.8-1.143-.988 0-2.188 1.98-3.118 1.76z"/><path d="m55.071 55.959a1.5 1.5 0 0 0 -.9.051c-.562.281-.861 1.362-1.265 2.144.716.192 1.428.38 1.825.056.469-.383.354-1.371.34-2.251z"/><path d="m43.83 33.99a1.146 1.146 0 0 0 .376-.359c-.467-.389-.922-.707-1.326-.611-.329.076-.571.411-.785.826a2.8 2.8 0 0 0 1.735.144z"/><path d="m45.88 31.02a1.46 1.46 0 0 1 1.12.447v-6.467h-2v7.033c.237-.502.5-.925.88-1.013z"/></g><path d="m39 35.821c-.683-.182-1.351-.34-1.73-.031-.523.427-.327 1.6-.346 2.538.576-.255 1.436-.328 2.076-.54z" fill="#961b25"/></g></svg>