<?xml version="1.0" encoding="iso-8859-1"?>
<!-- Generator: Adobe Illustrator 19.0.0, SVG Export Plug-In . SVG Version: 6.00 Build 0)  -->
<svg version="1.1" id="Capa_1" xmlns="http://www.w3.org/2000/svg" xmlns:xlink="http://www.w3.org/1999/xlink" x="0px" y="0px"
	 viewBox="0 0 512 512" style="enable-background:new 0 0 512 512;" xml:space="preserve">
<path style="fill:#FF0F47;" d="M419.286,184.961C419.284,184.958,512,30.905,512,30.905c-13.999,0-26.352,0.846-37.471,2.326
	l-133.88,153.981l133.969,119.005c11.097-1.473,23.421-2.315,37.382-2.315L419.286,184.961z"/>
<path style="fill:#FF415D;" d="M474.529,33.232c-84.415,11.233-96.802,59.485-203.077,59.485
	c-120.274,0-120.274-61.811-240.547-61.811L10.302,167.404l20.604,136.499c120.274,0,120.274,61.811,240.547,61.811
	c106.313,0,118.67-48.286,203.165-59.497l-92.762-119.005L474.529,33.232z"/>
<rect style="fill:#FFA688;" width="30.905" height="512"/>
<g>
</g>
<g>
</g>
<g>
</g>
<g>
</g>
<g>
</g>
<g>
</g>
<g>
</g>
<g>
</g>
<g>
</g>
<g>
</g>
<g>
</g>
<g>
</g>
<g>
</g>
<g>
</g>
<g>
</g>
</svg>
