<svg clip-rule="evenodd" fill-rule="evenodd" height="512" image-rendering="optimizeQuality" shape-rendering="geometricPrecision" text-rendering="geometricPrecision" viewBox="0 0 1.70666 1.70666" width="512" xmlns="http://www.w3.org/2000/svg"><g id="Layer_x0020_1"><path d="m1.68656 1.58457h-1.12426c-.0110354 0-.0199961-.0089685-.0199961-.02v-.29126c0-.17161.139622-.311244.311244-.311244l.11135-.00000394c.00530709 0 .0103898.0021063.0141535.0058622l.145386.145417.145402-.145417c.00376378-.00374803.00884646-.0058622.0141496-.0058622h.11135c.17161 0 .311244.139638.311244.311244v.29126c-.00002756.0110433-.00898031.0200039-.0200236.0200039zm-1.10426-.0400118h1.08425v-.271248c0-.149571-.121685-.271236-.27124-.271236h-.103059l-.153681.153677c-.00782677.00780709-.0204803.00781496-.0282992 0l-.15365-.153677h-.103059c-.149571 0-.271248.121681-.271248.271236v.271248h-.00001575z"/><path d="m1.12442 1.36756c-.161732 0-.291953-.210898-.291969-.385488 0-.0109449.00879921-.0198622.0197441-.0199803l.112697-.00002756c.00530709 0 .0103858.00211024.0141496.0058622l.14539.145417.145402-.145417c.00376378-.00374803.00884252-.0058622.0141496-.0058622l.111354-.00000394c.0115906 0 .0211063.00959449.0211063.0200236-.00003937.174594-.130287.385476-.292024.385476zm-.251362-.365488c.00896063.152118.117697.325492.251378.325492s.242433-.173358.25139-.325492h-.0835591l-.153681.153677c-.00782677.00781102-.0204764.00781496-.0282992 0l-.153665-.153677h-.083563z"/><path d="m1.28396 1.00207c-.00873622 0-.0167638-.00577953-.019248-.0146102l-.0410354-.146331c-.00711811-.0253622.0314213-.036122.0385118-.0107874l.0410354.146335c.00359449.012815-.00609449.0253937-.0192638.0253937z"/><path d="m.964909 1.00207c-.0131693 0-.0228701-.0125945-.0192795-.0254016l.0391772-.139709c.00711811-.0253701.0456142-.0145394.0385118.0107874l-.0391772.139709c-.0024685.00883465-.0104921.0146142-.0192323.0146142z"/><path d="m1.17889.914161c-.0198071 0-.118224.00412205-.129043-.00403937-.0990315-.0747717-.165441-.190346-.203701-.274126-.00066142-.00146063-.0119488-.0553819.0181929-.0553819.0272677 0 .0184961.0358819.0199961.0427047.0358858.077689.0963543.182161.184343.25085l.103409-.00000394c.0881142-.0687835.148634-.173469.184512-.251197.00329921-.013811-.00766929-.0562677.0220787-.0554213.0260551.00074016.0187992.0348386.0177638.0608937-.00011024.00261024-.00072441.00519685-.00180709.00757087-.0382717.0837953-.104669.19937-.203685.274126-.00346457.00259055-.00770079.00402362-.0120591.00402362z"/><path d="m.864339.620591c-.0243465 0-.0874055-.0758465-.0504252-.263933.00137402-.00700394.0505236-.168087.268461-.192941.0569685-.00649606.191354.00590157.243307.113909.103685.0119252.103256.168098.071815.314094-.00460236.021374-.0359449.0207441-.039315-.00118898l-.0199291-.130224c-.0247323.0241929-.0656732.0519803-.127236.0593268-.0187047.00225591-.0296732-.0205276-.0168583-.0336496.00022047-.00022047.0141772-.0152638.0227992-.0354409-.0843622.0627283-.200697.0868937-.332614.0571181v.0929213c0 .0110709-.00903937.0200079-.0200039.0200079zm-.0113504-.255268c-.0110276.0569567-.0121063.100287-.00864961.132764 0-.0678543.0281142-.0176693.149543-.017685.155016 0 .230898-.0901614.231646-.0910748.020622-.0251614.0578583.0102362.0270945.0792165.0811969-.0313819.072874-.0810669.101744-.0762283.0196102.00329134.0182598.0282638.0222756.0545236.00168898-.0765276-.0212087-.134205-.0614685-.129642-.0089685.00101575-.0178622-.00403937-.0212047-.0124016-.0390197-.0975709-.167606-.108224-.207146-.101335-.185283.0220354-.230528.151508-.233835.161862z"/><path d="m1.12442 1.58457c-.0110394 0-.02-.0089685-.02-.02v-.422953c0-.0263268.0399961-.0263189.0399961 0v.422953c.00001575.0110394-.00895276.02-.0199961.02z"/><path d="m.534567.879665c-.00519685 0-.0102953-.00202362-.014126-.00583071l-.176591-.175957h-.271598c-.0398031 0-.0721732-.0323858-.0721732-.0721693v-.431433c0-.0397992.0323858-.0721693.0721732-.0721693l.601228-.00000787c.0398031 0 .0721693.0323858.0721693.0721732v.431413c0 .0398031-.0323819.0721732-.0721693.0721732l-.122303.00000394.00365354.161791c0 .0109134-.00858661.0200118-.0202638.0200118zm-.462315-.717571c-.017748 0-.0321772.0144449-.0321772.0321772v.431413c0 .017748.0144449.0321772.0321772.0321772l.279858.00000394c.00529134 0 .010374.00210236.014126.00583465l.147291.14676-.00276378-.132181c-.00023228-.0111969.00879528-.0204291.0199961-.0204291h.14272c.017748 0 .0321732-.0144449.0321732-.0321732l.00000787-.431402c0-.0177441-.0144449-.0321732-.0321772-.0321732l-.601232-.00000787z"/><path d="m.372874.60561c-.00512205 0-.0102323-.00195669-.0141339-.0058622-.0878268-.0878701-.206146-.153807-.206146-.265256 0-.112661.149681-.170736.220264-.065311.0705866-.105425.220268-.0473583.220268.065311 0 .111626-.118602.177504-.20613.265256-.00388583.00390551-.00901181.0058622-.014122.0058622zm-.100157-.351244c-.044189 0-.0801417.0359528-.0801417.0801417 0 .0864291.102098.148244.180283.223134.0781654-.074874.180287-.136689.180287-.223134 0-.044189-.0359528-.0801417-.0801417-.0801417-.0776535 0-.067374.0751024-.100146.0751024-.0327717 0-.0224724-.0751024-.100142-.0751024z"/><path d="m.738335 1.58457c-.0110394 0-.0199961-.0089685-.0199961-.02v-.253626c0-.0263268.0399921-.0263189.0399921 0v.253626c0 .0110394-.00895276.02-.0199961.02z"/><path d="m.738335 1.43458h-.176035c-.0263228 0-.0263228-.0399961 0-.0399961h.176035c.0263228 0 .0263268.0399961 0 .0399961z"/><path d="m1.51052 1.58457c-.0110394 0-.02-.0089685-.02-.02v-.253626c0-.0263268.0399961-.0263189.0399961 0v.253626c.00001181.0110394-.00895669.02-.0199961.02z"/><path d="m1.68657 1.43458h-.176051c-.0263268 0-.0263189-.0399961 0-.0399961h.176051c.0263228 0 .0263228.0399961 0 .0399961z"/><path d="m.372858.557642c.0781654-.074874.180287-.136689.180287-.223134 0-.044189-.0359528-.0801417-.0801417-.0801417-.0776535 0-.067374.0751024-.100146.0751024-.0327717 0-.0224724-.0751024-.100142-.0751024-.044189 0-.0801417.0359528-.0801417.0801417 0 .0864291.102098.148244.180283.223134z" fill="#fff"/><path d="m.593126.334492c0 .111626-.118602.177504-.20613.265256-.00388583.00390551-.00901181.0058622-.014122.0058622-.00512205 0-.0102323-.00195669-.0141339-.0058622-.0878268-.0878701-.206146-.153807-.206146-.265256 0-.112661.149681-.170736.220264-.065311.0705866-.105425.220268-.0473583.220268.065311zm-.0623661.323358h.14272c.017748 0 .0321732-.0144449.0321732-.0321732l.00000787-.431402c0-.0177441-.0144449-.0321732-.0321772-.0321732l-.601232-.00000787c-.017748 0-.0321772.0144449-.0321772.0321772v.431413c0 .017748.0144449.0321772.0321772.0321772l.279858.00000394c.00529134 0 .010374.00210236.014126.00583465l.147291.14676-.00276378-.132181c-.00023228-.0111969.00879528-.0204291.0199961-.0204291z" fill="#ff5f5f"/><path d="m.718338 1.434588h-.136024l-.00001575.109972h.136039v-.109972z" fill="#fdd7ad"/><path d="m.582315 1.39459h.136024v-.0836457c0-.0263268.0399921-.0263189.0399921 0v.233614h.346091v-.178071c-.146079-.0157244-.262075-.200909-.271366-.363646-.140028.0105157-.25074.127811-.25074.270469v.12128z" fill="#ff5f5f"/><path d="m1.14442 1.36648v.178071h.346106v-.233614c0-.0263268.0399961-.0263189.0399961 0v.0836457h.136031v-.12128c0-.142665-.110705-.259941-.250709-.270469-.00931102.162744-.125335.347925-.271425.363646z" fill="#ff5f5f"/><path d="m1.53052 1.43458v.10998h.13603v-.10998z" fill="#fdd7ad"/><path d="m1.14442 1.32627c.124394-.0161024.222902-.17972.231409-.324201h-.0835591l-.14785.147846v.176354z" fill="#ff9292"/><path d="m1.10442 1.32627v-.176386l-.147799-.147811h-.083563c.00850787.144449.106988.308067.231362.324197z" fill="#ff9292"/><path d="m.987303.976185.13713.137157.137126-.137142-.0285748-.101894c-.0132992.012689-.0273071.0247126-.0420354.0358307-.00346457.00259055-.00770079.00402362-.0120591.00402362-.0198071 0-.118224.00412205-.129043-.00403937-.0123898-.00935433-.0242717-.0193504-.0356496-.0298425l-.0268937.0959055z" fill="#fdd7ad"/><path d="m1.01987.829898c.0152165.0158268.0314803.0307441.048811.0442717l.103409-.00000394c.019626-.0153228.0378858-.0324252.0548071-.0506142.00048425-.00058661.001-.00114567.00154724-.00166929.058248-.0631417.100516-.139028.128157-.198913.00170472-.00714173-.00040158-.021937.00127559-.0344488l-.019622-.128213c-.0247323.0241929-.0656732.0519803-.127236.0593268-.0187047.00225591-.0296732-.0205276-.0168583-.0336496.00022047-.00022047.0141772-.0152638.0227992-.0354409-.0843622.0627283-.200697.0868937-.332614.0571181v.0929213c0 .00046457-.00001575.00092913-.00004724.00138583.00081102.00905512-.00064567.0182323.00003937.0213504.0285827.061878.0727559.140744.134012.204988.00053543.0005.00104331.0010315.00151969.00159055z" fill="#fdd7ad"/><path d="m.993882.480402c.155016 0 .230898-.0901614.231646-.0910748.020622-.0251614.0578583.0102362.0270945.0792165.0811969-.0313819.072874-.0810669.101744-.0762283.0196102.00329134.0182598.0282638.0222756.0545236.00168898-.0765276-.0212087-.134205-.0614685-.129642-.0089685.00101575-.0178622-.00403937-.0212047-.0124016-.0390197-.0975709-.167606-.108224-.207146-.101335-.185283.0220354-.230528.151508-.233835.161862-.0110276.0569567-.0121063.100287-.00864961.132764 0-.0678543.0281142-.0176693.149543-.017685z" fill="#754747"/></g></svg>