<svg xmlns="http://www.w3.org/2000/svg" width="18.296" height="15.243" viewBox="0 0 18.296 15.243">
  <path id="Icon_ionic-ios-share-alt" data-name="Icon ionic-ios-share-alt" d="M22.636,13.152,15.914,6.864a.344.344,0,0,0-.267-.114c-.21.01-.476.157-.476.381v3.153a.2.2,0,0,1-.171.2C8.316,11.5,5.5,16.506,4.505,21.7c-.038.2.238.4.367.233a12.148,12.148,0,0,1,10.1-5.116.236.236,0,0,1,.2.229v3.1a.409.409,0,0,0,.691.252L22.631,14a.526.526,0,0,0,.167-.4A.638.638,0,0,0,22.636,13.152Z" transform="translate(-4.502 -6.749)" fill="#fff"/>
</svg>
