<svg xmlns="http://www.w3.org/2000/svg" width="19.932" height="19.475" viewBox="0 0 19.932 19.475">
  <path id="Icon_ionic-ios-heart-empty" data-name="Icon ionic-ios-heart-empty" d="M16.479,3.937h-.043a4.9,4.9,0,0,0-4.1,2.242,4.9,4.9,0,0,0-4.1-2.242H8.2A4.874,4.874,0,0,0,3.375,8.809a10.493,10.493,0,0,0,2.061,5.72,36.109,36.109,0,0,0,6.906,6.651,36.109,36.109,0,0,0,6.906-6.651,10.493,10.493,0,0,0,2.061-5.72A4.874,4.874,0,0,0,16.479,3.937Zm1.793,9.88a33.063,33.063,0,0,1-5.931,5.845,33.112,33.112,0,0,1-5.932-5.85,9.3,9.3,0,0,1-1.828-5,3.657,3.657,0,0,1,3.63-3.66H8.25a3.614,3.614,0,0,1,1.772.466,3.767,3.767,0,0,1,1.31,1.229,1.211,1.211,0,0,0,2.026,0,3.8,3.8,0,0,1,1.31-1.229,3.614,3.614,0,0,1,1.772-.466h.039a3.657,3.657,0,0,1,3.63,3.66A9.417,9.417,0,0,1,18.273,13.818Z" transform="translate(-2.375 -2.938)" fill="#fff" stroke="#fff" stroke-width="2"/>
</svg>
