<svg xmlns="http://www.w3.org/2000/svg" width="18.558" height="14.5" viewBox="0 0 18.558 14.5">
  <path id="Icon_awesome-exchange-alt" data-name="Icon awesome-exchange-alt" d="M0,8v-.58a.87.87,0,0,1,.87-.87H13.918V4.807A.871.871,0,0,1,15.4,4.191l2.9,2.9a.87.87,0,0,1,0,1.23l-2.9,2.9a.871.871,0,0,1-1.485-.615V8.866H.87A.87.87,0,0,1,0,8Zm17.688,5.509H4.639v-1.74a.871.871,0,0,0-1.485-.615l-2.9,2.9a.87.87,0,0,0,0,1.23l2.9,2.9a.87.87,0,0,0,1.485-.615v-1.74H17.688a.87.87,0,0,0,.87-.87v-.58A.87.87,0,0,0,17.688,13.506Z" transform="translate(0 -3.936)" fill="#fff"/>
</svg>
