<svg xmlns="http://www.w3.org/2000/svg" width="17.5" height="17.5" viewBox="0 0 17.5 17.5">
  <g id="Icon_ionic-ios-chatbubbles" data-name="Icon ionic-ios-chatbubbles" transform="translate(-3.375 -3.375)">
    <path id="Path_10" data-name="Path 10" d="M21.416,14.843a1.019,1.019,0,0,1,.139-.513,1.417,1.417,0,0,1,.088-.13A6.816,6.816,0,0,0,22.8,10.4,7.156,7.156,0,0,0,15.5,3.375,7.257,7.257,0,0,0,8.333,8.966,6.76,6.76,0,0,0,8.177,10.4a7.136,7.136,0,0,0,7.194,7.114,8.664,8.664,0,0,0,1.986-.324c.475-.13.947-.3,1.069-.349a1.112,1.112,0,0,1,.391-.072,1.094,1.094,0,0,1,.425.084l2.385.846a.569.569,0,0,0,.164.042.335.335,0,0,0,.337-.337.54.54,0,0,0-.021-.114Z" transform="translate(-1.929)" fill="#fff"/>
    <path id="Path_11" data-name="Path 11" d="M14.754,21.694c-.151.042-.345.088-.555.135a7.764,7.764,0,0,1-1.43.189A7.136,7.136,0,0,1,5.575,14.9a7.953,7.953,0,0,1,.063-.9c.025-.181.055-.362.1-.538s.093-.379.147-.564l-.337.3a6.26,6.26,0,0,0-2.171,4.707,6.191,6.191,0,0,0,1.043,3.45c.1.147.151.261.135.337s-.5,2.608-.5,2.608a.337.337,0,0,0,.114.324.343.343,0,0,0,.215.076.3.3,0,0,0,.122-.025l2.36-.93a.657.657,0,0,1,.5.008,7.08,7.08,0,0,0,2.553.5,6.607,6.607,0,0,0,5.052-2.318s.135-.185.29-.4C15.108,21.593,14.931,21.648,14.754,21.694Z" transform="translate(0 -3.827)" fill="#fff"/>
  </g>
</svg>
