<svg xmlns="http://www.w3.org/2000/svg" width="14.627" height="14.37" viewBox="0 0 14.627 14.37">
  <path id="Path_10" data-name="Path 10" d="M21.416,14.843a1.019,1.019,0,0,1,.139-.513,1.417,1.417,0,0,1,.088-.13A6.816,6.816,0,0,0,22.8,10.4,7.156,7.156,0,0,0,15.5,3.375,7.257,7.257,0,0,0,8.333,8.966,6.76,6.76,0,0,0,8.177,10.4a7.136,7.136,0,0,0,7.194,7.114,8.664,8.664,0,0,0,1.986-.324c.475-.13.947-.3,1.069-.349a1.112,1.112,0,0,1,.391-.072,1.094,1.094,0,0,1,.425.084l2.385.846a.569.569,0,0,0,.164.042.335.335,0,0,0,.337-.337.54.54,0,0,0-.021-.114Z" transform="translate(-8.177 -3.375)" fill="#fff"/>
</svg>
