<svg width="375" height="450" viewBox="0 0 375 450" fill="none" xmlns="http://www.w3.org/2000/svg">
<g filter="url(#filter0_d_4004_26983)">
<g filter="url(#filter1_dd_4004_26983)">
<rect x="24" y="194" width="327" height="128" rx="16" fill="white"/>
<rect x="48" y="206" width="40" height="40" rx="12" fill="#887EF9"/>
<path d="M71.3334 223.292C70.9917 223.292 70.7084 223.008 70.7084 222.667V219.75C70.7084 218.85 70.1501 218.292 69.2501 218.292H66.7501C65.8501 218.292 65.2917 218.85 65.2917 219.75V222.667C65.2917 223.008 65.0084 223.292 64.6667 223.292C64.3251 223.292 64.0417 223.008 64.0417 222.667V219.75C64.0417 218.158 65.1584 217.042 66.7501 217.042H69.2501C70.8417 217.042 71.9584 218.158 71.9584 219.75V222.667C71.9584 223.008 71.6751 223.292 71.3334 223.292Z" fill="url(#paint0_linear_4004_26983)"/>
<path d="M64.6666 230.817C64.325 230.817 64.0416 230.533 64.0416 230.192C64.0416 229.842 64.325 229.567 64.6666 229.567H74.4666C74.7166 229.567 74.9083 229.35 74.8833 229.1L74.3166 224.358C74.1166 222.742 73.8333 221.417 71 221.417H65C62.1666 221.417 61.8833 222.742 61.6916 224.358L60.9416 230.608C60.7 232.658 61.3333 234.333 64.2583 234.333H71.7416C74.375 234.333 75.15 232.975 75.1083 231.208C75.1 230.983 74.9166 230.817 74.6916 230.817H64.6666Z" fill="url(#paint1_linear_4004_26983)"/>
<rect opacity="0.8" x="104" y="212" width="223" height="28" rx="14" fill="#E2E8F0"/>
<rect x="48" y="258" width="279" height="20" rx="10" fill="#F1F5F9"/>
<rect x="48" y="290" width="279" height="20" rx="10" fill="#F1F5F9"/>
</g>
<g filter="url(#filter2_dd_4004_26983)">
<rect x="24" y="46" width="327" height="128" rx="16" fill="white"/>
<rect x="48" y="58" width="40" height="40" rx="12" fill="#F97E7E"/>
<path d="M72.1667 69.6666H63.8334C61.5334 69.6666 59.6667 71.525 59.6667 73.8166V78.8V79.6333C59.6667 81.925 61.5334 83.7833 63.8334 83.7833H65.0834C65.3084 83.7833 65.6084 83.9333 65.7501 84.1166L67.0001 85.775C67.5501 86.5083 68.4501 86.5083 69.0001 85.775L70.2501 84.1166C70.4084 83.9083 70.6584 83.7833 70.9167 83.7833H72.1667C74.4667 83.7833 76.3334 81.925 76.3334 79.6333V73.8166C76.3334 71.525 74.4667 69.6666 72.1667 69.6666ZM64.6667 78C64.2001 78 63.8334 77.625 63.8334 77.1666C63.8334 76.7083 64.2084 76.3333 64.6667 76.3333C65.1251 76.3333 65.5001 76.7083 65.5001 77.1666C65.5001 77.625 65.1334 78 64.6667 78ZM68.0001 78C67.5334 78 67.1667 77.625 67.1667 77.1666C67.1667 76.7083 67.5417 76.3333 68.0001 76.3333C68.4584 76.3333 68.8334 76.7083 68.8334 77.1666C68.8334 77.625 68.4667 78 68.0001 78ZM71.3334 78C70.8667 78 70.5001 77.625 70.5001 77.1666C70.5001 76.7083 70.8751 76.3333 71.3334 76.3333C71.7917 76.3333 72.1667 76.7083 72.1667 77.1666C72.1667 77.625 71.8001 78 71.3334 78Z" fill="url(#paint2_linear_4004_26983)"/>
<rect opacity="0.8" x="104" y="64" width="223" height="28" rx="14" fill="#E2E8F0"/>
<rect x="48" y="110" width="279" height="20" rx="10" fill="#F1F5F9"/>
<rect x="48" y="142" width="279" height="20" rx="10" fill="#F1F5F9"/>
</g>
</g>
<defs>
<filter id="filter0_d_4004_26983" x="20" y="46" width="335" height="284" filterUnits="userSpaceOnUse" color-interpolation-filters="sRGB">
<feFlood flood-opacity="0" result="BackgroundImageFix"/>
<feColorMatrix in="SourceAlpha" type="matrix" values="0 0 0 0 0 0 0 0 0 0 0 0 0 0 0 0 0 0 127 0" result="hardAlpha"/>
<feOffset dy="4"/>
<feGaussianBlur stdDeviation="2"/>
<feComposite in2="hardAlpha" operator="out"/>
<feColorMatrix type="matrix" values="0 0 0 0 0 0 0 0 0 0 0 0 0 0 0 0 0 0 0.25 0"/>
<feBlend mode="normal" in2="BackgroundImageFix" result="effect1_dropShadow_4004_26983"/>
<feBlend mode="normal" in="SourceGraphic" in2="effect1_dropShadow_4004_26983" result="shape"/>
</filter>
<filter id="filter1_dd_4004_26983" x="-40" y="148" width="455" height="302" filterUnits="userSpaceOnUse" color-interpolation-filters="sRGB">
<feFlood flood-opacity="0" result="BackgroundImageFix"/>
<feColorMatrix in="SourceAlpha" type="matrix" values="0 0 0 0 0 0 0 0 0 0 0 0 0 0 0 0 0 0 127 0" result="hardAlpha"/>
<feOffset dy="64"/>
<feGaussianBlur stdDeviation="32"/>
<feComposite in2="hardAlpha" operator="out"/>
<feColorMatrix type="matrix" values="0 0 0 0 0 0 0 0 0 0 0 0 0 0 0 0 0 0 0.06 0"/>
<feBlend mode="normal" in2="BackgroundImageFix" result="effect1_dropShadow_4004_26983"/>
<feColorMatrix in="SourceAlpha" type="matrix" values="0 0 0 0 0 0 0 0 0 0 0 0 0 0 0 0 0 0 127 0" result="hardAlpha"/>
<feOffset dy="-6"/>
<feGaussianBlur stdDeviation="20"/>
<feComposite in2="hardAlpha" operator="out"/>
<feColorMatrix type="matrix" values="0 0 0 0 0 0 0 0 0 0 0 0 0 0 0 0 0 0 0.04 0"/>
<feBlend mode="normal" in2="effect1_dropShadow_4004_26983" result="effect2_dropShadow_4004_26983"/>
<feBlend mode="normal" in="SourceGraphic" in2="effect2_dropShadow_4004_26983" result="shape"/>
</filter>
<filter id="filter2_dd_4004_26983" x="-40" y="0" width="455" height="302" filterUnits="userSpaceOnUse" color-interpolation-filters="sRGB">
<feFlood flood-opacity="0" result="BackgroundImageFix"/>
<feColorMatrix in="SourceAlpha" type="matrix" values="0 0 0 0 0 0 0 0 0 0 0 0 0 0 0 0 0 0 127 0" result="hardAlpha"/>
<feOffset dy="64"/>
<feGaussianBlur stdDeviation="32"/>
<feComposite in2="hardAlpha" operator="out"/>
<feColorMatrix type="matrix" values="0 0 0 0 0 0 0 0 0 0 0 0 0 0 0 0 0 0 0.06 0"/>
<feBlend mode="normal" in2="BackgroundImageFix" result="effect1_dropShadow_4004_26983"/>
<feColorMatrix in="SourceAlpha" type="matrix" values="0 0 0 0 0 0 0 0 0 0 0 0 0 0 0 0 0 0 127 0" result="hardAlpha"/>
<feOffset dy="-6"/>
<feGaussianBlur stdDeviation="20"/>
<feComposite in2="hardAlpha" operator="out"/>
<feColorMatrix type="matrix" values="0 0 0 0 0 0 0 0 0 0 0 0 0 0 0 0 0 0 0.04 0"/>
<feBlend mode="normal" in2="effect1_dropShadow_4004_26983" result="effect2_dropShadow_4004_26983"/>
<feBlend mode="normal" in="SourceGraphic" in2="effect2_dropShadow_4004_26983" result="shape"/>
</filter>
<linearGradient id="paint0_linear_4004_26983" x1="68.0001" y1="213.135" x2="68.0001" y2="226.885" gradientUnits="userSpaceOnUse">
<stop offset="0.300595" stop-color="white"/>
<stop offset="1" stop-color="white" stop-opacity="0"/>
</linearGradient>
<linearGradient id="paint1_linear_4004_26983" x1="68.0023" y1="213.344" x2="68.0023" y2="241.76" gradientUnits="userSpaceOnUse">
<stop offset="0.300595" stop-color="white"/>
<stop offset="1" stop-color="white" stop-opacity="0"/>
</linearGradient>
<linearGradient id="paint2_linear_4004_26983" x1="68" y1="57.5" x2="68" y2="97.5" gradientUnits="userSpaceOnUse">
<stop offset="0.304152" stop-color="white"/>
<stop offset="1" stop-color="white" stop-opacity="0"/>
</linearGradient>
</defs>
</svg>
