<svg width="54" height="54" viewBox="0 0 54 54" fill="none" xmlns="http://www.w3.org/2000/svg">
<path d="M26.72 53.44C41.477 53.44 53.44 41.477 53.44 26.72C53.44 11.963 41.477 0 26.72 0C11.963 0 0 11.963 0 26.72C0 41.477 11.963 53.44 26.72 53.44Z" fill="url(#paint0_linear_1_14)"/>
<path d="M15.62 32.43C16.28 33.1 17.29 33.33 18.15 33.01C19.01 32.69 19.69 31.84 19.85 30.86C19.88 30.68 19.89 30.49 19.85 30.31C19.81 30.18 19.74 30.06 19.66 29.95C18.82 28.74 17.57 27.96 16.36 27.22C15.48 26.68 13.89 25.23 13.82 27.12C13.68 30.55 15.31 32.11 15.63 32.43H15.62Z" fill="#351800"/>
<path d="M10.53 23.14C9.74 22.09 9.02 20.74 9.51 19.52C9.81 18.79 10.49 18.28 11.21 17.95C11.4 17.86 11.6 17.79 11.8 17.81C12.22 17.86 12.47 18.3 12.65 18.68C14.35 22.18 18.08 26.9 23.77 30.75C22.73 32.16 17.97 29.39 16.75 28.66C14.35 27.23 12.21 25.35 10.53 23.12V23.14Z" fill="#754C24"/>
<path d="M14.76 30.07C14.82 30.19 14.93 30.32 15.06 30.3C15.21 30.28 15.27 30.11 15.29 29.96C15.37 29.44 15.29 28.9 15.06 28.43C14.85 28.01 14.43 28.21 14.41 28.61C14.38 29.11 14.52 29.63 14.76 30.07Z" fill="white"/>
<path d="M37.83 32.43C37.17 33.1 36.16 33.33 35.3 33.01C34.44 32.69 33.76 31.84 33.6 30.86C33.57 30.68 33.56 30.49 33.6 30.31C33.64 30.18 33.71 30.06 33.79 29.95C34.63 28.74 35.88 27.96 37.09 27.22C37.97 26.68 39.56 25.23 39.63 27.12C39.77 30.55 38.14 32.11 37.82 32.43H37.83Z" fill="#351800"/>
<path d="M34.45 30.92C34.39 31.04 34.28 31.17 34.15 31.15C34 31.13 33.94 30.96 33.92 30.81C33.84 30.29 33.92 29.75 34.15 29.28C34.36 28.86 34.78 29.06 34.8 29.46C34.83 29.96 34.69 30.48 34.45 30.92Z" fill="white"/>
<path d="M42.91 23.14C43.7 22.09 44.42 20.74 43.93 19.52C43.63 18.79 42.95 18.28 42.23 17.95C42.04 17.86 41.84 17.79 41.64 17.81C41.22 17.86 40.97 18.3 40.79 18.68C39.09 22.18 35.36 26.9 29.67 30.75C30.71 32.16 35.47 29.39 36.69 28.66C39.09 27.23 41.23 25.35 42.91 23.12V23.14Z" fill="#754C24"/>
<path d="M18.08 38.49C17.21 38.34 16.26 38.19 15.47 38.56C14.72 38.91 14.26 39.67 14.13 40.44C14 41.21 14.15 41.99 14.33 42.76C14.59 43.85 14.99 45 15.97 45.65C17.24 46.49 18.98 46.19 20.5 45.86C24.42 45.03 28.54 44.32 32.43 45.29C33.46 45.55 34.49 45.92 35.55 45.79C37.32 45.57 38.52 44 39.13 42.45C39.59 41.3 39.54 39.75 37.86 39.59C37.38 39.54 36.9 39.74 36.43 39.82C35.61 39.95 34.77 39.98 33.94 40.02C30.54 40.17 27.13 39.87 23.76 39.41C21.86 39.15 19.96 38.83 18.07 38.5L18.08 38.49Z" fill="white"/>
<path d="M15.47 42.09C15.79 42.48 16.34 42.64 16.86 42.75C19.17 43.27 23.5 43.58 25.87 43.55C22.16 43.81 20.02 43.61 18.06 43.57C17.55 43.57 16.96 43.46 16.63 43.83C16.28 44.23 16.38 44.81 16.51 45.31C16.47 45.17 15.92 44.83 15.8 44.7C15.57 44.46 15.37 44.2 15.2 43.92C14.87 43.38 14.64 42.79 14.54 42.17C14.49 41.88 14.3 40.67 14.72 40.6C15.2 40.52 15.26 41.81 15.48 42.08L15.47 42.09Z" fill="#999999"/>
<path d="M38.37 41.36C37.94 42.32 36.91 42.94 35.83 43.23C34.75 43.52 33.62 43.52 32.5 43.58C33.18 43.64 33.85 43.71 34.53 43.77C34.87 43.8 35.21 43.84 35.52 43.95C35.83 44.06 36.12 44.27 36.25 44.56C36.38 44.85 36.3 45.22 36.02 45.4C37.54 44.7 38.64 43.26 38.83 41.7C38.9 41.1 38.81 40.42 38.31 40.04C38.56 40.23 38.48 41.11 38.38 41.36H38.37Z" fill="#999999"/>
<path d="M15.26 42.6C15.35 42.69 15.47 42.75 15.59 42.81C15.77 42.9 15.95 42.99 16.15 43.04C15.96 43.1 15.83 43.26 15.77 43.43C15.71 43.6 15.7 43.78 15.7 43.96C15.7 43.85 15.51 43.61 15.46 43.51C15.37 43.34 15.29 43.18 15.21 43.01C15.12 42.8 14.8 42.26 14.93 42.06C15.06 42.24 15.1 42.45 15.27 42.61L15.26 42.6Z" fill="#666666"/>
<path d="M38.23 42.35C38.02 43.19 37.49 43.95 36.75 44.48C36.83 44.26 36.68 44.02 36.47 43.89C36.26 43.76 36 43.73 35.76 43.71C35.52 43.69 35.26 43.69 35.04 43.61C36.25 43.52 37.36 43.17 38.23 42.35Z" fill="#666666"/>
<defs>
<linearGradient id="paint0_linear_1_14" x1="26.72" y1="30.97" x2="26.72" y2="-8.74" gradientUnits="userSpaceOnUse">
<stop stop-color="#FFD34D"/>
<stop offset="1" stop-color="#EC4963"/>
</linearGradient>
</defs>
</svg>
