<svg width="54" height="54" viewBox="0 0 54 54" fill="none" xmlns="http://www.w3.org/2000/svg">
<g clip-path="url(#clip0_1_32)">
<path d="M26.72 53.44C41.477 53.44 53.44 41.477 53.44 26.72C53.44 11.963 41.477 0 26.72 0C11.963 0 0 11.963 0 26.72C0 41.477 11.963 53.44 26.72 53.44Z" fill="#FFD34D"/>
<path style="mix-blend-mode:soft-light" d="M50.0604 38.9978C56.9712 26.1092 52.1252 10.0586 39.2366 3.14779C26.348 -3.76303 10.2974 1.08294 3.38656 13.9716C-3.52426 26.8602 1.32171 42.9108 14.2103 49.8216C27.0989 56.7324 43.1496 51.8865 50.0604 38.9978Z" fill="url(#paint0_radial_1_32)"/>
<path d="M44.43 28.44C44.43 28.44 43.16 33.8 39.5 38.33C36.84 41.65 32.87 44.5 27.17 44.5C21.47 44.5 17.5 41.64 14.84 38.33C11.18 33.81 9.91 28.44 9.91 28.44C10.13 28.26 10.34 28.09 10.57 27.92C16.54 23.6 27.17 23.72 27.17 23.72C27.17 23.72 37.8 23.6 43.77 27.92C44 28.09 44.22 28.26 44.43 28.44Z" fill="#351800"/>
<path d="M43.77 27.92C42.44 29.1 38.54 31.04 27.17 31.04C15.8 31.04 11.9 29.1 10.57 27.92C16.54 23.6 27.17 23.72 27.17 23.72C27.17 23.72 37.8 23.6 43.77 27.92Z" fill="white"/>
<path d="M39.5 38.33C36.84 41.65 32.87 44.5 27.17 44.5C21.47 44.5 17.5 41.64 14.84 38.33C17.97 36.71 22.34 35.7 27.17 35.7C32 35.7 36.37 36.71 39.5 38.33Z" fill="#EC4963"/>
<path d="M20.58 16.45C20.03 18.72 18.01 20.18 16.07 19.71C14.13 19.24 13 17.02 13.55 14.75C14.1 12.48 16.12 11.02 18.06 11.49C20 11.96 21.13 14.18 20.58 16.45Z" fill="#351800"/>
<path d="M17.23 14.02C17.05 14.77 16.38 15.25 15.74 15.1C15.1 14.94 14.72 14.21 14.9 13.46C15.08 12.71 15.75 12.23 16.39 12.38C17.03 12.54 17.41 13.27 17.23 14.02Z" fill="white"/>
<path d="M32.86 16.45C33.41 18.72 35.43 20.18 37.37 19.71C39.31 19.24 40.44 17.02 39.89 14.75C39.34 12.48 37.32 11.02 35.38 11.49C33.44 11.96 32.31 14.18 32.86 16.45Z" fill="#351800"/>
<path d="M35.97 14.02C35.79 14.77 35.12 15.25 34.48 15.1C33.84 14.94 33.46 14.21 33.64 13.46C33.82 12.71 34.49 12.23 35.13 12.38C35.77 12.54 36.15 13.27 35.97 14.02Z" fill="white"/>
<path d="M19.1 7.54C19.1 7.54 16.44 5.99999 13.95 8.99" stroke="#8C6239" stroke-width="1.5" stroke-miterlimit="10" stroke-linecap="round"/>
<path d="M34.11 7.54C34.11 7.54 36.77 5.99999 39.26 8.99" stroke="#8C6239" stroke-width="1.5" stroke-miterlimit="10" stroke-linecap="round"/>
</g>
<defs>
<radialGradient id="paint0_radial_1_32" cx="0" cy="0" r="1" gradientUnits="userSpaceOnUse" gradientTransform="translate(33.9759 11.501) scale(35.11)">
<stop stop-color="white"/>
<stop offset="1"/>
</radialGradient>
<clipPath id="clip0_1_32">
<rect width="53.45" height="53.45" fill="white"/>
</clipPath>
</defs>
</svg>
