<svg width="53" height="53" viewBox="0 0 53 53" fill="none" xmlns="http://www.w3.org/2000/svg">
<g clip-path="url(#clip0_1_3)">
<path d="M28.4021 52.8895C42.988 51.8287 53.9523 39.1444 52.8914 24.5584C51.8305 9.97243 39.1462 -0.991809 24.5602 0.0690802C9.97426 1.12997 -0.98998 13.8143 0.0709097 28.4002C1.1318 42.9862 13.8161 53.9504 28.4021 52.8895Z" fill="#0071BC"/>
<path style="mix-blend-mode:soft-light" d="M28.4021 52.8895C42.988 51.8287 53.9523 39.1444 52.8914 24.5584C51.8305 9.97243 39.1462 -0.991809 24.5602 0.0690802C9.97426 1.12997 -0.98998 13.8143 0.0709097 28.4002C1.1318 42.9862 13.8161 53.9504 28.4021 52.8895Z" fill="url(#paint0_radial_1_3)"/>
<path d="M30.62 13.26C31.07 12.02 32.48 11.27 33.69 11.79C34.78 12.26 35.45 13.33 35.86 14.43C36.72 16.71 36.67 19.32 35.74 21.57C37.29 21.33 39.04 21.08 40.29 22.02C41.73 23.1 41.29 25.19 40.24 26.09C39.88 26.4 39.85 27.24 40.19 27.58C41.04 28.45 41.09 29.99 40.31 30.86C40.02 31.19 39.64 31.46 39.48 31.87C39.04 32.94 40.27 33.18 40.13 34.33C40.01 35.38 38.86 35.73 38.56 36.75C38.44 37.16 38.48 37.59 38.38 38C38.03 39.45 36.25 39.95 34.76 40.12C31.99 40.45 29.19 40.59 26.39 40.54C24.94 40.51 23.42 40.41 22.22 39.6C20.82 38.65 20.15 36.92 19.96 35.24C19.77 33.56 19.73 27.14 19.88 25.91C20.15 23.72 21.12 22.11 23.98 20.97C25.66 20.3 27.1 20.12 28.47 18.77C30.25 17.02 29.91 15.2 30.61 13.27L30.62 13.26Z" fill="white"/>
<path d="M16.66 35.93C16.76 37.17 16.8 38.64 15.82 39.41C15.43 39.72 14.93 39.86 14.44 39.96C14.15 40.02 13.85 40.07 13.57 40.01C12.77 39.84 12.38 38.96 12.17 38.17C11.29 34.95 11.35 31.54 11.69 28.22C11.79 27.28 11.91 26.33 12.27 25.46C12.63 24.59 13.26 23.79 14.13 23.42C14.86 23.1 16.39 23.08 16.67 24C16.8 24.42 16.57 25.29 16.54 25.74C16.5 26.43 16.47 27.12 16.45 27.81C16.38 30.52 16.45 33.23 16.66 35.93Z" fill="white"/>
</g>
<defs>
<radialGradient id="paint0_radial_1_3" cx="0" cy="0" r="1" gradientUnits="userSpaceOnUse" gradientTransform="translate(27.9206 13.8305) scale(35.11)">
<stop stop-color="white"/>
<stop offset="1"/>
</radialGradient>
<clipPath id="clip0_1_3">
<rect width="52.96" height="52.96" fill="white"/>
</clipPath>
</defs>
</svg>
