<svg width="54" height="53" viewBox="0 0 54 53" fill="none" xmlns="http://www.w3.org/2000/svg">
<g clip-path="url(#clip0_1_51)">
<path d="M52.96 26.43C53 41.05 41.17 52.94 26.55 52.98C11.92 53.02 0.0400096 41.19 9.58594e-06 26.57C-0.0399904 11.95 11.79 0.0599986 26.41 0.0199986C41.03 -0.0200014 52.92 11.81 52.96 26.43Z" fill="#EC4963"/>
<path d="M41.65 19.98C40.63 17.57 38.26 15.8 35.59 15.46C30.69 14.85 27.95 17.05 26.65 18.9C25.35 17.05 22.6 14.85 17.71 15.46C15.04 15.79 12.67 17.57 11.65 19.98C10.63 22.39 10.86 25.39 11.8 27.83C12.74 30.27 14.43 32.39 16.39 34.17C19.26 36.78 22.88 38.98 26.65 40.09C30.42 38.98 34.04 36.78 36.91 34.17C38.87 32.39 40.56 30.27 41.5 27.83C42.44 25.39 42.68 22.39 41.65 19.98Z" fill="white"/>
<path style="mix-blend-mode:soft-light" d="M45.3728 45.204C55.7139 34.8629 55.7139 18.0967 45.3728 7.75561C35.0317 -2.58548 18.2655 -2.58547 7.9244 7.75561C-2.41669 18.0967 -2.41669 34.8629 7.9244 45.204C18.2655 55.5451 35.0317 55.5451 45.3728 45.204Z" fill="url(#paint0_radial_1_51)"/>
</g>
<defs>
<radialGradient id="paint0_radial_1_51" cx="0" cy="0" r="1" gradientUnits="userSpaceOnUse" gradientTransform="translate(28.0877 13.8286) scale(35.11)">
<stop stop-color="white"/>
<stop offset="1"/>
</radialGradient>
<clipPath id="clip0_1_51">
<rect width="53.13" height="52.98" fill="white"/>
</clipPath>
</defs>
</svg>
