<svg width="54" height="54" viewBox="0 0 54 54" fill="none" xmlns="http://www.w3.org/2000/svg">
<path d="M26.72 53.44C41.477 53.44 53.44 41.477 53.44 26.72C53.44 11.963 41.477 0 26.72 0C11.963 0 0 11.963 0 26.72C0 41.477 11.963 53.44 26.72 53.44Z" fill="#FFD34D"/>
<path d="M53.43 26.65C53.47 41.4 41.54 53.39 26.79 53.42C12.04 53.47 0.06 41.54 0.02 26.79C-0.02 12.04 11.91 0.06 26.65 0.02C41.4 -0.02 53.39 11.91 53.42 26.66L53.43 26.65Z" fill="url(#paint0_radial_1_98)" style="mix-blend-mode:soft-light"/>
<path d="M17.15 32.46C19.3426 32.46 21.12 30.6826 21.12 28.49C21.12 26.2974 19.3426 24.52 17.15 24.52C14.9574 24.52 13.18 26.2974 13.18 28.49C13.18 30.6826 14.9574 32.46 17.15 32.46Z" fill="#351800"/>
<path d="M17.15 27.64C17.15 28.53 16.43 29.25 15.54 29.25C14.65 29.25 13.93 28.53 13.93 27.64C13.93 26.75 14.65 26.03 15.54 26.03C16.43 26.03 17.15 26.75 17.15 27.64Z" fill="white"/>
<path d="M17.44 21.35C18.48 20.78 19.59 20.04 19.88 18.89C19.99 18.45 19.96 17.95 19.69 17.57C19.43 17.19 18.91 16.99 18.49 17.16C18.32 17.23 18.18 17.35 18.05 17.46C15.97 19.22 13.58 20.61 11.02 21.56C10.2 21.87 9.27 22.4 9.8 23.38C10.19 24.1 10.9 24.14 11.6 23.95C13.59 23.4 15.64 22.33 17.45 21.34L17.44 21.35Z" fill="#754C24"/>
<path d="M36.3 32.21C38.4926 32.21 40.27 30.4326 40.27 28.24C40.27 26.0474 38.4926 24.27 36.3 24.27C34.1074 24.27 32.33 26.0474 32.33 28.24C32.33 30.4326 34.1074 32.21 36.3 32.21Z" fill="#351800"/>
<path d="M33.09 27.38C33.09 28.27 33.81 28.99 34.7 28.99C35.59 28.99 36.31 28.27 36.31 27.38C36.31 26.49 35.59 25.77 34.7 25.77C33.81 25.77 33.09 26.49 33.09 27.38Z" fill="white"/>
<path d="M36.01 21.1C34.97 20.53 33.86 19.79 33.57 18.64C33.46 18.2 33.49 17.7 33.76 17.32C34.02 16.94 34.54 16.74 34.96 16.91C35.13 16.98 35.27 17.1 35.4 17.21C37.48 18.97 39.87 20.36 42.43 21.31C43.25 21.62 44.18 22.15 43.65 23.13C43.26 23.85 42.55 23.89 41.85 23.7C39.86 23.15 37.81 22.08 36 21.09L36.01 21.1Z" fill="#754C24"/>
<path d="M11.91 32.74C11.12 33.85 10.51 35.08 10.1 36.38C9.71 37.64 9.56 39.12 10.36 40.16C11.18 41.23 12.93 41.41 13.95 40.52C14.56 39.99 14.87 39.19 14.95 38.38C15.03 37.58 14.89 36.77 14.72 35.99C14.52 35.06 14.26 34.14 13.99 33.23C13.79 32.57 13.65 31.32 13.11 30.9C12.67 31.35 12.32 32.18 11.92 32.74H11.91Z" fill="#1C69F5"/>
<path d="M32.69 41.45C34.14 41.69 35.72 42.23 35.94 43.18C35.97 43.32 35.97 43.48 35.85 43.6C35.73 43.72 35.52 43.79 35.31 43.85C33.83 44.24 32.15 44.18 30.58 44.01C29 43.84 27.44 43.56 25.84 43.53C23.85 43.5 21.87 43.86 19.89 43.69C18.56 43.58 17.95 42.89 19.29 42.46C20.62 42.03 22.25 41.79 23.69 41.57C26.63 41.11 29.73 40.96 32.69 41.44V41.45Z" fill="#351800"/>
<path d="M10.34 38.43C10.32 38.93 10.4 39.51 10.83 39.76C10.93 39.82 11.06 39.86 11.18 39.83C11.51 39.77 11.61 39.36 11.63 39.03C11.67 37.85 11.36 36.66 11.52 35.48C11.54 35.34 11.56 35.18 11.48 35.07C11.17 34.64 10.75 36.14 10.69 36.32C10.49 37 10.37 37.71 10.35 38.42L10.34 38.43Z" fill="#65A2FC"/>
<defs>
<radialGradient id="paint0_radial_1_98" cx="0" cy="0" r="1" gradientUnits="userSpaceOnUse" gradientTransform="translate(31.6678 11.8589) scale(35.4198 35.4263)">
<stop stop-color="white"/>
<stop offset="1"/>
</radialGradient>
</defs>
</svg>
