<svg width="54" height="54" viewBox="0 0 54 54" fill="none" xmlns="http://www.w3.org/2000/svg">
<g clip-path="url(#clip0_1_80)">
<path d="M26.72 53.44C41.477 53.44 53.44 41.477 53.44 26.72C53.44 11.963 41.477 0 26.72 0C11.963 0 0 11.963 0 26.72C0 41.477 11.963 53.44 26.72 53.44Z" fill="#FFD34D"/>
<path style="mix-blend-mode:soft-light" d="M34.0587 52.3937C48.2363 48.3391 56.4426 33.5589 52.388 19.3813C48.3333 5.2037 33.5532 -3.00257 19.3755 1.05208C5.19795 5.10673 -3.00833 19.8869 1.04633 34.0645C5.10098 48.2421 19.8811 56.4484 34.0587 52.3937Z" fill="url(#paint0_radial_1_80)"/>
<path d="M20.55 17.9199C20 20.1899 17.98 21.6499 16.04 21.1799C14.1 20.7099 12.97 18.4899 13.52 16.2199C14.07 13.9499 16.09 12.4899 18.03 12.9599C19.97 13.4299 21.1 15.6499 20.55 17.9199Z" fill="#351800"/>
<path d="M17.19 15.4899C17.01 16.2399 16.34 16.7199 15.7 16.5699C15.06 16.4099 14.68 15.6799 14.86 14.9299C15.04 14.1799 15.71 13.6999 16.35 13.8499C16.99 14.0099 17.37 14.7399 17.19 15.4899Z" fill="white"/>
<path d="M32.83 17.9199C33.38 20.1899 35.4 21.6499 37.34 21.1799C39.28 20.7099 40.41 18.4899 39.86 16.2199C39.31 13.9499 37.29 12.4899 35.35 12.9599C33.41 13.4299 32.28 15.6499 32.83 17.9199Z" fill="#351800"/>
<path d="M35.94 15.4899C35.76 16.2399 35.09 16.7199 34.45 16.5699C33.81 16.4099 33.43 15.6799 33.61 14.9299C33.79 14.1799 34.46 13.6999 35.1 13.8499C35.74 14.0099 36.12 14.7399 35.94 15.4899Z" fill="white"/>
<path d="M19.06 8.99996C19.06 8.99996 16.4 7.45996 13.91 10.45" stroke="#8C6239" stroke-width="1.5" stroke-miterlimit="10" stroke-linecap="round"/>
<path d="M34.08 8.99996C34.08 8.99996 36.74 7.45996 39.23 10.45" stroke="#8C6239" stroke-width="1.5" stroke-miterlimit="10" stroke-linecap="round"/>
<path d="M38.33 36.0799C38.33 37.6399 37.93 39.1199 37.23 40.4299C35.39 43.9299 31.38 46.3399 26.75 46.3399C22.12 46.3399 18.08 43.8999 16.25 40.3799C15.56 39.0799 15.18 37.6199 15.18 36.0799C15.18 34.2699 15.71 32.5699 16.64 31.0999C18.61 27.9499 22.4 25.8199 26.75 25.8199C31.1 25.8199 34.9 27.9499 36.86 31.0999C37.79 32.5699 38.32 34.2699 38.32 36.0799H38.33Z" fill="#351800"/>
<path d="M36.87 31.0999C34.42 31.6199 31.16 31.9699 26.76 31.9699C22.36 31.9699 19.09 31.6199 16.65 31.0999C18.62 27.9499 22.41 25.8199 26.76 25.8199C31.11 25.8199 34.91 27.9499 36.87 31.0999Z" fill="white"/>
<path d="M37.23 40.43C35.39 43.93 31.38 46.34 26.75 46.34C22.12 46.34 18.08 43.9 16.25 40.38C19.16 39.14 22.76 38.4 26.68 38.4C30.6 38.4 34.31 39.16 37.23 40.43Z" fill="#EC4963"/>
</g>
<defs>
<radialGradient id="paint0_radial_1_80" cx="0" cy="0" r="1" gradientUnits="userSpaceOnUse" gradientTransform="translate(31.6692 11.8693) scale(35.4)">
<stop stop-color="white"/>
<stop offset="1"/>
</radialGradient>
<clipPath id="clip0_1_80">
<rect width="53.45" height="53.45" fill="white"/>
</clipPath>
</defs>
</svg>
