<svg height="512" viewBox="0 0 60 60" width="512" xmlns="http://www.w3.org/2000/svg"><g id="Icons"><path d="m43.84 59h-41.68a1.155 1.155 0 0 1 -1.11-1.48c.35-1.21.71-2.41 1.06-3.61a11.791 11.791 0 0 1 1.64-3.82 9.307 9.307 0 0 1 5.89-3.75l7.36-1.34s1.37 3 6 3 6-3 6-3l7.36 1.34a9.307 9.307 0 0 1 5.89 3.75 11.791 11.791 0 0 1 1.64 3.82c.35 1.2.71 2.4 1.06 3.61a1.155 1.155 0 0 1 -1.11 1.48z" fill="#00bcd4"/><path d="m41 16.12a12.541 12.541 0 0 1 -2.83 7.3 3.389 3.389 0 0 0 -1.64-.42h-.53v-2.1a2.983 2.983 0 0 0 -2.75-2.99c-11.09-.76-16.16-5.91-16.16-5.91a12.6 12.6 0 0 1 -5.47 5.31 2.98 2.98 0 0 0 -1.62 2.66v3.03h-.53a3.514 3.514 0 0 0 -1.67.43c-2.8-3.17-2.8-6.13-2.8-8.47a14.282 14.282 0 0 1 14.4-13.96c12.46 0 21.6 5.82 21.6 15.12z" fill="#a0522d"/><path d="m19.4 1c-.368 0-.715.034-1.069.057 11.459.574 19.669 6.252 19.669 15.063a12.343 12.343 0 0 1 -2 6.144v.736h.53a3.389 3.389 0 0 1 1.64.42 12.541 12.541 0 0 0 2.83-7.3c0-9.3-9.14-15.12-21.6-15.12z" fill="#783e22"/><path d="m29 45s-1.37 3-6 3-6-3-6-3a4.011 4.011 0 0 0 2-3.38v-2.25a13.013 13.013 0 0 0 8 0v2.25a4.011 4.011 0 0 0 2 3.38z" fill="#ffe0b2"/><path d="m36 20.9v6.1a13 13 0 1 1 -26 0v-7.03a2.98 2.98 0 0 1 1.62-2.66 12.6 12.6 0 0 0 5.47-5.31s5.07 5.15 16.16 5.91a2.983 2.983 0 0 1 2.75 2.99z" fill="#ffe0b2"/><path d="m33.25 17.91c-11.09-.76-16.16-5.91-16.16-5.91a11.273 11.273 0 0 1 -.986 1.553 29.214 29.214 0 0 0 14.146 4.357 2.983 2.983 0 0 1 2.75 2.99v6.1a12.94 12.94 0 0 1 -11.5 12.9 12.971 12.971 0 0 0 14.15-9.9 12.9 12.9 0 0 0 .35-3v-6.1a2.983 2.983 0 0 0 -2.75-2.99z" fill="#dfc49c"/><path d="m10.35 30h-.88a3.5 3.5 0 0 1 -2.45-5.97 3.383 3.383 0 0 1 2.45-1.03h.53v4a12.9 12.9 0 0 0 .35 3z" fill="#ffe0b2"/><path d="m40 26.5a3.478 3.478 0 0 1 -3.47 3.5h-.88a12.9 12.9 0 0 0 .35-3v-4h.53a3.389 3.389 0 0 1 1.64.42 3.521 3.521 0 0 1 1.83 3.08z" fill="#ffe0b2"/><circle cx="46" cy="46" fill="#f44335" r="13"/><path d="m46 33a13.032 13.032 0 0 0 -1.5.093 12.993 12.993 0 0 1 0 25.814 13 13 0 1 0 1.5-25.907z" fill="#c81e1e"/><g fill="#f5f5f5"><path d="m50.06 39.11-10.95 10.95a8 8 0 0 1 10.95-10.95z"/><path d="m54 46a8 8 0 0 1 -12.06 6.89l10.95-10.95a8 8 0 0 1 1.11 4.06z"/></g></g><g id="Icons_copy" data-name="Icons copy"><path d="m46 32a14.018 14.018 0 0 0 -13.923 12.544l-2.714-.494a2.949 2.949 0 0 1 -1.363-2.43v-1.559a14.047 14.047 0 0 0 8.41-9.061h.12a4.5 4.5 0 0 0 3.162-7.672c-.04-.041-.089-.07-.13-.109a13.386 13.386 0 0 0 2.438-7.098c0-9.642-9.083-16.121-22.6-16.121a15.248 15.248 0 0 0 -15.4 14.958 12.486 12.486 0 0 0 2.381 8.308c-.022.021-.047.035-.069.057a4.5 4.5 0 0 0 3.158 7.677h.12a14.047 14.047 0 0 0 8.41 9.061v1.559a2.948 2.948 0 0 1 -1.362 2.429l-7.177 1.307a10.4 10.4 0 0 0 -3.467 1.317 10.266 10.266 0 0 0 -3.056 2.834 12.664 12.664 0 0 0 -1.788 4.123l-.457 1.553c-.2.684-.4 1.37-.6 2.052a2.156 2.156 0 0 0 2.067 2.765h41.68a2.169 2.169 0 0 0 .6-.093 14.169 14.169 0 0 0 1.56.093 14 14 0 0 0 0-28zm-9.155-3.032a13.884 13.884 0 0 0 .155-1.968v-2.953a2.438 2.438 0 0 1 1.272.69 2.493 2.493 0 0 1 -1.427 4.231zm-30.845-14.01a13.237 13.237 0 0 1 13.4-12.958c12.322 0 20.6 5.675 20.6 14.121a11.445 11.445 0 0 1 -2.181 6.092 4.264 4.264 0 0 0 -.819-.166v-1.147a3.988 3.988 0 0 0 -3.685-3.986c-10.521-.723-15.465-5.569-15.515-5.614a1 1 0 0 0 -1.6.244 11.554 11.554 0 0 1 -5.036 4.876 3.978 3.978 0 0 0 -2.164 3.551v2.075a4.413 4.413 0 0 0 -.895.19c-2.105-2.682-2.105-5.115-2.105-7.278zm1 11.542a2.485 2.485 0 0 1 .732-1.769 2.434 2.434 0 0 1 1.268-.684v2.953a13.884 13.884 0 0 0 .155 1.968 2.486 2.486 0 0 1 -2.155-2.468zm4 .5v-7.029a1.988 1.988 0 0 1 1.081-1.771 13.81 13.81 0 0 0 5.27-4.657c2 1.556 7.117 4.771 15.827 5.366a1.983 1.983 0 0 1 1.822 1.991v6.1a12 12 0 0 1 -24 0zm12 14a14 14 0 0 0 3-.332v.952a4.812 4.812 0 0 0 1.633 3.606 5.907 5.907 0 0 1 -4.633 1.774 5.912 5.912 0 0 1 -4.634-1.774 4.809 4.809 0 0 0 1.634-3.606v-.952a14 14 0 0 0 3 .332zm-12 17v-3a1 1 0 0 0 -2 0v3h-6.84a.152.152 0 0 1 -.127-.064.146.146 0 0 1 -.023-.136q.3-1.029.6-2.048l.461-1.566a10.839 10.839 0 0 1 1.494-3.516 8.274 8.274 0 0 1 2.46-2.282 8.366 8.366 0 0 1 2.793-1.062l6.7-1.219c.761 1.04 2.652 2.893 6.482 2.893s5.721-1.853 6.484-2.9l2.545.463a13.987 13.987 0 0 0 6.797 11.437zm35 0a12 12 0 1 1 12-12 12.013 12.013 0 0 1 -12 12z"/><path d="m51.052 38.983a1 1 0 0 0 -.485-.735 9 9 0 0 0 -12.319 12.319 1 1 0 0 0 .735.485.9.9 0 0 0 .127.008 1 1 0 0 0 .707-.293l10.95-10.95a1 1 0 0 0 .285-.834zm-11.644 9.365a6.994 6.994 0 0 1 8.94-8.94z"/><path d="m53.017 40.948a.99.99 0 0 0 -.834.285l-10.95 10.95a1 1 0 0 0 .2 1.569 9 9 0 0 0 12.319-12.319 1 1 0 0 0 -.735-.485zm-7.017 12.052a6.984 6.984 0 0 1 -2.348-.408l8.94-8.94a6.994 6.994 0 0 1 -6.592 9.348z"/></g></svg>