<svg id="Capa_1" enable-background="new 0 0 512 512" viewBox="0 0 512 512" xmlns="http://www.w3.org/2000/svg"><g><g><path d="m478.149 0h-341.834c-2.845 0-5.151 2.306-5.151 5.151v35.875h306.988c2.273 0 4.121 1.849 4.121 4.121v390.371h35.875c2.845 0 5.151-2.306 5.151-5.151v-425.216c.001-2.845-2.305-5.151-5.15-5.151z" fill="#efe2dd"/></g><g><path d="m478.149 0h-21.45c2.845 0 5.151 2.306 5.151 5.151v425.216c0 2.845-2.306 5.151-5.151 5.151h21.45c2.845 0 5.151-2.306 5.151-5.151v-425.216c0-2.845-2.307-5.151-5.151-5.151z" fill="#e1d3ce"/></g><g><path d="m438.153 39.996h-341.834c-2.845 0-5.151 2.306-5.151 5.151v280.888c10.623-4.081 22.149-6.324 34.192-6.324 52.73 0 95.63 42.899 95.63 95.63 0 22.784-8.014 43.728-21.365 60.174h238.527c2.845 0 5.151-2.306 5.151-5.151v-425.217c.001-2.845-2.306-5.151-5.15-5.151z" fill="#f9f3f1"/></g><g><g><path d="m438.153 39.996h-32.776c2.845 0 5.151 2.306 5.151 5.151v425.216c0 2.845-2.306 5.151-5.151 5.151h32.776c2.845 0 5.151-2.306 5.151-5.151v-425.216c0-2.845-2.307-5.151-5.151-5.151z" fill="#f3eae6"/></g></g><g><g><circle cx="353.602" cy="371.361" fill="#fe7d43" r="50"/></g><g><path d="m353.602 321.361c-6.104 0-11.951 1.097-17.358 3.1 19.057 7.056 32.641 25.39 32.641 46.9s-13.585 39.844-32.641 46.9c5.408 2.002 11.254 3.1 17.358 3.1 27.614 0 50-22.386 50-50s-22.386-50-50-50z" fill="#fd6930"/></g><path d="m364.209 371.361 9.265-9.265c2.929-2.929 2.929-7.678 0-10.606-2.93-2.929-7.678-2.929-10.607 0l-9.264 9.264-9.264-9.264c-2.929-2.929-7.677-2.93-10.607 0-2.929 2.929-2.929 7.678 0 10.606l9.265 9.265-9.265 9.265c-2.929 2.929-2.929 7.678 0 10.606 1.465 1.464 3.385 2.197 5.304 2.197s3.839-.732 5.304-2.197l9.264-9.264 9.264 9.264c1.465 1.465 3.384 2.197 5.304 2.197 1.919 0 3.839-.732 5.304-2.197 2.929-2.929 2.929-7.678 0-10.606z" fill="#fff"/></g><g fill="#b9acac"><path d="m180.055 286.096c0-4.142-3.358-7.5-7.5-7.5h-21.884c-4.142 0-7.5 3.358-7.5 7.5s3.358 7.5 7.5 7.5h21.884c4.142 0 7.5-3.358 7.5-7.5z"/><path d="m197.798 278.596c-4.142 0-7.5 3.358-7.5 7.5s3.358 7.5 7.5 7.5h21.884c4.142 0 7.5-3.358 7.5-7.5s-3.358-7.5-7.5-7.5z"/><path d="m383.801 278.596h-138.103c-4.142 0-7.5 3.358-7.5 7.5s3.358 7.5 7.5 7.5h138.103c4.143 0 7.5-3.358 7.5-7.5s-3.358-7.5-7.5-7.5z"/><path d="m289.975 321.229h-121.7c-3.415 0-6.291 2.284-7.198 5.407 6.347 2.565 12.36 5.79 17.949 9.593h110.948c4.143 0 7.5-3.358 7.5-7.5s-3.357-7.5-7.499-7.5z"/><path d="m278.259 363.861h-72.339c3.034 4.732 5.658 9.75 7.833 15h64.506c4.143 0 7.5-3.358 7.5-7.5s-3.358-7.5-7.5-7.5z"/><path d="m289.975 406.494h-69.398c.269 2.914.413 5.864.413 8.846 0 2.069-.089 4.117-.219 6.154h69.204c4.143 0 7.5-3.358 7.5-7.5s-3.358-7.5-7.5-7.5z"/><path d="m150.671 109.017h110.014c4.143 0 7.5-3.358 7.5-7.5s-3.357-7.5-7.5-7.5h-110.014c-4.142 0-7.5 3.358-7.5 7.5s3.358 7.5 7.5 7.5z"/><path d="m150.671 151.649h86.581c4.142 0 7.5-3.358 7.5-7.5s-3.358-7.5-7.5-7.5h-86.581c-4.142 0-7.5 3.358-7.5 7.5s3.358 7.5 7.5 7.5z"/><path d="m150.671 194.281h73.692c4.142 0 7.5-3.358 7.5-7.5s-3.358-7.5-7.5-7.5h-73.692c-4.142 0-7.5 3.358-7.5 7.5s3.358 7.5 7.5 7.5z"/><path d="m150.671 236.914h233.13c4.143 0 7.5-3.358 7.5-7.5s-3.357-7.5-7.5-7.5h-233.13c-4.142 0-7.5 3.358-7.5 7.5s3.358 7.5 7.5 7.5z"/></g><g><g><path d="m310.852 81.635-46.57 80.661c-6.283 10.882 1.571 24.485 14.137 24.485h93.139c12.566 0 20.419-13.603 14.137-24.485l-46.57-80.661c-6.283-10.882-21.99-10.882-28.273 0z" fill="#d8aa5e"/></g><g><path d="m385.695 162.296-46.57-80.661c-6.283-10.882-21.99-10.882-28.273 0l-1.853 3.209 44.717 77.452c6.283 10.882-1.571 24.485-14.137 24.485h31.978c12.567 0 20.421-13.602 14.138-24.485z" fill="#c99c56"/></g><g><g><path d="m324.988 141.712c-4.143 0-7.5-3.358-7.5-7.5v-26.948c0-4.142 3.357-7.5 7.5-7.5s7.5 3.358 7.5 7.5v26.948c0 4.142-3.357 7.5-7.5 7.5z" fill="#fff"/></g><g><path d="m324.988 169.375c-4.143 0-7.5-3.358-7.5-7.5v-3.515c0-4.142 3.357-7.5 7.5-7.5s7.5 3.358 7.5 7.5v3.515c0 4.142-3.357 7.5-7.5 7.5z" fill="#fff"/></g></g></g><g><g><circle cx="125.36" cy="415.34" fill="#fe7d43" r="96.66"/></g><g><path d="m125.36 318.68c-8.178 0-16.118 1.02-23.702 2.932 41.924 10.569 72.958 48.522 72.958 93.728s-31.034 83.159-72.958 93.728c7.585 1.912 15.524 2.932 23.702 2.932 53.384 0 96.66-43.276 96.66-96.66s-43.276-96.66-96.66-96.66z" fill="#fd6930"/></g><g><path d="m162.153 462.127c-4.142 0-7.5-3.358-7.5-7.5 0-16.152-13.141-29.293-29.293-29.293s-29.293 13.141-29.293 29.293c0 4.142-3.358 7.5-7.5 7.5s-7.5-3.358-7.5-7.5c0-24.423 19.87-44.293 44.293-44.293s44.293 19.87 44.293 44.293c0 4.143-3.358 7.5-7.5 7.5z" fill="#883f2e"/></g><g><g><path d="m99.792 391.036c-4.142 0-7.5-3.358-7.5-7.5v-11.225c0-4.142 3.358-7.5 7.5-7.5s7.5 3.358 7.5 7.5v11.225c0 4.142-3.358 7.5-7.5 7.5z" fill="#883f2e"/></g><g><path d="m150.928 391.036c-4.142 0-7.5-3.358-7.5-7.5v-11.225c0-4.142 3.358-7.5 7.5-7.5s7.5 3.358 7.5 7.5v11.225c0 4.142-3.358 7.5-7.5 7.5z" fill="#883f2e"/></g></g></g></g><g/><g/><g/><g/><g/><g/><g/><g/><g/><g/><g/><g/><g/><g/><g/></svg>