<svg id="Layer_1" enable-background="new 0 0 68 68" height="512" viewBox="0 0 68 68" width="512" xmlns="http://www.w3.org/2000/svg"><g><path d="m65.9975128 12.7468567v47.7010193c0 3.0650024-2.4840088 5.5489807-5.5490112 5.5489807h-52.8959961c-3.0650024 0-5.5500183-2.4839783-5.5500183-5.5489807v-52.8959961c0-3.0650024 2.4850159-5.5490112 5.5500183-5.5490112h47.5499878c1.4450073 0 2.8320007.5629883 3.8680115 1.5700073l5.3450012 5.1940002c1.0759888 1.0449829 1.6820068 2.4799805 1.6820068 3.9799805" fill="#43a2ff"/><path d="m55.1639862 2.0027466v16.7220154c0 3.0839844-2.5 5.5839844-5.5830078 5.5839844h-31.0710144c-3.0829773 0-5.5829773-2.5-5.5829773-5.5839844v-16.7220154z" fill="#2c3033"/><path d="m51.1200104 2.0061646v13.5110168c0 2.4949951-2.0280151 4.5090027-4.5230103 4.5090027h-25.1100158c-2.4949951 0-4.5089722-2.0140076-4.5089722-4.5090027v-13.5110168z" fill="#e5f4f7"/><path d="m54.707901 40.2722473v25.7250061h-41.3240051v-25.7250061c0-2.1779785 1.7649841-3.9439697 3.9440002-3.9439697h33.4360046c2.1779786 0 3.9440003 1.7659912 3.9440003 3.9439697" fill="#e5f4f7"/><g fill="#2c3033"><path d="m47.7351837 2.0061646v11.25c0 1.3860168-1.1240234 2.4950256-2.4950256 2.4950256-1.3719788 0-2.4949951-1.1090088-2.4949951-2.4950256v-11.25z"/><path d="m49.7835846 43.3865356c0 .9390259-.7510071 1.6900024-1.678009 1.6900024h-28.1199952c-.927002 0-1.678009-.7509766-1.678009-1.6900024 0-.9269714.7510071-1.6789856 1.678009-1.6789856h28.1199951c.927002 0 1.6780091.7520142 1.6780091 1.6789856"/><path d="m49.7835846 49.541748c0 .9390259-.7510071 1.6910095-1.678009 1.6910095h-28.1199952c-.927002 0-1.678009-.7519836-1.678009-1.6910095 0-.9269714.7510071-1.6789856 1.678009-1.6789856h28.1199951c.927002.0000001 1.6780091.7520142 1.6780091 1.6789856"/><path d="m49.7835846 55.697052c0 .9390259-.7510071 1.6910095-1.678009 1.6910095h-28.1199952c-.927002 0-1.678009-.7519836-1.678009-1.6910095 0-.9269714.7510071-1.6779785 1.678009-1.6779785h28.1199951c.927002 0 1.6780091.7510071 1.6780091 1.6779785"/></g></g></svg>