<svg id="Layer_2" height="512" viewBox="0 0 48 48" width="512" xmlns="http://www.w3.org/2000/svg" xmlns:xlink="http://www.w3.org/1999/xlink" data-name="Layer 2"><linearGradient id="New_Gradient_Swatch" gradientUnits="userSpaceOnUse" x2="48" y1="24" y2="24"><stop offset="0" stop-color="#87f1fc"/><stop offset=".2557" stop-color="#7fd4fb"/><stop offset=".5295" stop-color="#78bcfb"/><stop offset=".7844" stop-color="#74aefa"/><stop offset="1" stop-color="#73a9fa"/></linearGradient><path d="m45.1543 11.3682a5.9593 5.9593 0 0 0 -5.8379-.2627l-3.8813 1.9414a8.0131 8.0131 0 0 0 -7.4351-5.0469h-20a8.0092 8.0092 0 0 0 -8 8v16a8.0092 8.0092 0 0 0 8 8h20a8.0131 8.0131 0 0 0 7.4351-5.0469l3.8813 1.9414a6.0005 6.0005 0 0 0 8.6836-5.3672v-15.0556a5.962 5.962 0 0 0 -2.8457-5.1035zm-21.1543 14.6318h-4v4a2 2 0 0 1 -4 0v-4h-4a2 2 0 0 1 0-4h4v-4a2 2 0 0 1 4 0v4h4a2 2 0 0 1 0 4z" fill="url(#New_Gradient_Swatch)"/></svg>