<svg id="Layer_1" enable-background="new 0 0 66 66" height="512" viewBox="0 0 66 66" width="512" xmlns="http://www.w3.org/2000/svg"><g><path d="m60.94 27.81h-23.33l-2.96 23.05h29.25z" fill="#1c8fc7"/><path d="m63.9 50.86h-29.25l-.08.62c-.46 3.59 2.33 6.76 5.95 6.76h17.51c3.62 0 6.41-3.18 5.95-6.76z" fill="#49a5d2"/><path d="m46.63 30.69c-.18-.28-.5-.45-.84-.45h-8.49l-2.65 20.62-.08.62c-.46 3.58 2.34 6.76 5.95 6.76h6.73v-14.39c0-.55.45-1 1-1h4.47c.79 0 1.27-.88.84-1.55z" opacity=".08"/><circle cx="43.12" cy="34.24" fill="#fff" r="2"/><circle cx="55.43" cy="34.24" fill="#fff" r="2"/><g><path d="m55.43 32.99c-.41 0-.75-.34-.75-.75v-7.32c0-2.98-2.43-5.41-5.41-5.41s-5.41 2.43-5.41 5.41v7.32c0 .41-.34.75-.75.75s-.75-.34-.75-.75v-7.32c0-3.81 3.1-6.91 6.91-6.91s6.91 3.1 6.91 6.91v7.32c0 .41-.33.75-.75.75z" fill="#2b2a3a"/></g><circle cx="31.26" cy="16.63" fill="#ff7146" r="8.87"/><path d="m36.26 15.88h-4.25v-4.25c0-.41-.34-.75-.75-.75s-.75.34-.75.75v4.25h-4.25c-.41 0-.75.34-.75.75s.34.75.75.75h4.25v4.25c0 .41.34.75.75.75s.75-.34.75-.75v-4.25h4.25c.41 0 .75-.34.75-.75s-.34-.75-.75-.75z" fill="#fff"/><path d="m50.87 40.85h-24.7l-5.62-8.61h24.7z" fill="#ffd683"/><path d="m26.17 40.85-5.62-8.61v26h24.7v-17.39z" fill="#ffc040"/><path d="m1.97 40.85h12.97l5.61-8.61h-12.96z" fill="#ffd683"/><path d="m14.94 40.85h-7.35v17.39h12.96v-26z" fill="#e5ac39"/></g></svg>