<svg height="512" viewBox="0 0 32 32" width="512" xmlns="http://www.w3.org/2000/svg"><g id="_57_Write_Basic_Essential_Pencil" data-name="57  Write, Basic, Essential, Pencil"><path d="m25 21h2v5a3 3 0 0 1 -3 3h-19a3 3 0 0 1 -3-3v-20a3 3 0 0 1 3-3h19a3 3 0 0 1 3 3v1.15h-2v-1.15a1 1 0 0 0 -1-1h-19a1 1 0 0 0 -1 1v20a1 1 0 0 0 1 1h19a1 1 0 0 0 1-1zm5.34-8.84a3 3 0 0 1 -.88 2.13l-1.59 1.58-7.57 7.58a1 1 0 0 1 -.57.28l-3.3.48h-.15a1 1 0 0 1 -.7-.3 1 1 0 0 1 -.29-.85l.48-3.3a1 1 0 0 1 .28-.57l7.58-7.57 1.58-1.62a3.09 3.09 0 0 1 4.25 0 3 3 0 0 1 .88 2.16zm-4.59 3-1.41-1.41-6.64 6.63-.24 1.62 1.66-.24zm2.59-3a1 1 0 0 0 -.3-.7 1 1 0 0 0 -1.41 0l-.88.88 1.41 1.41.88-.88a1 1 0 0 0 .3-.71zm-14.34 11.84v-2h-7v2z"/></g></svg>