<svg id="Layer_1" height="512" viewBox="0 0 36 36" width="512" xmlns="http://www.w3.org/2000/svg" data-name="Layer 1"><g fill-rule="evenodd"><path d="m34 12.29h-32v17.14a4.58 4.58 0 0 0 4.57 4.57h10.29v-3.51a8 8 0 1 1 2.28 0v3.51h10.29a4.58 4.58 0 0 0 4.57-4.57z" fill="#43d685"/><g fill="#072a30"><path d="m23.71 22.57a5.66 5.66 0 0 0 -1.67-4 5.72 5.72 0 0 0 -8.08 0 5.71 5.71 0 1 0 9.75 4zm-3.43 1.14h-1.14v1.15a1.14 1.14 0 0 1 -2.28 0v-1.15h-1.15a1.14 1.14 0 0 1 0-2.28h1.15v-1.14a1.14 1.14 0 1 1 2.28 0v1.14h1.14a1.14 1.14 0 1 1 0 2.28z"/><path d="m34 10v-3.43a4.58 4.58 0 0 0 -4.57-4.57h-22.86a4.58 4.58 0 0 0 -4.57 4.57v3.43zm-5.71-4.57a1.14 1.14 0 1 1 -1.15 1.14 1.14 1.14 0 0 1 1.15-1.14zm-4.58 0a1.14 1.14 0 1 1 -1.14 1.14 1.14 1.14 0 0 1 1.14-1.14zm-16 0h4.58a1.14 1.14 0 0 1 0 2.28h-4.58a1.14 1.14 0 0 1 0-2.28z"/></g></g></svg>