<?xml version="1.0" encoding="iso-8859-1"?>
<!-- Generator: Adobe Illustrator 19.0.0, SVG Export Plug-In . SVG Version: 6.00 Build 0)  -->
<svg version="1.1" id="Capa_1" xmlns="http://www.w3.org/2000/svg" xmlns:xlink="http://www.w3.org/1999/xlink" x="0px" y="0px"
	 viewBox="0 0 282.887 282.887" style="enable-background:new 0 0 282.887 282.887;" xml:space="preserve">
<g>
	<path style="fill:#E35A4D;" d="M48.969,88.327c4.403,12.39,4.762,26.214,0.205,38.554c-7.731,20.89-27.034,35.635-35.994,56.013
		c-10.394,23.706-4.454,53.146,13.056,72.243c17.459,19.098,45.056,27.699,70.656,23.808c-20.992-25.037-28.006-61.082-17.92-92.16
		c4.096-12.595,10.854-25.139,9.114-38.246c11.418,16.538,18.637,35.942,20.838,55.91c9.165-13.875,24.883-21.606,38.656-30.976
		c13.722-9.37,27.034-23.245,26.163-39.885c9.677,19.558,12.032,42.598,6.4,63.693c-1.382,5.12-3.226,10.291-3.174,15.565
		c0.051,5.325,2.458,11.059,7.373,13.158c4.966,2.15,11.059-0.256,14.438-4.506c3.379-4.25,4.506-9.882,4.659-15.309
		c13.875,7.322,18.125,26.419,12.954,41.267c-5.171,14.848-17.357,26.061-29.952,35.379c35.635-2.355,68.915-26.675,82.022-59.904
		c13.107-33.229,5.376-73.677-19.046-99.738c-4.71,17.51-15.821,33.178-30.72,43.52c7.834-15.616,13.67-32.563,13.978-50.022
		s-5.376-35.533-17.869-47.718c-5.99-5.837-13.466-10.394-17.869-17.459c-4.403-7.117-4.045-18.33,3.482-21.914
		c-13.363,1.178-27.136,4.301-37.427,12.902s-15.923,23.91-10.086,35.994c-5.274-2.15-7.885-8.294-8.141-14.029
		c-0.256-5.683,1.331-11.315,1.792-16.998c1.178-14.643-6.246-29.082-17.562-38.093c-3.123-2.458-15.974-11.52-20.224-8.909
		c-3.584,2.15,2.458,5.274,3.942,6.861c2.816,2.97,5.171,6.502,5.171,10.752c-0.102,10.496-13.005,15.053-20.224,22.682
		c-6.042,6.4-8.141,15.718-7.578,24.474c0.563,8.755,3.533,17.203,6.502,25.446c-12.8-22.938-41.779-35.482-67.277-29.133
		C38.421,68.154,45.18,77.729,48.969,88.327z"/>
	<path style="fill:#E35A4D;" d="M131.605,224.468c-1.587-6.246,0.358-13.056,3.891-18.534c3.686-5.683,8.96-10.291,14.234-14.438
		c2.97-2.355,13.67-8.192,14.131-12.186c-0.819,7.168-4.096,13.926-8.294,19.763c-4.25,5.837-9.421,10.957-14.592,15.974
		c-3.43,3.328-6.912,6.758-8.806,11.11C131.913,225.594,131.759,225.031,131.605,224.468z"/>
	<path style="fill:#BD4A3E;" d="M49.788,238.855c-4.608-20.224-2.048-41.728,5.53-61.03c6.093-15.565,15.411-30.054,18.278-46.541
		c5.222-30.31-12.39-60.518-42.189-68.915c-0.512-0.154-1.075-0.307-1.587-0.41c8.909,6.605,15.462,15.974,19.2,26.368
		c4.403,12.39,4.762,26.214,0.205,38.554c-7.731,20.89-27.034,35.635-35.994,56.013c-10.394,23.706-4.454,53.146,13.056,72.243
		c11.725,12.851,28.058,20.941,45.261,23.706C60.745,268.039,53.167,253.857,49.788,238.855z"/>
	<path style="fill:#BD4A3E;" d="M153.007,102.305c1.997-7.27,4.71-15.36,1.126-21.965c-0.41-0.768-0.922-1.485-1.434-2.202
		c0.051,0.102,0.102,0.256,0.154,0.358c-5.274-2.15-7.885-8.294-8.141-14.029c-0.256-5.683,1.331-11.315,1.792-16.998
		c1.178-14.643-6.246-29.082-17.562-38.093c-3.123-2.458-15.974-11.52-20.224-8.909c-0.205,0.154-0.41,0.256-0.563,0.41
		c12.851,5.018,21.658,18.944,20.685,32.717c-0.512,7.475-3.584,14.49-5.069,21.811c-2.662,13.056-0.102,26.931,6.042,38.758
		c6.144,11.827,15.77,21.658,26.931,28.979C150.549,118.842,151.01,109.575,153.007,102.305z"/>
	<path style="fill:#BD4A3E;" d="M248.853,125.089c0.563,3.379,0.717,6.81,0.819,10.24c0.461,16.077,0.205,32.205-0.819,48.282
		c-0.922,14.49-2.458,29.03-6.81,42.854c-4.352,13.824-11.674,27.034-22.63,36.506c-9.472,8.192-21.197,13.21-32.154,19.354
		c-0.256,0.205-0.512,0.41-0.768,0.563c35.635-2.355,68.915-26.675,82.022-59.904c13.107-33.229,5.376-73.677-19.046-99.738
		C249.212,123.86,249.058,124.474,248.853,125.089z"/>
	<path style="fill:#BD4A3E;" d="M204.924,87.764c5.427,7.68,10.547,15.974,11.93,25.293c1.126,7.475-0.205,15.053-1.536,22.477
		c-2.918,16.23-5.888,32.614-12.646,47.616c4.864-6.81,11.213-12.339,16.998-18.33c7.322-15.053,12.698-31.334,13.005-48.077
		c0.307-17.459-5.376-35.533-17.869-47.718c-5.99-5.837-13.466-10.394-17.869-17.459c-4.403-7.117-4.045-18.33,3.482-21.914
		c-0.512,0.051-1.024,0.102-1.536,0.154c-2.509,1.28-4.966,3.482-7.219,6.861c-5.222,7.834-4.813,18.33-1.434,27.136
		C193.609,72.506,199.497,80.033,204.924,87.764z"/>
	<path style="fill:#BD4A3E;" d="M99.913,104.301c0.87,10.957-0.922,22.067-5.12,32.256c3.635-3.123,7.373-6.298,9.984-10.291
		c5.12-7.834,3.789-17.562-4.915-22.067C99.913,104.199,99.913,104.25,99.913,104.301z"/>
</g>
<g>
</g>
<g>
</g>
<g>
</g>
<g>
</g>
<g>
</g>
<g>
</g>
<g>
</g>
<g>
</g>
<g>
</g>
<g>
</g>
<g>
</g>
<g>
</g>
<g>
</g>
<g>
</g>
<g>
</g>
</svg>
