<svg id="Capa_1" enable-background="new 0 0 509.999 509.999" height="512" viewBox="0 0 509.999 509.999" width="512" xmlns="http://www.w3.org/2000/svg"><g><g><path d="m255.153 412.952 143.692 84.567 11.25-8.174-69.762-127.679-85.333-85.791-10.667 75.125z" fill="#fd8c02"/><path d="m410.095 489.345 11.003-7.994-36.063-162.966.347-.307-63.06-31.078-67.322-11.125z" fill="#fdae02"/></g><g><path d="m335.225 165.195-66.472-152.714h-13.753l-10.667 125.852 10.667 137.542 64-63.542z" fill="#fd8c02"/><path d="m255 12.481h-13.754l-66.613 153.039 16.367 46.813 64 63.542z" fill="#fdcb02"/></g><g><path d="m124.883 318.313.081.072-36.063 162.966 11.004 7.994 91.095-106.345 64-107.125-74.667 11.125z" fill="#fdcb02"/><path d="m99.905 489.345 11.25 8.174 143.845-84.657.153.09-.153-137.077z" fill="#fdae02"/></g><g><path d="m505.673 194.426-144.007 28.574-106.666 52.875 130.382 42.203 124.617-110.337z" fill="#fd8c02"/><path d="m505.673 194.426-4.174-12.846-166.133-16.06-.141-.325-80.225 110.68z" fill="#fdae02"/></g><g><path d="m174.633 165.52-166.133 16.06-4.174 12.846 133.34 60.574 117.334 20.875z" fill="#fdae02"/><path d="m4.326 194.426-4.326 13.315 124.883 110.572 130.117-42.438z" fill="#fd8c02"/></g></g></svg>