<svg width="512" height="512" viewBox="0 0 20 20" fill="none" xmlns="http://www.w3.org/2000/svg"><path d="M4 14.7724C4 13.4167 4.96316 12.262 6.27213 12.0483L6.39004 12.0291C7.4382 11.858 8.50625 11.858 9.5544 12.0291L9.67231 12.0483C10.9813 12.262 11.9444 13.4167 11.9444 14.7724C11.9444 15.3583 11.48 15.8333 10.9071 15.8333H5.03739C4.46446 15.8333 4 15.3583 4 14.7724Z" stroke="currentColor"></path><path d="M10.2894 7.36979C10.2894 8.67859 9.25194 9.73958 7.97222 9.73958C6.69251 9.73958 5.65509 8.67859 5.65509 7.36979C5.65509 6.06099 6.69251 5 7.97222 5C9.25194 5 10.2894 6.06099 10.2894 7.36979Z" stroke="currentColor"></path><path d="M11.9443 9.73958C13.5731 9.73958 14.8934 8.67859 14.8934 7.36979C14.8934 6.06099 13.5731 5 11.9443 5M13.958 15.8333H15.6796C16.4088 15.8333 16.9999 15.3583 16.9999 14.7724C16.9999 13.4167 15.774 12.262 14.1081 12.0483L13.958 12.0291C13.5538 12.0291 13.5296 12.0291 12.9901 12.0291" stroke="#028a7e" stroke-linecap="round"></path></svg>