<svg width="20" height="20" viewBox="0 0 20 20" fill="none" xmlns="http://www.w3.org/2000/svg"><path d="M2.40417 7.37396C2.96471 5.11653 4.75469 3.37111 7.02514 2.86802L7.40337 2.78421C9.11351 2.40526 10.8858 2.40526 12.596 2.78421L12.9742 2.86802C15.2447 3.37111 17.0346 5.11653 17.5952 7.37396C18.0234 9.09846 18.0234 10.9015 17.5952 12.626C17.0346 14.8835 15.2447 16.6289 12.9742 17.132L12.596 17.2158C10.8858 17.5947 9.11351 17.5947 7.40337 17.2158L7.02514 17.132C4.75469 16.6289 2.96471 14.8835 2.40417 12.626C1.97595 10.9015 1.97595 9.09846 2.40417 7.37396Z" class="icon_main" stroke-width="1.5"></path><path d="M7.40337 2.78421C9.11351 2.40526 10.8858 2.40526 12.596 2.78421L12.9742 2.86802C15.2447 3.37111 17.0346 5.11653 17.5952 7.37396C18.0234 9.09846 18.0234 10.9015 17.5952 12.626C17.0346 14.8835 15.2447 16.6289 12.9742 17.132L12.596 17.2158C10.8858 17.5947 9.11351 17.5947 7.40337 17.2158L7.02514 17.132C4.75469 16.6289 2.96471 14.8835 2.40417 12.626C2.19006 11.7638 2.08301 10.8819 2.08301 10" stroke="currentColor" stroke-width="1.5" stroke-linecap="round"></path><path fill-rule="evenodd" clip-rule="evenodd" d="M10.0002 5.83301C10.3188 5.83301 10.5771 6.07633 10.5771 6.37649V6.82112H10.641C11.7139 6.82112 12.5 7.6998 12.5 8.68212C12.5 8.98228 12.2417 9.2256 11.9231 9.2256C11.6045 9.2256 11.3462 8.98228 11.3462 8.68212C11.3462 8.20915 10.9842 7.90808 10.641 7.90808H10.5771V9.61905L11.3561 9.88588C12.0639 10.1284 12.5 10.7878 12.5 11.4862C12.5 12.3752 11.7876 13.1782 10.8055 13.1782H10.5771V13.6229C10.5771 13.923 10.3188 14.1663 10.0002 14.1663C9.68158 14.1663 9.42328 13.923 9.42328 13.6229V13.1782H9.35897C8.28606 13.1782 7.5 12.2995 7.5 11.3172C7.5 11.017 7.7583 10.7737 8.07692 10.7737C8.39555 10.7737 8.65385 11.017 8.65385 11.3172C8.65385 11.7901 9.01577 12.0912 9.35897 12.0912H9.42328V10.3804L8.64393 10.1134C7.93608 9.87093 7.5 9.21149 7.5 8.51309C7.5 7.62412 8.21243 6.82112 9.1945 6.82112H9.42328V6.37649C9.42328 6.07633 9.68158 5.83301 10.0002 5.83301ZM9.42328 7.90808H9.1945C8.94213 7.90808 8.65385 8.13347 8.65385 8.51309C8.65385 8.80339 8.83339 9.02172 9.03825 9.09189L9.42328 9.22379V7.90808ZM10.5771 10.7756V12.0912H10.8055C11.0579 12.0912 11.3462 11.8658 11.3462 11.4862C11.3462 11.1959 11.1666 10.9776 10.9618 10.9074L10.5771 10.7756Z" class="icon_main_fill"></path></svg>